<mxfile host="Electron" agent="Mozilla/5.0 (Windows NT 10.0; Win64; x64) AppleWebKit/537.36 (KHTML, like Gecko) draw.io/24.7.5 Chrome/126.0.6478.183 Electron/31.3.0 Safari/537.36" version="24.7.5">
  <diagram name="第 1 页" id="P6zbZtlZHJf_UHU2-nHi">
    <mxGraphModel dx="1114" dy="656" grid="1" gridSize="10" guides="1" tooltips="1" connect="1" arrows="1" fold="1" page="1" pageScale="1" pageWidth="827" pageHeight="1169" math="0" shadow="0">
      <root>
        <mxCell id="0" />
        <mxCell id="1" parent="0" />
        <mxCell id="QVa-zLG6aqoEDmhBlNKH-72" value="" style="rounded=0;whiteSpace=wrap;html=1;strokeColor=#666666;align=center;verticalAlign=middle;fontFamily=Helvetica;fontSize=16;fontColor=#333333;fillColor=#f5f5f5;" parent="1" vertex="1">
          <mxGeometry x="30" y="1720" width="1030" height="490" as="geometry" />
        </mxCell>
        <mxCell id="QVa-zLG6aqoEDmhBlNKH-46" style="edgeStyle=orthogonalEdgeStyle;rounded=0;orthogonalLoop=1;jettySize=auto;html=1;entryX=0.5;entryY=0;entryDx=0;entryDy=0;fontFamily=Helvetica;fontSize=16;fontColor=default;" parent="1" source="QVa-zLG6aqoEDmhBlNKH-45" target="QVa-zLG6aqoEDmhBlNKH-42" edge="1">
          <mxGeometry relative="1" as="geometry" />
        </mxCell>
        <mxCell id="QVa-zLG6aqoEDmhBlNKH-47" value="&lt;b&gt;自动装配使用&lt;/b&gt;&lt;div&gt;或&lt;b&gt;无感使用&lt;/b&gt;&lt;/div&gt;" style="edgeLabel;html=1;align=center;verticalAlign=middle;resizable=0;points=[];rounded=0;strokeColor=#6c8ebf;fontFamily=Helvetica;fontSize=16;fontColor=default;fillColor=#dae8fc;" parent="QVa-zLG6aqoEDmhBlNKH-46" vertex="1" connectable="0">
          <mxGeometry x="0.1448" y="-3" relative="1" as="geometry">
            <mxPoint y="3" as="offset" />
          </mxGeometry>
        </mxCell>
        <mxCell id="QVa-zLG6aqoEDmhBlNKH-45" value="" style="rounded=0;whiteSpace=wrap;html=1;strokeColor=#666666;align=center;verticalAlign=middle;fontFamily=Helvetica;fontSize=16;fontColor=#333333;fillColor=#f5f5f5;" parent="1" vertex="1">
          <mxGeometry x="480" y="760" width="210" height="320" as="geometry" />
        </mxCell>
        <mxCell id="QVa-zLG6aqoEDmhBlNKH-33" value="" style="rounded=0;whiteSpace=wrap;html=1;strokeColor=#666666;align=center;verticalAlign=middle;fontFamily=Helvetica;fontSize=16;fontColor=#333333;fillColor=#f5f5f5;" parent="1" vertex="1">
          <mxGeometry x="827" y="370" width="663" height="460" as="geometry" />
        </mxCell>
        <mxCell id="QVa-zLG6aqoEDmhBlNKH-3" style="edgeStyle=orthogonalEdgeStyle;rounded=0;orthogonalLoop=1;jettySize=auto;html=1;entryX=0;entryY=0.5;entryDx=0;entryDy=0;" parent="1" source="QVa-zLG6aqoEDmhBlNKH-1" target="QVa-zLG6aqoEDmhBlNKH-2" edge="1">
          <mxGeometry relative="1" as="geometry" />
        </mxCell>
        <mxCell id="QVa-zLG6aqoEDmhBlNKH-1" value="创建&lt;div&gt;项目&lt;/div&gt;" style="ellipse;whiteSpace=wrap;html=1;aspect=fixed;fillColor=#f8cecc;strokeColor=#b85450;" parent="1" vertex="1">
          <mxGeometry x="100" y="100" width="80" height="80" as="geometry" />
        </mxCell>
        <mxCell id="QVa-zLG6aqoEDmhBlNKH-5" style="edgeStyle=orthogonalEdgeStyle;rounded=0;orthogonalLoop=1;jettySize=auto;html=1;entryX=0.5;entryY=0;entryDx=0;entryDy=0;fontFamily=Helvetica;fontSize=16;fontColor=default;" parent="1" source="QVa-zLG6aqoEDmhBlNKH-2" target="QVa-zLG6aqoEDmhBlNKH-4" edge="1">
          <mxGeometry relative="1" as="geometry" />
        </mxCell>
        <mxCell id="QVa-zLG6aqoEDmhBlNKH-2" value="选中场景" style="rounded=0;whiteSpace=wrap;html=1;fillColor=#fff2cc;strokeColor=#d6b656;" parent="1" vertex="1">
          <mxGeometry x="300" y="125" width="120" height="30" as="geometry" />
        </mxCell>
        <mxCell id="QVa-zLG6aqoEDmhBlNKH-8" style="edgeStyle=orthogonalEdgeStyle;rounded=0;orthogonalLoop=1;jettySize=auto;html=1;entryX=0;entryY=0.5;entryDx=0;entryDy=0;fontFamily=Helvetica;fontSize=16;fontColor=default;" parent="1" source="QVa-zLG6aqoEDmhBlNKH-4" target="QVa-zLG6aqoEDmhBlNKH-7" edge="1">
          <mxGeometry relative="1" as="geometry" />
        </mxCell>
        <mxCell id="QVa-zLG6aqoEDmhBlNKH-9" style="edgeStyle=orthogonalEdgeStyle;rounded=0;orthogonalLoop=1;jettySize=auto;html=1;entryX=0;entryY=0.5;entryDx=0;entryDy=0;fontFamily=Helvetica;fontSize=16;fontColor=default;" parent="1" source="QVa-zLG6aqoEDmhBlNKH-4" target="QVa-zLG6aqoEDmhBlNKH-6" edge="1">
          <mxGeometry relative="1" as="geometry" />
        </mxCell>
        <mxCell id="QVa-zLG6aqoEDmhBlNKH-12" style="edgeStyle=orthogonalEdgeStyle;rounded=0;orthogonalLoop=1;jettySize=auto;html=1;entryX=0.5;entryY=0;entryDx=0;entryDy=0;fontFamily=Helvetica;fontSize=16;fontColor=default;" parent="1" source="QVa-zLG6aqoEDmhBlNKH-4" target="QVa-zLG6aqoEDmhBlNKH-11" edge="1">
          <mxGeometry relative="1" as="geometry" />
        </mxCell>
        <mxCell id="QVa-zLG6aqoEDmhBlNKH-4" value="场景启动器：&#xa;spring-boot-starter-web" style="rounded=0;whiteSpace=wrap;fillColor=#cdeb8b;strokeColor=#36393d;fontSize=16;" parent="1" vertex="1">
          <mxGeometry x="245" y="210" width="230" height="40" as="geometry" />
        </mxCell>
        <mxCell id="QVa-zLG6aqoEDmhBlNKH-30" style="edgeStyle=orthogonalEdgeStyle;rounded=0;orthogonalLoop=1;jettySize=auto;html=1;entryX=0;entryY=0.5;entryDx=0;entryDy=0;fontFamily=Helvetica;fontSize=16;fontColor=default;" parent="1" source="QVa-zLG6aqoEDmhBlNKH-6" target="QVa-zLG6aqoEDmhBlNKH-29" edge="1">
          <mxGeometry relative="1" as="geometry" />
        </mxCell>
        <mxCell id="QVa-zLG6aqoEDmhBlNKH-6" value="导入基础依赖：&#xa;spring-boot-starter" style="rounded=0;whiteSpace=wrap;strokeColor=#6c8ebf;align=center;verticalAlign=middle;fontFamily=Helvetica;fontSize=16;fontColor=default;fillColor=#dae8fc;" parent="1" vertex="1">
          <mxGeometry x="560" y="240" width="200" height="40" as="geometry" />
        </mxCell>
        <mxCell id="QVa-zLG6aqoEDmhBlNKH-7" value="导入场景依赖：&#xa;json、tomcat" style="rounded=0;whiteSpace=wrap;strokeColor=#6c8ebf;align=center;verticalAlign=middle;fontFamily=Helvetica;fontSize=16;fontColor=default;fillColor=#dae8fc;" parent="1" vertex="1">
          <mxGeometry x="560" y="180" width="200" height="40" as="geometry" />
        </mxCell>
        <mxCell id="QVa-zLG6aqoEDmhBlNKH-10" value="" style="rounded=0;whiteSpace=wrap;html=1;strokeColor=#6c8ebf;align=center;verticalAlign=middle;fontFamily=Helvetica;fontSize=16;fontColor=default;fillColor=#dae8fc;" parent="1" vertex="1">
          <mxGeometry x="200" y="330" width="590" height="320" as="geometry" />
        </mxCell>
        <mxCell id="QVa-zLG6aqoEDmhBlNKH-15" style="edgeStyle=orthogonalEdgeStyle;rounded=0;orthogonalLoop=1;jettySize=auto;html=1;entryX=0.5;entryY=0;entryDx=0;entryDy=0;fontFamily=Helvetica;fontSize=16;fontColor=default;" parent="1" source="QVa-zLG6aqoEDmhBlNKH-11" target="QVa-zLG6aqoEDmhBlNKH-13" edge="1">
          <mxGeometry relative="1" as="geometry" />
        </mxCell>
        <mxCell id="QVa-zLG6aqoEDmhBlNKH-11" value="项目启动流程" style="rounded=1;whiteSpace=wrap;html=1;strokeColor=#d6b656;align=center;verticalAlign=middle;fontFamily=Helvetica;fontSize=16;fillColor=#fff2cc;" parent="1" vertex="1">
          <mxGeometry x="300" y="310" width="120" height="60" as="geometry" />
        </mxCell>
        <mxCell id="QVa-zLG6aqoEDmhBlNKH-18" style="edgeStyle=orthogonalEdgeStyle;rounded=0;orthogonalLoop=1;jettySize=auto;html=1;entryX=0;entryY=0.5;entryDx=0;entryDy=0;fontFamily=Helvetica;fontSize=16;fontColor=default;" parent="1" source="QVa-zLG6aqoEDmhBlNKH-13" target="QVa-zLG6aqoEDmhBlNKH-17" edge="1">
          <mxGeometry relative="1" as="geometry" />
        </mxCell>
        <mxCell id="QVa-zLG6aqoEDmhBlNKH-20" style="edgeStyle=orthogonalEdgeStyle;rounded=0;orthogonalLoop=1;jettySize=auto;html=1;fontFamily=Helvetica;fontSize=16;fontColor=default;" parent="1" source="QVa-zLG6aqoEDmhBlNKH-13" target="QVa-zLG6aqoEDmhBlNKH-19" edge="1">
          <mxGeometry relative="1" as="geometry" />
        </mxCell>
        <mxCell id="QVa-zLG6aqoEDmhBlNKH-22" style="edgeStyle=orthogonalEdgeStyle;rounded=0;orthogonalLoop=1;jettySize=auto;html=1;entryX=0;entryY=0.5;entryDx=0;entryDy=0;fontFamily=Helvetica;fontSize=16;fontColor=default;" parent="1" source="QVa-zLG6aqoEDmhBlNKH-13" target="QVa-zLG6aqoEDmhBlNKH-21" edge="1">
          <mxGeometry relative="1" as="geometry" />
        </mxCell>
        <mxCell id="QVa-zLG6aqoEDmhBlNKH-13" value="主程序启动" style="rounded=0;whiteSpace=wrap;html=1;strokeColor=#b85450;align=center;verticalAlign=middle;fontFamily=Helvetica;fontSize=16;fillColor=#f8cecc;" parent="1" vertex="1">
          <mxGeometry x="293.5" y="430" width="133" height="40" as="geometry" />
        </mxCell>
        <mxCell id="QVa-zLG6aqoEDmhBlNKH-17" value="@SpringBootConfiguration&#xa;容器中的配置类组件" style="rounded=0;whiteSpace=wrap;strokeColor=#9673a6;align=center;verticalAlign=middle;fontFamily=Helvetica;fontSize=16;fillColor=#e1d5e7;" parent="1" vertex="1">
          <mxGeometry x="520" y="360" width="220" height="40" as="geometry" />
        </mxCell>
        <mxCell id="QVa-zLG6aqoEDmhBlNKH-24" style="edgeStyle=orthogonalEdgeStyle;rounded=0;orthogonalLoop=1;jettySize=auto;html=1;entryX=0;entryY=0.5;entryDx=0;entryDy=0;fontFamily=Helvetica;fontSize=16;fontColor=default;" parent="1" source="QVa-zLG6aqoEDmhBlNKH-19" target="QVa-zLG6aqoEDmhBlNKH-23" edge="1">
          <mxGeometry relative="1" as="geometry" />
        </mxCell>
        <mxCell id="QVa-zLG6aqoEDmhBlNKH-19" value="@EnableAutoConfiguration&#xa;开启自动配置" style="rounded=0;whiteSpace=wrap;strokeColor=#3700CC;align=center;verticalAlign=middle;fontFamily=Helvetica;fontSize=16;fillColor=#6a00ff;fontColor=#ffffff;" parent="1" vertex="1">
          <mxGeometry x="520" y="430" width="220" height="40" as="geometry" />
        </mxCell>
        <mxCell id="QVa-zLG6aqoEDmhBlNKH-21" value="@ComponentScan&#xa;包扫描规则" style="rounded=0;whiteSpace=wrap;strokeColor=#9673a6;align=center;verticalAlign=middle;fontFamily=Helvetica;fontSize=16;fillColor=#e1d5e7;" parent="1" vertex="1">
          <mxGeometry x="520" y="500" width="220" height="40" as="geometry" />
        </mxCell>
        <mxCell id="QVa-zLG6aqoEDmhBlNKH-27" style="edgeStyle=orthogonalEdgeStyle;rounded=0;orthogonalLoop=1;jettySize=auto;html=1;entryX=0.5;entryY=0;entryDx=0;entryDy=0;fontFamily=Helvetica;fontSize=16;fontColor=default;" parent="1" source="QVa-zLG6aqoEDmhBlNKH-23" target="QVa-zLG6aqoEDmhBlNKH-25" edge="1">
          <mxGeometry relative="1" as="geometry" />
        </mxCell>
        <mxCell id="QVa-zLG6aqoEDmhBlNKH-23" value="@Import(AutoConfigurationImportSelector.class)&#xa;批量导入组件" style="rounded=0;whiteSpace=wrap;strokeColor=#A50040;align=center;verticalAlign=middle;fontFamily=Helvetica;fontSize=16;fontColor=#ffffff;fillColor=#d80073;" parent="1" vertex="1">
          <mxGeometry x="870" y="430" width="380" height="40" as="geometry" />
        </mxCell>
        <mxCell id="QVa-zLG6aqoEDmhBlNKH-49" style="edgeStyle=orthogonalEdgeStyle;rounded=0;orthogonalLoop=1;jettySize=auto;html=1;fontFamily=Helvetica;fontSize=16;fontColor=default;" parent="1" source="QVa-zLG6aqoEDmhBlNKH-25" target="QVa-zLG6aqoEDmhBlNKH-35" edge="1">
          <mxGeometry relative="1" as="geometry" />
        </mxCell>
        <mxCell id="QVa-zLG6aqoEDmhBlNKH-25" value="XxxAutoConfiguration&lt;div&gt;xxx的自动配置&lt;/div&gt;" style="rounded=0;whiteSpace=wrap;html=1;strokeColor=#BD7000;align=center;verticalAlign=middle;fontFamily=Helvetica;fontSize=16;fontColor=#000000;fillColor=#f0a30a;" parent="1" vertex="1">
          <mxGeometry x="925" y="700" width="270" height="45" as="geometry" />
        </mxCell>
        <mxCell id="QVa-zLG6aqoEDmhBlNKH-28" value="导入152个自动配置类；&lt;span style=&quot;background-color: initial;&quot;&gt;在类路径下找下面文件：&lt;/span&gt;&lt;div&gt;&lt;span style=&quot;background-color: initial;&quot;&gt;META-INF/spring/org.springframework.boot.autoconfigure.AutoConfiguration.imports&lt;/span&gt;&lt;/div&gt;" style="text;html=1;align=left;verticalAlign=middle;resizable=0;points=[];autosize=1;strokeColor=#B09500;fillColor=#e3c800;fontFamily=Helvetica;fontSize=16;fontColor=#000000;" parent="1" vertex="1">
          <mxGeometry x="850" y="495" width="620" height="50" as="geometry" />
        </mxCell>
        <mxCell id="QVa-zLG6aqoEDmhBlNKH-29" value="spring-boot-autoconfigure&#xa;自动配置包" style="rounded=0;whiteSpace=wrap;strokeColor=#6c8ebf;align=center;verticalAlign=middle;fontFamily=Helvetica;fontSize=16;fontColor=default;fillColor=#dae8fc;" parent="1" vertex="1">
          <mxGeometry x="840" y="237.5" width="250" height="45" as="geometry" />
        </mxCell>
        <mxCell id="QVa-zLG6aqoEDmhBlNKH-32" value="&lt;div&gt;命名规范：&lt;/div&gt;META-INF/spring/@AutoConfiguration全类名.imports&lt;div&gt;把所有给项目中要导入的自动配置类放在文件中&lt;/div&gt;" style="rounded=0;whiteSpace=wrap;html=1;strokeColor=#6c8ebf;align=left;verticalAlign=middle;fontFamily=Helvetica;fontSize=16;fontColor=default;fillColor=#dae8fc;" parent="1" vertex="1">
          <mxGeometry x="1070" y="560" width="400" height="90" as="geometry" />
        </mxCell>
        <mxCell id="QVa-zLG6aqoEDmhBlNKH-34" value="项目启动导入底层所有的自动配置类" style="rounded=0;whiteSpace=wrap;html=1;strokeColor=#d6b656;align=center;verticalAlign=middle;fontFamily=Helvetica;fontSize=16;fillColor=#fff2cc;" parent="1" vertex="1">
          <mxGeometry x="890" y="355" width="520" height="50" as="geometry" />
        </mxCell>
        <mxCell id="QVa-zLG6aqoEDmhBlNKH-37" style="edgeStyle=orthogonalEdgeStyle;rounded=0;orthogonalLoop=1;jettySize=auto;html=1;entryX=0.5;entryY=0;entryDx=0;entryDy=0;fontFamily=Helvetica;fontSize=16;fontColor=default;" parent="1" source="QVa-zLG6aqoEDmhBlNKH-35" target="QVa-zLG6aqoEDmhBlNKH-36" edge="1">
          <mxGeometry relative="1" as="geometry" />
        </mxCell>
        <mxCell id="QVa-zLG6aqoEDmhBlNKH-35" value="&lt;font style=&quot;font-size: 32px;&quot;&gt;自动配置类&lt;/font&gt;" style="rounded=0;whiteSpace=wrap;html=1;strokeColor=#d6b656;align=center;verticalAlign=middle;fontFamily=Helvetica;fontSize=16;fillColor=#fff2cc;" parent="1" vertex="1">
          <mxGeometry x="970" y="800" width="225" height="50" as="geometry" />
        </mxCell>
        <mxCell id="QVa-zLG6aqoEDmhBlNKH-50" style="edgeStyle=orthogonalEdgeStyle;rounded=0;orthogonalLoop=1;jettySize=auto;html=1;entryX=1;entryY=0.5;entryDx=0;entryDy=0;fontFamily=Helvetica;fontSize=16;fontColor=default;" parent="1" source="QVa-zLG6aqoEDmhBlNKH-36" target="QVa-zLG6aqoEDmhBlNKH-45" edge="1">
          <mxGeometry relative="1" as="geometry" />
        </mxCell>
        <mxCell id="QVa-zLG6aqoEDmhBlNKH-51" value="用户已经配置了就不放&lt;div&gt;用户没配置就放默认&lt;/div&gt;" style="edgeLabel;html=1;align=center;verticalAlign=middle;resizable=0;points=[];rounded=0;strokeColor=#6c8ebf;fontFamily=Helvetica;fontSize=16;fontColor=default;fillColor=#dae8fc;" parent="QVa-zLG6aqoEDmhBlNKH-50" vertex="1" connectable="0">
          <mxGeometry x="0.1718" y="-3" relative="1" as="geometry">
            <mxPoint x="33" y="-27" as="offset" />
          </mxGeometry>
        </mxCell>
        <mxCell id="QVa-zLG6aqoEDmhBlNKH-36" value="基于&lt;b&gt;@Conditional&lt;/b&gt;条件注解，给容器中放组件" style="rounded=0;whiteSpace=wrap;html=1;strokeColor=#9673a6;align=center;verticalAlign=middle;fontFamily=Helvetica;fontSize=16;fillColor=#e1d5e7;" parent="1" vertex="1">
          <mxGeometry x="902.5" y="900" width="360" height="40" as="geometry" />
        </mxCell>
        <mxCell id="QVa-zLG6aqoEDmhBlNKH-38" value="组件1" style="rounded=0;whiteSpace=wrap;html=1;strokeColor=#6c8ebf;align=center;verticalAlign=middle;fontFamily=Helvetica;fontSize=16;fontColor=default;fillColor=#dae8fc;" parent="1" vertex="1">
          <mxGeometry x="540" y="810" width="120" height="40" as="geometry" />
        </mxCell>
        <mxCell id="QVa-zLG6aqoEDmhBlNKH-39" value="组件2" style="rounded=0;whiteSpace=wrap;html=1;strokeColor=#6c8ebf;align=center;verticalAlign=middle;fontFamily=Helvetica;fontSize=16;fontColor=default;fillColor=#dae8fc;" parent="1" vertex="1">
          <mxGeometry x="540" y="870" width="120" height="40" as="geometry" />
        </mxCell>
        <mxCell id="QVa-zLG6aqoEDmhBlNKH-40" value="组件N" style="rounded=0;whiteSpace=wrap;html=1;strokeColor=#6c8ebf;align=center;verticalAlign=middle;fontFamily=Helvetica;fontSize=16;fontColor=default;fillColor=#dae8fc;" parent="1" vertex="1">
          <mxGeometry x="540" y="1030" width="120" height="40" as="geometry" />
        </mxCell>
        <mxCell id="QVa-zLG6aqoEDmhBlNKH-41" value="......" style="rounded=0;whiteSpace=wrap;html=1;strokeColor=#6c8ebf;align=center;verticalAlign=middle;fontFamily=Helvetica;fontSize=16;fontColor=default;fillColor=#dae8fc;" parent="1" vertex="1">
          <mxGeometry x="540" y="950" width="120" height="40" as="geometry" />
        </mxCell>
        <mxCell id="QVa-zLG6aqoEDmhBlNKH-42" value="业务代码" style="rounded=0;whiteSpace=wrap;html=1;strokeColor=#d6b656;align=center;verticalAlign=middle;fontFamily=Helvetica;fontSize=16;fillColor=#fff2cc;" parent="1" vertex="1">
          <mxGeometry x="170" y="1185" width="503" height="60" as="geometry" />
        </mxCell>
        <mxCell id="QVa-zLG6aqoEDmhBlNKH-43" value="" style="endArrow=none;html=1;rounded=0;fontFamily=Helvetica;fontSize=16;fontColor=default;" parent="1" edge="1">
          <mxGeometry width="50" height="50" relative="1" as="geometry">
            <mxPoint x="150" y="1090" as="sourcePoint" />
            <mxPoint x="1562" y="1090" as="targetPoint" />
          </mxGeometry>
        </mxCell>
        <mxCell id="QVa-zLG6aqoEDmhBlNKH-44" value="&lt;font style=&quot;font-size: 42px;&quot;&gt;以上都是自动化的&lt;/font&gt;" style="edgeLabel;html=1;align=center;verticalAlign=middle;resizable=0;points=[];rounded=0;strokeColor=#6c8ebf;fontFamily=Helvetica;fontSize=16;fontColor=default;fillColor=#dae8fc;" parent="QVa-zLG6aqoEDmhBlNKH-43" vertex="1" connectable="0">
          <mxGeometry x="-0.0808" relative="1" as="geometry">
            <mxPoint x="154" y="-30" as="offset" />
          </mxGeometry>
        </mxCell>
        <mxCell id="QVa-zLG6aqoEDmhBlNKH-53" style="edgeStyle=orthogonalEdgeStyle;rounded=0;orthogonalLoop=1;jettySize=auto;html=1;entryX=0;entryY=0.5;entryDx=0;entryDy=0;fontFamily=Helvetica;fontSize=16;fontColor=default;" parent="1" source="QVa-zLG6aqoEDmhBlNKH-52" target="QVa-zLG6aqoEDmhBlNKH-40" edge="1">
          <mxGeometry relative="1" as="geometry" />
        </mxCell>
        <mxCell id="QVa-zLG6aqoEDmhBlNKH-54" value="禁用默认" style="edgeLabel;html=1;align=center;verticalAlign=middle;resizable=0;points=[];rounded=0;strokeColor=#6c8ebf;fontFamily=Helvetica;fontSize=16;fontColor=default;fillColor=#dae8fc;" parent="QVa-zLG6aqoEDmhBlNKH-53" vertex="1" connectable="0">
          <mxGeometry x="0.0583" y="1" relative="1" as="geometry">
            <mxPoint as="offset" />
          </mxGeometry>
        </mxCell>
        <mxCell id="QVa-zLG6aqoEDmhBlNKH-101" style="edgeStyle=orthogonalEdgeStyle;rounded=0;orthogonalLoop=1;jettySize=auto;html=1;entryX=0.5;entryY=1;entryDx=0;entryDy=0;fontFamily=Helvetica;fontSize=16;fontColor=default;" parent="1" source="QVa-zLG6aqoEDmhBlNKH-52" target="QVa-zLG6aqoEDmhBlNKH-100" edge="1">
          <mxGeometry relative="1" as="geometry" />
        </mxCell>
        <mxCell id="QVa-zLG6aqoEDmhBlNKH-52" value="自定义组件N" style="rounded=0;whiteSpace=wrap;html=1;strokeColor=#36393d;align=center;verticalAlign=middle;fontFamily=Helvetica;fontSize=16;fillColor=#cdeb8b;" parent="1" vertex="1">
          <mxGeometry x="180" y="1030" width="120" height="40" as="geometry" />
        </mxCell>
        <mxCell id="QVa-zLG6aqoEDmhBlNKH-60" style="edgeStyle=orthogonalEdgeStyle;rounded=0;orthogonalLoop=1;jettySize=auto;html=1;entryX=0.5;entryY=0;entryDx=0;entryDy=0;fontFamily=Helvetica;fontSize=16;fontColor=default;" parent="1" source="QVa-zLG6aqoEDmhBlNKH-55" target="QVa-zLG6aqoEDmhBlNKH-59" edge="1">
          <mxGeometry relative="1" as="geometry" />
        </mxCell>
        <mxCell id="QVa-zLG6aqoEDmhBlNKH-96" style="edgeStyle=orthogonalEdgeStyle;rounded=0;orthogonalLoop=1;jettySize=auto;html=1;fontFamily=Helvetica;fontSize=16;fontColor=default;" parent="1" source="QVa-zLG6aqoEDmhBlNKH-55" target="QVa-zLG6aqoEDmhBlNKH-77" edge="1">
          <mxGeometry relative="1" as="geometry">
            <Array as="points">
              <mxPoint x="700" y="1610" />
              <mxPoint x="1470" y="1610" />
            </Array>
          </mxGeometry>
        </mxCell>
        <mxCell id="QVa-zLG6aqoEDmhBlNKH-97" value="导入组件" style="edgeLabel;html=1;align=center;verticalAlign=middle;resizable=0;points=[];rounded=0;strokeColor=#6c8ebf;fontFamily=Helvetica;fontSize=16;fontColor=default;fillColor=#dae8fc;" parent="QVa-zLG6aqoEDmhBlNKH-96" vertex="1" connectable="0">
          <mxGeometry x="-0.0793" relative="1" as="geometry">
            <mxPoint as="offset" />
          </mxGeometry>
        </mxCell>
        <mxCell id="QVa-zLG6aqoEDmhBlNKH-55" value="DataSourceAutoConfiguration" style="rounded=0;whiteSpace=wrap;strokeColor=#d6b656;align=center;verticalAlign=middle;fontFamily=Helvetica;fontSize=16;fillColor=#fff2cc;" parent="1" vertex="1">
          <mxGeometry x="536.25" y="1530" width="327.5" height="50" as="geometry" />
        </mxCell>
        <mxCell id="QVa-zLG6aqoEDmhBlNKH-58" style="edgeStyle=orthogonalEdgeStyle;rounded=0;orthogonalLoop=1;jettySize=auto;html=1;entryX=0.5;entryY=0;entryDx=0;entryDy=0;fontFamily=Helvetica;fontSize=16;fontColor=default;" parent="1" source="QVa-zLG6aqoEDmhBlNKH-56" target="QVa-zLG6aqoEDmhBlNKH-55" edge="1">
          <mxGeometry relative="1" as="geometry" />
        </mxCell>
        <mxCell id="QVa-zLG6aqoEDmhBlNKH-56" value="自动配置类的配置组件工作流程" style="rounded=0;whiteSpace=wrap;html=1;strokeColor=#6c8ebf;align=center;verticalAlign=middle;fontFamily=Helvetica;fontSize=32;fontColor=default;fillColor=#dae8fc;" parent="1" vertex="1">
          <mxGeometry x="475" y="1400" width="450" height="80" as="geometry" />
        </mxCell>
        <mxCell id="QVa-zLG6aqoEDmhBlNKH-57" value="&lt;font style=&quot;font-size: 22px;&quot;&gt;1、场景启动器一导入，就从&lt;/font&gt;&lt;div&gt;&lt;font style=&quot;font-size: 22px;&quot;&gt;&lt;span style=&quot;&quot;&gt;META-INF/spring/org.springframework.boot.autoconfigure.AutoConfiguration.imports&amp;nbsp;&lt;/span&gt;&lt;/font&gt;&lt;div style=&quot;font-size: 22px;&quot;&gt;&lt;font style=&quot;font-size: 22px;&quot;&gt;导入一堆自动配置类（&lt;b&gt;xxxAutoConfiguration&lt;/b&gt;）&lt;/font&gt;&lt;/div&gt;&lt;div style=&quot;font-size: 22px;&quot;&gt;&lt;font style=&quot;font-size: 22px;&quot;&gt;2、这些 xxxAutoConfiguration 基于 @Conditional 条件注解，导入了一堆组件&lt;/font&gt;&lt;/div&gt;&lt;div style=&quot;font-size: 22px;&quot;&gt;&lt;font style=&quot;font-size: 22px;&quot;&gt;3、业务就可以使用这些组件了&lt;/font&gt;&lt;/div&gt;&lt;/div&gt;" style="text;html=1;align=left;verticalAlign=middle;resizable=0;points=[];autosize=1;strokeColor=none;fillColor=none;fontFamily=Helvetica;fontSize=16;fontColor=default;" parent="1" vertex="1">
          <mxGeometry x="20" y="640" width="850" height="150" as="geometry" />
        </mxCell>
        <mxCell id="QVa-zLG6aqoEDmhBlNKH-65" style="edgeStyle=orthogonalEdgeStyle;rounded=0;orthogonalLoop=1;jettySize=auto;html=1;entryX=0.5;entryY=0;entryDx=0;entryDy=0;fontFamily=Helvetica;fontSize=16;fontColor=default;" parent="1" source="QVa-zLG6aqoEDmhBlNKH-59" target="QVa-zLG6aqoEDmhBlNKH-62" edge="1">
          <mxGeometry relative="1" as="geometry" />
        </mxCell>
        <mxCell id="QVa-zLG6aqoEDmhBlNKH-67" style="edgeStyle=orthogonalEdgeStyle;rounded=0;orthogonalLoop=1;jettySize=auto;html=1;entryX=0.5;entryY=0;entryDx=0;entryDy=0;fontFamily=Helvetica;fontSize=16;fontColor=default;" parent="1" source="QVa-zLG6aqoEDmhBlNKH-59" target="QVa-zLG6aqoEDmhBlNKH-66" edge="1">
          <mxGeometry relative="1" as="geometry" />
        </mxCell>
        <mxCell id="QVa-zLG6aqoEDmhBlNKH-59" value="@EnableConfigurationProperties(DataSourceProperties.class)&#xa;开启配置属性（开启属性与配置文件的自动绑定功能）" style="rounded=0;whiteSpace=wrap;strokeColor=#6c8ebf;align=center;verticalAlign=middle;fontFamily=Helvetica;fontSize=16;fontColor=default;fillColor=#dae8fc;fontStyle=1" parent="1" vertex="1">
          <mxGeometry x="170" y="1650" width="560" height="60" as="geometry" />
        </mxCell>
        <mxCell id="QVa-zLG6aqoEDmhBlNKH-61" value="" style="shape=image;verticalLabelPosition=bottom;labelBackgroundColor=default;verticalAlign=top;aspect=fixed;imageAspect=0;image=data:image/png,iVBORw0KGgoAAAANSUhEUgAAAoYAAACcCAIAAABtOv36AAAgAElEQVR4AeydCVAT59/HM07GLSOjUxzyoh10REeLow0OWo5Rq6hDFbXaWjzHW+pNvar1H1iuRANyH+EQkIiAAh4VUQGRasQqKqCoiAoqEUEreACKAs87e2Zz7CZAVKwPkyG7++zzPL/n8zz7fJ9zwwPsf8/+fcHuCF0gAUgAEoAEIAFIwJgEeByBQUnmgAOdIAFIABKABCAB4xKAkmxcnjA0SAASgAQgAUigkwSgJHcSHPQGCUACkAAkAAkYlwCUZOPyhKFBApAAJAAJQAKdJAAluZPgoDdIABKABCABSMC4BKAkG5cnDA0SgAQgAUgAEugkASjJnQQHvUECkAAkAAlAAsYlACXZuDxhaJAAJAAJQAKQQCcJQEnuJDjoDRKABCABSAASMC4BKMnG5QlDgwQgAUgAEoAEOkkASnInwUFvkAAkAAlAApCAcQlASTYuTxgaJAAJQAKQACTQSQJQkjsJDnqDBCABSAASgASMSwBKsnF5wtAgAUgAEoAEIIFOEoCS3Elw0BskAAlAApAAJGBcAt1Ikt++eFnX1Gbc5MHQvhwCbxtr61pav5z0fsiU3pYEC0wS0/7VHQe3q24/8Gp3IvCxcxA+m4bnfreR5Mrz42xRE6djBW8NNx7eCQlQBOqix3oKeu7eUfCOugK/O0ugXek/QvTN/GsNOgPgdtXpBV7sVgQ+dg7CZ7Mj2d9tJPnx1flT/Cznn7n2viPmG/NepfdU1My73PAgn14rCkkoq4Ade8ORqd9ZKY/+ysaL+CDCXX9eUXfu0Fl9xlypVf/IoKus/eRSrwBBn4wzRKhPLrryRa7y1x2Ko/vefP/ctJ4e/0d8+KJvd1R2xdS2Sye+53u5HX2jMxA1V6PGqzM63Rf1xvuh8/dpZUrw2ZN32nWbx3b1gWImnU30wbJSshfC7QoAaHmetyt1+nC/gabeI23jt8U9+Fc7/tbaCEcPC8czt1mfA6CWg2ymGvO6/mfTmLHRYXUuj2jvn+qg20jypwKgirfDknw7LgIRHsxiL/uqsOGRLgIvy2/KM4uwT3CieRclWVf46tf+y5L88vEp+eUU7HNirlkXJbnt8h9SQd+07EZ1fOSZuqsx49UZHctFvfF+aEm+dcaJL1qb1cHm+Kua02Q2YZm1b3vMEL7HaM8qshfC7Qoa89ZIBXyxy7rcGFmB37yggXx0yh5lizqh5+n7h/B3bzurcZl5k3oOMl3+Y8edy6NPDgFKMp0FUJJpFB/94EqW5SeQ5Lly3bLz0ZNvxAgr0f5dk+SWu/+zFA1ed1t3H5nVtcvxdpIBS7zdU5IZaWxTXt84zMP6l4sVutRTh+ujC7P5oom7aQ1uPLVCIuibnsP0/vaB7wjRoJ+LnjAi0jxkzUHNGz/78/+8JLcr/ylwWxJiZe+FjJZYu+5HT9c1U7n2JD0BESbIyyvEG8MHOUqsXeW+BfWqsvK8aKYQnXmoOidUbjtB3N85wjX4RhU9Z3wzd4QQpUYvfTcXUoHi30TISbfKPdeGDnDYNWLuAamigTld2FhZvG11+BBH8dB5adGl97ynohZ+FWpBsJ+8qriyaVWYlaPEelF6ws1KXxe1gevGyjLxthgbJ7H5uEB7t8Ox116R/eHyPBvKYHrc9SsbL2ROPh0xq1/MGC6S2PBUTbn/jpiR43z72EvHrDmWVNZEp+BhciwilB9SDbfWSmehyM4y8gZuzgC0vVDKpfLx06UCx4Dvl6eHXqinMwEA8L7ufqgoTjje18zR32Hd8f03m7SHxWhLmAddtAoLqlOSXHTye3r0jziYd/UV07BXNQfd434Y6DNkmGxDvPKizx6Ngev58pq//ZImDvAZ+m34Mr/bdG2HhdHWeF3+16Jxe4b39R01JmZjyJ1qJivsjsaCbWHD+krnRKr5O7PGU7CiIH1p4FDLCI+8hrLwBFuLXVPWFldhhae91GuPoJf6sqmKs858j1+TXhKGtykrIlbKHAZ69+OjQ4eFL/UsraCfMgDAy8ep7nHj8RRt3Ke8yByKJxPOIlGkq26bSUf8qyU341u+eGu+7vkjdlf2eFvq86VpM4jh1tEJO/ZVq01Rc3NurMv2OzD9u92DzfzG2O3dGlNZpzkmxRIvIcn7lHkeCeO+8RlmHbFyd/ljZr3BaRV7LjwO/E4k0Ch1PT3+jx8aeodJUR/n+nve36NWk/OKdbYJdboWHB3KD9hVrIql5WhqP36kjDFHoYyJtewZGljG1XfXmYPs6QWAIJn0mHxShoUv8bn1SFW3v06ZIRLMuFiSc3LhKImVhdRpzomsShq00t+awsUXDfxdjREZMkceNdZlbo2faOU7eHDEGtlDhVeAwPzI3yoAbEd68uhV3uHRfM9pEXRRavlna4CgV1T4bS5ubJEZ/7rBveTqi85jUMuFmQGpl+XpCs8NQabCPTuKyKzBhVPmsk62LOx8jDx3lasEsYnYc5dKIi4VE1bIJ/2RE5mi8PszykLo5RBdQz5d9dWZxOhleFJ/oU5JlrmslS0JOS9LynZ18UFsZaH3qZCb7212RpEfYjZGK6ITsn5aFOvkbLAkN97Z4ISaTk7YEof7XZw4fTpDkhtuuTmh5rMPoImFe5PzNiySImNiZJV4vPWPDqYWxqUW+m7wR4RR7inYMfbJpiobDr8AAE6SoEXpO9vLZEKMe7QiJunUktl+iKM8rY7MeEPEj5Vzi1IyxxuxD18Wci4mOX/TCv9eNkHbLlEVfvMDj5+8ev+YuC1OESvPXT1/F2IXS6ZXX6nrklVE4CyS3NLwRKn997SRyP66h0dVw4Bn11iLBGqS/Pbsut0CE+mvm8/slZ31mCmb66IpydOnJ01dcio6+pz/ivAhfI/JQbVUhf++VBz6Dd97wpJsWbQixD1WiHjYbb1LyibJ476HBV7dTDr/kEEIk+RhMTul5/1mSATCCLd1+TFbo4fxfTaewp+V22cm8z1+SXxB+7gfGM4Q6X/3TUEF/aM2+19Ill+M9UiyMxHZbr9PdVjf5K3eJeglnbuVSFHMPBfG7DgZIotEcdpMGwNAS95vvoKBRxV0pcpw43Rli/d9qU+IRU/JjA15cdF/SxaFWPF9FqbSyefm3JizcrfALGSlZ0FinCJwnWw4H50RRdekhGUs8eJCMnVa4o+LsqNlf/vO2WPJ95waUks1NLit4siFxqtpFxJjLyT6JAn5IucNCuwY+xQXqzU0dJcNkuW72r3OPoJ++w7gzTQ1wAAANtfcjIEawq9x5eXtzQNEIzeWv25vZ29L68xfjvSSkjx1WiLzSXEKeEKRxCX5h9iFTqnSCEWsb5qzucjCPu8m+SA1FmcQ8ymnFljolmT2PGpR/I4N1E9fnxeHP78zJ0oNk2S9edSU99tuQd/E1BqM/bvSvMk9PZykag1rzUz5mOeGSvLrEwcQYbRMSdnWWpspy428QJZDXJLFi7Op7ltDyXw7dHjII/JuXJItNpU8J88bD6z3QWbk3qACI7+vnx6mW5LFC7LI3k/7I4WTDWore0x4aclPNxX6b/mHbBm03jtrLzRUkptzDpoIAz1LyLLVer9grI1KklsrikX+Z07TI0CvSxfaog5xtUyT2eaSuf1yk2zKPdhbGISWUlVifcl8B9QmiuRuiPixcX5zNsNMuHtNPtXnfqf0mYWa/F5M5NmL7BRToSzsAdXWaapwn4QO9mc0wZkpVz/uilVkSCySfMV7xFdaf8jP8np1A7Cz53snqEtyc+nanqLvPR5QZQNb9qLRSx68sPgZGVLjkbneguGnyE7Im5vufUTWv5VR1Wzrde9gQU95BlW+cU8tpVEps53idxx5TkHDLmOSPOEcxq0oewx/r/wpAO13/2cumhz6FPdVH+/kIVCpeF3E9yLLBVR9/rp4JV80TUY9J6CtPCPXP+IOXnUA0Fy6pqfIzuuh7hSRCWGRKNJVt82kIwDg9Y31X4uEOyupClflgh1xubLE23R9XS+RnecDaoih8chcH4Ew5zoRMDfn1pqM/x0PPk1lAnhzbL6nwP6MeleLJV5ckq3mXSUbs+3/xk30EIzKJceTuK3izgXCcj2Dopyc64sWE/1sRDxjZxmVnRRqNleVALc1vmrBipzqCjYAc3dPuAXfb7JzxPDeHgMsQxb+r/gO9ahTQbPkIHd6cZKaT8q32VfJQHFJNt9/mCqz/ybvs+QH+pMZTMf8cNcQ3ZLMmkctZRtNRMLN1CBRa22YncgwSaYi5cijZ9fXW4qGu5U1tP+b+CNqMfrkFarZS3n+dN+GSvL784fNhNIVx569ZtY/lN24JMfG0QIGnga5oiZ/lJKVBy7Jk/dTuQbAdVkoYptxWiMoVkmOiSErJQCA0msqaupxm4gZF4PkDFXRq9ox0VBJvp8kQ4QHDquyAvOrseK69U1TbW2D8kmD8kn5limoua9adcAmyYRtbH65SWJhjs7IUZFpkC1GTbaUEp1ZQ8SPjXOlPFp90BvU3i7PvfKUkJniiGBkbMZRLKXEpzZiFYqsK6LrQyqrdXx3xSoyOBZJfnGvMF/7r1hJNVgYxmhJ8r2/p/JFKw+TRRCTyO0SDUmeGatKHtZb7ZlynLi98pwLX7T4oKpsgFplfm7lfTVJZkTOOMQkeeoFrMl4PW88P+kQ1rOu8h0oGh9APh1PkxL688PD7+J+sFrDe/VfVETvb2/pIxqxrKjyta5+zt2CqXyR21FV4tVSRNrAIlEMCzkOX2ckD+T7+13RFTsAnK4s8WIJRN1zVAEqo2SCnslHifJsCOfWlobahsdK7JO3WSowO3xWLQEs8eJCMj1a1XYrRf0FJum5hF9uq7hzQRVCx5d3EX7bWhqevKy5r8wLSbLle04NU+/3s7lSAlwZGtkPKzNv1SS5+c72ASJBP9n/4m9euHDnr6CUsb1F386/pqo38ah15yB3enGSrE8KwCVZ1cQEoDR3HN/T/bQqx/GYWSWZNY8eKGbyRcsy1J9fgwauCcoAcEgyAE/Tk7/lB/4hOjCMv8fzoioWyvOn+zZUksG7mrAlkq9svEy+3y103Tvf89TeSw10QogZX7lKc+sjFqLI79RMCTHHma4a92u4W555skqpkW2skpzACFlt9rQiIQoRphyl7QDYEi0D55K1BFV9eVfLs3S/GCtbcpKbmDPWEGytEKhs5PbLSfJSUADieOwcFRIArxPdUMTtEtHFMkT8ZrJw1mKligMAcCkogDkvTk7tU/Gq3ap10hWryMBYJFkrKvYLWpKs9UByr7h+FB4l4MsziLm9O2ed1cWPPV5NF72SDBqKV/UWjd39uB2AO9IQgfnBU6omZevNUNlQrAvlZT0y/Oe5GZK4u6oBNe4UkYawSJSmmTrPGzN/RQXC06UazyV5L7crS7yXTozi++xglOdnCXsFxOABAEAP53eVh45MH+ipNndLb2PjTi8uJMxNbuW7gwX8gycJX9xWAc5cIELQygvSnI59NR+d5ykYnXdLty91V0qSQWPD9Su1z1rUeslvjqUO4Es2nqKmoUD7Q1mMJX+PtJQZNFsOcqZXi6Tak0JI8oyL1NQaAA1P8jJKLldrlCFWSWbNI62ygT2/xpNkAF4cmu0j4Its3O+oLUBhAvskxwZLMjbq3lheVJaa9rfY//CiBdJeQunvCnI8qqOSrDupHZfke/tkiDDlCDUqBkC1p8FzyVqCypTk9ptxkb2E0unBRVmKivzCivzCi8u1+tBaIRDJMsAvO0njSjKTs15JRsYdkGEpZXzKVK0uZlAaxx2VZA3v2CmLJHPPJauF8/lIMmjJXeUjGJ59ta0meJRo6MZyqo9MpKe1vvz+yZTCKL/jWxdEfYeIvnMvJzvnWjKg1sggabBIoxorlpO6ooUmonH+qrEutfu4XQFLvNzip1XtMmNsLzszCRENdzmRklX+d/6dv/Pv7Fu6SzXOQd7KEq+WkHREkgEA7LlAxKuVF0zLDT++JQ5U9d21vKm50pJM38a4clsSJEBSs1R9EwDun5vGFy1Ko0UaAK4cZE+vFkk9kkybp3bQcUnGx4RWHVGNCRV7GDiXTEXMnUfND3eN8uiHeAz66eJDjfYDFcCn+e6IJDMtbKuRzEL7eNwipvENGbhm9t6YIamOOy7JL7OSEWFEMD3j+fLar6MM7SXjcs42cF0fuQhFll6gp84BeOQxRXNYm0WSDfKrSrU6SSxM9oHrusx92Mp21XsO1ZsgWqMRqlgAIAauD6pahO3K0htHFbXE2AU2cG1/5GynymZXrCItZJHkrswl4490VwaumdVZu/JB1tHyctU4D5Os2rH+XjIALWePjORLveJyfuBL/jxPLSlTC4Y4ab8lDhaYpucQt+BD8R9u4LouPq4fPyyM3jWgbg+3K2CTZKxa1DNwzca5OkIm4EfHM57BayKpcSSZ2yr1hAOgnguEK3d1rxkCef469/TiOdm5qtkSUOIpFZhm5OHu3K5A94rrqOgHmOe7AaEC/v5M5vpt3EKmpOnLQdpo9fTikqxn4JrZS6aDUTvouCS/vLqcL3IKorvfTRm/eBivl/yu1Du0X++Y6EMnHPg+C5IbOlXxqaXQaCeGSnL10YP2vx5jvD7gWfBc1HT7DaJdhkuyeMlJqkjgy7tGhlWTZnJKhSopHZdkoLzobIsOWJmTVVZ3t/xO1DbZkPFaktzyJGFH3MQ1Wafo3MWjbD6dpra8q7LAUUiLbuO+31Dk1/w71Jxuy/2C8SpX0mRc5JIzGe1Q3EGPX26STXmHeguDPEuoxiG+vGtUFLmcDVzJGiCUrMghRzpbKwvGCtEfU6hnnJMzsbxrNWN5l9dPaC9qcqHhxAFTYZComGpntyijRSnuR9WRsZDsilUkSmwjnK+7gsJNXgVdmUvGF0MxlnfVRTiIVBU6XtFYLSymWjf48i7rk9eImIllR26q5V2laJAAUa/yQMt1WersSQk7j2kt7+KcS8ZiaH0gHib6tr9YMOT4P0xFflS01i7sz2xVt7kyKEJgQvV+8AVrdl4PybLRWhfhyEgRyQzbdjJwYzkzVIomtsFOp834DQ37pniQC9MYHqhDbldsjYfueJuur+8lsvNQX95lk0Ou7OTk/G9ivIAfFlJO1ZYtteHjDE6vVt9OrZfMbRV3LhBE8Fnw5YyZTgoU8c3CWfHXcL7vcnqV4PvacEeRYOxZYl0B4HbVuS/ZIiMPf2LfnTv2Hd/71/jnVL63XNkZJOgZw2jQsOcgd3qJJ2VRidqTQi+E1B64VgdBnXVcksHzfVM8Bd/ESrOq71Y8Pht5YKqVuGOSzJ5HLSW5UxCPSf6PW0AztvraQp7BMjZE2f8Rvw2V5Pc380aNQoes+CsI3wQl3h4pEIrnHSe7Dbgkx7isl60IV8TIc91cJcioyOB7VA3LKRV110vJVzhhm6C8pwXgr3PKLDp9DytsWkPianPJALy7lZnyHT7jiwglU2IvbNWeSy7OHoRvI56WSkkXwbexfL0TajolYWvchZiErNmL4ib9SEsyeJSR2FfoY+OeHZ5aGB6R4TQvfto0lSsRwLurJ4YKfez/zI8mNkHl1xJ1KbdfbpLg3WPJHC+TibHYJij56aU/Y5ug0ql1waDtWdRSH8Qh0i0K37jl7I04pZ+i+26cnEGLUjzHG3HANkHFHsjftBLbBLX9MlX9N1ftnOmFjI9eL1PEJee5L5YituG7blAtAyLBbCS7YhURcvNddyfU3DUjNJ3M/XOaCw2I+9j/aw1cg7f5a/FNUFvOxEefRWfJZjkx+lh4RTNlYtyPy07FRJ/3X4lvggp8QtVo70v9Qr/h+2CboGKwTVA2iIfdH3dVIwyYHbo3uhjSSwagHXvvP180xush9YzgKXtfHWDjIbCK3RmIbYLa65c6qa/IyvUKtc4f39aFbYLKJ1I0dxpjWxeJpuXcxt0Cs/DfQy7iL/O6nHLuOaVprDZjXivPT+eLZsSo1kOR4RFf3K7YPWzxtt4Qh/brKZmJbYI6t2txiBXfdwm+5g0PmJPzw0vzvhYNEMp9wi4khJ3+fWLEnKnam75Y4uWWZMBplZ5cwA1/V+k1WGRplxYiIzZBlalPP+guG6DtWYKzl6BP4DJRQbwsb8fU3f34kpWHqeeX25V4e1dPscu6vFjq7V0/BtWQbei2hoy5EkHPXT9txFwli0Kt+J7j0Sqqj8SZv9zpxUlOn7ZvKvNJUW0XJPclq7fdiUIDgGqbIrYJ6pupWWSZPF2L9WP05BF4e/OS2wh8JQFfNGRyXvwW/45JMlsetdSEjfUU2JwoIuq+umI3C9G3i0t0J4FKysf7NlSSAXh3/0zO4gXBA+28EFvJ0Fnx7slVT6mHHRfOfftvl3uuDRvogL1IRHyOMQ3JKRVXQgO1FxZ9ZeNFDHTrk2SM1JuGf0tLqkqUzW348HI/MdnqJCm+uieau9vCOSmebiJQeF9VXNm8KszKQTx0Xqqs9K7aO67bXhfKM5xnSM3td9usOCy/XSWeoSnJADRdlh8cN1ncC5d8ZG0RWaHp8ctFEpuyr6kI2BEzYqxPbzvsVSHym2rd8LaG6njfRHtniWBiiNPmnCzGrn3AyRl7/QX+qpBxLrsFjv5jdLwq5G7QztiR43zMxgbY/XYkuuilmlwAANhJdsUqIjeelyrcFgb2o9bT/XZGM3Iq01i+a8PHiARLSqkWBn7Xq5qDv2Mv1hg8OGJ11IPzzBdrENVB4qOcndirJLCXcmi9KqQ06a+FY/dY9/W1Ga37VSH5W0KHme3+OVy1AIvcBKW3lwxAY/r+b7C9ItQTRKXq7b0b0oVR9pbe/fieQwYHz9mguEw/ZVgO1KQRrwoZErU2+lEh8+UnVAjg+YO4lVFjBNSqqFU3GDuaGnXajClyULigZ1wSS1+B25WMmS3edw0F/mkzrH0H9PIeMTrhzyQlvSsZ89jWyM65/WnhOfcpgSPMvK2/i92SpLzsF6ga5+BOr77qHnBapScX8KgbLp1bN1ZqheB70/kJKWqNGVbO7Q3KQ3/smzpCbCWQ/uCcFpL7nFliuV3B2+e5khQXa98BvX2+GxO/fe8DZmsLvH2eJ02bNVJi1cdHOCZhe2wV8w3Y3DnIlV6c5Hy5Ms8jcbyl9pPCKcnaL/Mhdn8RA9168wir2xurSqqKip+/bAPYtIXgCLFS8M1zchE+sRSf/l/3kmpUs+ZRW0VQlCVf+kcBDb5dmZhgxZesPa5qwNCF6xMcGC7JXMbhwpm4X61Uct3/odxelcyzRcfGd5f2zodKJgxXk0B7leJnE5HDbmqAX9O9u53ja1/t8jrwGye6UqBreZeu+/RfexI6WtRv9mWWB4fbVX/o8I5PTaALOYgLZzd49WzzYVdPgeNZYqkDNhal4x1qqq2Gnxp4F+I3oiQztyp1waKOen364CDx8q+0gk1Lpcjo6AjiHVsdDQfe/7kRIF/Tfykh8K/5Qz0F/ZMOMZYCdevE1F1egIimhBE72zpvqdEkuSRnLN9zURpLL4HbtfPmQ58fi0BXclCrL/uxjMbeH1uUhr/8K6kw3D16OB+dFk7u4f73ZgWxCF/jf1GlavfNR7TTqFF9/pKMLdbFdg+b2EltFh8KudTAGKczKioYWDcjQPyYHd/jG3PplHknMm9TS9O6mZna5jyJibHgy+Kol9tp32DgFaNJsoHxwdu+QAKfUpKxHW54b9h7hFC2PvhuzZdQtxtHkr/AkgqTDAlAApAAJAAJGJcAlGTj8oShQQKQACQACUACnSQAJbmT4KA3SAASgAQgAUjAuASgJBuXJwwNEoAEIAFIABLoJAEoyZ0EB71BApAAJAAJQALGJQAl2bg8YWiQACQACUACkEAnCUBJ7iQ46A0SgAQgAUgAEjAuASjJxuUJQ4MEIAFIABKABDpJAEpyJ8FBb5AAJAAJQAKQgHEJQEk2Lk8YGiQACUACkAAk0EkCUJI7CQ56gwQgAUgAEoAEjEugG0ny2xcv65o6+JN8xoUBQ4MEIAFIABKABD4dgW4jyZXnx9miJk7HCj7/n/L4dLkJY4YEIAFIABL4jAl0G0l+fHX+FD/L+WeufbIf+1B6T0XNvDvwE7ZPrxWFJJRVwI79Z1z+Pz/Tn1amBJ89eaf987McWgwJQAJ6CXQbSdZr6Qe/ocOSfDsuAhEezGr94JbBCCABmsCtM0580dos2BCkicADSOA/RABKMp2ZUJJpFPCg+xKAktx98wZaBgl0mYDhktyu/KfAbUmIlb0XMlpi7bofPV3XTEX/JD0BESbIyyvEG8MHOUqsXeW+BfWqX5R/XjRTiM48VJ0TKredIO7vHOEafKOKnjO+mTtCiH5l4/WVjRci9N1cSAWKfxMhJ90q91wbOsBh14i5B6SKhneMWxori7etDh/iKB46Ly269J73VNTCr4LhznX4quLKplVhVo4S60XpCTcrfV3UBq4bK8vE22JsnMTm4wLt3Q7HXntF9ofL82wogwmzSePn5NMRs/rFzOEiCQBoqSn33xEzcpxvH3vpmDXHksqa6DQ8TI5FhPJDr+kLtdJZKLKzjDzn5gxA2wulXCofP10qcAz4fnl66IV6OhMAAO/r7oeK4oTjfc0c/R3WHd9/s8nAwVE9VulLL1e8nCkyoGyw5CAoX2eLrtp3dflMycB5x/OePI5Ys6f/xKj1J/6lhzy4rKLx6zx4nTJDJJhxsSTn5MJREisLqdOcE1mVjCLbUp8vTZsx3G+gqffI0Qk79lU3MINhdX0c+B3xc+4e/9eT8eGHht5h+ofHkAAk8DkTMFiSqy86j0EtF2YGpF6Wpys8NwSZCvfsKCJlF68cZS7rZMvCzsfIc1e5ShCbiD13qcE1vGKdsEI+6Y+cyBSF359RFkIvh+gasvqrr87MLJJnFsnDk/rrlmSZy1rZkpDzsqRsVxcfxFYWep8KufneZmcU+SFmY7QiOiHrp0WxTs4GS3LjnQ1OqOnkhC1xuN/FidOnMyS54ZabE2o++wCaWDkpVWMAACAASURBVLg3OW/DIikyJkZWicdb/+hgamFcaqHvBn9EGOWegh1jn2yqcuXwCwDgJAlalL6zvUwmxLhHK2KSTi2Z7Yc4ytPqyCKmR/y4ObcoJXO8EfvwZSHnYpLzN63w72UTtO0S1axqfuDxk1fvHxO3xSli5bmr5+9C7GLJ9Oor33qs4k4vd7ycKSJLHVvZ4MoFTJKtl/0llZ+cORG1mZuyYa9i29JdiGP6qTd4ajmtaml4otT+e9pIFkpckn+IXeiUKo1QxPqmOZuLLOzzbpKl/X2pT4hFT8mMDXlx0X9LFoVY8X0Wpr6gEHO4Nl5Nu5AYeyHRJ0nIFzlvUGDH2Ke4WE3SqZDgNyQACXyOBAyV5NcnDiDCaJmSSmNrbaYsN/ICWRvglaN4cTbVfWsomW+HDg95RN6NV6wWm0qek+eNB9b7IDNyb1CBkd/XTw/TLcniBVmviHvaHymcbFBb2WPitCU/3VTov+UfsmXQeu+svdBQSW7OOWgiDPQsIZeTtd4vGGujkuTWimKR/5nTTygTX5cutEUd4mqpc+ybbS6Z2y83yabcg72FQWgp1auqL5nvgNpEkdz1iB8n5zdnM8yEu9fkU33ud0qfWajJ78VEnr3ITjEVysIeUG2dpgr3Sehg/0pmetmOua3iTq+eeDlTRJQ6trLBmQuYJE+UPwMAFIUEIm6XngLQfukvC2Fk2AMsldxWXfEe8ZXWH/KzvJ4AhEuy+f7DVGn/N3mfJT/Q/zru2nR9XS+RnecDanii8chcH4Ewh3AE3K5E8HDgmuAA/0MC/0kChkry+/OHzYTSFceevaYqbSYOvHKMjaMFDDwNckVN/iglpRKvWCfvp+ooAK7LQhHbjNMaQbFKckxMDR2b0msqaupxmzjHxSA5g1IZAKp2TDRUku8nyRDhgcNErwgLDvOrseK69U1TbW2D8kmD8kn5limoua/aGCGbJBO2sfnlJomFOTojR0WmQbYYNdlSSnRmucUPcHKulEerD3qD2tvluVeeEpJcHBGMjM04iqWU+NRGrEKRdUWG9MC4reJOr554OVOElzrWssGZC5gkT0vFEndDFoZsuPISAFCSbSUM23MX88dt1Yt7hfnaf8VKshmFS/Kk8w8JAwAApbnj+J7up/FpAExQUfcc1ZSAMkom6Jl8lMhfblciQCjJNFh4AAn89wgYKsngXU3YEslXNl4m3+8Wuu6d73lq76UGerYYrxwT5CrNrY9YiCK/FzcSwPCKdWY6Vu8Rfw13yzNPVilVFRN+mVWSmSGrzZ5WJEQhwpSjtB0AW6Jl4FyylqCqL+9qeZbuF2NlS05yE7PFGoKtFQKVPG6/nCQvBQUgjsfOUSEB8DrRDSW6cQAAbvEjJJmNsxYrVRwAgEtBAcx5cXJ2HO8+qt2n60SPVfrSyxUvZ8nRKnVqZQNw5YIeSe4KDUDOJVOTDQA0PMnLKLlcjZf2SydG8X12MPL3WcJeAX+v/CkOltuVYA8lWVcZhNcggf8IAYMlGQDwrrG8qCw17W+x/+FFC6S9hNLfFeT4m1blqEeSdcPruCTf2ydDhClHqFFAAKo9DZ5L1hJUpiS334yL7CWUTg8uylJU5BdW5BdeXK7Vh9YKgUiWAX7ZSRpXkpmc9UoyMu6ADEsp41OmanUxg9I41iPJnCUHSy9HvFqSzIxaq9QxJZk7F/RLModVhswlz7iokmSmzdyiy+1KhAMlmckTHkMC/zECHZFkZtLbaiSz0D4et4hFK3jlqGfgmtl7Y4akOu64JL/MSkaEEcH0jOfLa7+OMrSXjMs528B1feQiFFl6gZ46B+CRxxTNYW0WSTbIryrV6iSxMNkHrusy92Er2/+lfas3QTgFjBi4PkhOyuMLv0tvHFXUEmMX2FCt/ZGzGuMWdDycB3qs0vCrnl498XKmiFOSuXNBjyRzW2XIXDKbJHMPTXO7EiChJGsUKHgKCfyXCBgqydVHD9r/eiybHIkGADwLnouabr9BjBnjlaN4yUnKGV/eNTKsmiTFWbGqaHZckoHyorMtOmBlTlZZ3d3yO1HbZEPGa0lyy5OEHXET12SdUu+3NJ9OU1veVVngKKRFt3Hfbyjya/4dak635X7BeJUraTIucsmZ1JplKiF6/HKTbMo71FsY5FmitrxrVBS5nA1cyRoglKzIISfPWysLxgrRH1OoCV9OzsTyrtWM5V1eP6G9qMmFhhMHTIVBomJqDqBFGS1KcT+qjoyFJLdV3OnVEy9nijglmTsX9Egyt1WGzCWzSXLT9fW9RHYe6su7bHLIlY7crkQBqzznwhctz6Ayiip18BsSgAT+CwQMleT3N/NGjUKHrPgrCN8EJd4eKRCK5x0np4fxyjHGZb1sRbgiRp7r5ipBRkUG36MEjbNirbteiu2AIjdBeU8LwI8zi07fw2odzmoXGxK9lZnyHT7jiwglU2IvbNWeSy7OHoRvIyaW86gyrbF8vRNqOiVha9yFmISs2YviJv1ISzJ4lJHYV+hj454dnloYHpHhNC9+2jSVKxHIu6snhgp97P/MjyY2QeXXEmvFuP1ykwTvHkvmeJlMjMU2QclPL/0Z2wSVji0Nxv/ankUt9UEcIt2i8I1bzt6IU/opeo6ekzNoUYrneCMO2Cao2AP5m1Zim6C2X6aWtzVX7ZzphYyPXi9TxCXnuS+WIrbhu25QLQMidjaSnFbpSS93vJwp4i4bnLmgR5IBt1VkZrB8ac0lq93XekMc2q+nZCa2CercrsUhVnzfJYfoHOR2xQN6V+k1WGRplxYiIzZBlZVTWagWDzyBBCCBz5GAoZIMwLv7Z3IWLwgeaOeF2EqGzop3T656So1z4pXjvv23yz3Xhg10wF4kIj7HmIbkrFivhAZqL/D5ysaLGOjmrnYJ4m8a/i0tqSpRNrfhw8v9xPiqWTo3Xt0Tzd1t4ZwUTzcRKKdXFVc2rwqzchAPnZcqK72r9o7rtteF8gznGVJz+902Kw7Lb1eJZ2hKMgBNl+UHx00W98IlH1lbRG6D0eOXiyTWyqipCNgRM2KsT2877FUh8ptq3fC2hup430R7Z4lgYojT5pysR4zuEidnQL0qZJzLboGj/xgdrwq5G7QzduQ4H7OxAXa/HYkuekk1qWherCS5rOIsOfgrStjj5UyRnrLBlQv6JBl7cQq7VRQP3d/ckgzAu4YC/7QZ1r4DenmPGJ3wZ5KS3pWMhcftisfYcOncurFSKwR/cwg/IYUsdbqtgVchAUjgcyJguCRzpQqvHBP3f/K64VXJPFt0bLz6cCuX4dANEoAEIAFIABLoLgSMKMnMrUofMXlPHxwkxr3TCjYtlSKjoyOId2x9RBNgVJAAJAAJQAKQQNcJfP6SfCXLEh83NrGT2iw+FHKp4ZP9umPXcwOGAAlAApAAJPAFEzCOJH/BAGHSIQFIABKABCAB4xCAkmwcjjAUSAASgAQgAUigiwSgJHcRIPQOCUACkAAkAAkYhwCUZONwhKFAApAAJAAJQAJdJAAluYsAoXdIABKABCABSMA4BKAkG4cjDAUSgAQgAUgAEugiASjJXQQIvUMCkAAkAAlAAsYhACXZOBxhKJAAJAAJQAKQQBcJQEnuIkDoHRKABCABSAASMA4BKMnG4QhDgQQgAUgAEoAEukgASnIXAULvkAAkAAlAApCAcQh0I0l+++JlXZPm7wEaJ5UwFEgAEoAEIAFIoNsT6DaSXHl+nC1q4nSs4G23ZwYNhAQgAUgAEoAEPgCBbiPJj6/On+JnOf/MtU/2Q05K76momXe54ZCfXisKSSirgB17w5F9rnd2tGy8V972Ge8j6Onxf7MvP9NIdMvzvF2pLtZ+A80kjj/IvQ7WvGyn7nigmNnT4/80PstKtVupby5lOfI9p0XUtVJeAbizo48Ii5H+8EX9N2gV59baCEcPC8cztxk+VWHAI0gAEvi0BLqNJH9aDFjsHa12we24CER4MAvWbZ8+7z60BR0qGy+Kzi2y8hB8EzphsEigKclvC7cECJDds93z4mQFXj8HWPLRqaFPyHboq5rT8ssp1Gff9pghfI/RnlWardT3TyLGegpGnbzawkw3Jsl2ywto7ynyy2mKBuYdAIDn6fuH8HdvO6vmU+MeeAoJQAKfjACUZBp9h6pdzBeUZJrdf/2gA2WjrmiRqWjwD3+dfFgvn6olycoLP/M9fgypI1W2vSFlppfA4vBZTdUFbcrrG4d5WP9ysUJTPduVe/cO4ku3nHmjTh2T5OnR9eoX1c/ePvAdIRr0c9ET9cvwDBKABLoLAcMluV35T4HbkhArey9ktMTadT96uq6ZSsWT9AREmCAvrxBvDB/kKLF2lfsW1KuqkudFM4XozEPVOaFy2wni/s4RrsE3qujRuJu5I4ToVzZeX9l4IULfzYVUoPg3EXLSrXLPtaEDHHaNmHtAqmh4x7ilsbJ42+rwIY7iofPSokvveU9FLfwqGO5ch68qrmxaFWblKLFelJ5ws9LXRW3gurGyTLwtxsZJbD4u0N7tcOy1V2R/uDzPhjKYMJs0fk4+HTGrX8wcLpIAgJaacv8dMSPH+faxl45ZcyyprIlOw8PkWEQoP/SavlArnYUiO8vIc27OALS9UMql8vHTpQLHgO+Xp4deqKczAQDwvu5+qChOON7XzNHfYd3x/Teb6AFVOj6dB3pyH4Au0GBl9eJ4MjIx6xJmUGPSahQZf/wCdtx+ytN3cEAlYScHSaCPFXfZ0MmBuPjgn80bi+9hj8ZLHZJcVLBgasr+uyr/j8KjBPzYRA2RrL/n/T1qNTmvuFF1J3n0tOS3fqIhC4rrNF0wSZ4me655mXGujIm17BkaWAanWhhQ4CEk0K0IGCzJ1Redx6CWCzMDUi/L0xWeG4JMhXt2FJGyi1fKMpd1smVh52PkuatcJYhNxJ671KOPV38TVsgn/ZETmaLw+zPKQujlEF1DKlx9dWZmkTyzSB6e1F+3JMtc1sqWhJyXJWW7uvggtrLQ+1TIzfc2O6PIDzEboxXRCVk/LYp1cjZYkhvvbHBCTScnbInD/S5OnD6dIckNt9ycUPPZB9DEwr3JeRsWSZExMbJKPN76RwdTC+NSC303+CPCKPcU7Bj7ZFeTw4QcfgEAnCRBi9J3tpfJhBj3aEVM0qkls/0QR3kaVf0aIsmsnFuUkjneiH34spBzMcn5m1b497IJ2naJalY1P/D4yav3j4nb4hSx8tzV83chdrFkevUVWD253xUaHKxKTw0VytMxyXrwp5N00MT4fdikbUP0UnRWxivMZE6ShCSzsuIsGy0NT5Taf08biULZ2kbNZOiSZC2WpWiAwOTAMSobMPd3tXudfQT99h2ookJS+XpzboNU0DsmvlK7uYRJspO46rGyoaauuUXb/eXtzQNEIzeWv25v13ZUxQCPIAFI4BMSMFSSX584gAijZUrK1NbaTFlu5AVSg/BKWbw4m+q+NZTMt0OHhzwi78Yl2WJTCdWCbzyw3geZkXuDCoz8vn56mG5JFi/IwitZANofKZxsUFvZY8JLS366qdB/yz9ky6D13ll7oaGS3Jxz0EQY6FlCDhm23i8Ya6OS5NaKYpH/mdN05+V16UJb1CGulmky28A1t19ukk25B3sLg9BSaiCgvmS+A2oTRXI3RJLZOL85m2Em3L0mn+pzv1P6zEJNfi8m8uxFdoqpUBb2gGrrNFW4T0IH+5PdTWaqtY+5c78rNLhYNRTNEoYG3AWgoWjWuNRla3ftKAIAVP4xgTgA3CQJSWZjxV02rniP+ErrD/lZrjlmbIAkv7qzfbBo0KIStSnf+qLFxBItRDxjZ9lD1WgTaCk6OZ7vMVGqxK89DvxOJFhzi8oQTJLJ5V18Ub++AfM8b1Sqxrbb7+4Jt+D7TXaOGN7bY4BlyML/Fd+higIVAvyGBCCBT03AUEl+f/6wmVC64tiz11SlzbQcr5Rj42gBA0+DXFGTP0rJ2gSX5Mn7KUUG4LosFLHNOK0RFKskx8TU0LEpvaaiph63iXNcopIzVFVL1Y6Jhkry/SQZIjxwWFVpYX41Vly3vmmqrW1QPmlQPinfMgU1971D26F3LpnNLzdJTOZHZ+SoyDTIFqMmW0qJXpQhkszGuVIerT7oDWpvl+deeUpIcnFEMDI24yiWUuJTG7EKRdYVqWkFM/GMYz25j9/ZORqcrCr/+MF7XUEbKM62WnYhdfeumekvwcurvwj3Jj7FouQmSUgyGyvusvHiXmG+9l+xkmpGUWj0SvLrvNUBFn1k0RqL9ttaGp68rLmvzAtJsuV7Tg2jllW31sl+8BRYH1OQo9kaktx45+87f+djn4KTpfFbZdZ8jwm7CPEGoPnO9gEiQT/Z/+JvXrhw56+glLG9Rd/Ov6Z6riij4TckAAl8SgKGSjJ4VxO2RPKVjZfJ97uFrnvne57ae6mBbr/jlXKCXKW59RELUeR3aiaMmLdLf0kntOFueebJKqXG+BmrJDNDVps9rUiIQoQpR2k78FXTBs4la/Vx1ZfwtDxL94uxsiUnuYnZYg3B1gqBSh+3X06Sl4ICEMdj56iQAHid6IYibpdwlQGGSDKmTNQfk7MWK+om/PtSUABzXpycHafiVbtV60RP7neBBmepexm3Av0xpeHZ4aR+vhXVqXEDpffBrbyRjsfOUyniIEnOJbOw0spZ9bKhRUD3BW5JbindLbPiS3873KBqf2mG03x0nqdgdB7REX6RkWzFF685Tk8va0iyhuemrEU+Aqusy/jlN8dSB/AlG0/R4+PtD2Uxlvw90lINX/AUEoAEPikBgyUZm+NqLC8qS037W+x/eNECaS+h9HcFuTxIT6WsJcm6k9xxSb63T4YIU46oFilVexo8l8xZ7bbfjIvsJZRODy7KUlTkF1bkF15crtWH1gqBSJYBftlJGleSmZz1SjIy7oAMSynjU6ZqdTGD0jjmzP0u0cAiYmd1xlcySFr5T6C/84H6tgtH+7pdUuYeNFl6gRjl5yapLcnMRGnlrJokc88lq8LhkOTWyn1JI/i+v0Q+pkVS5Y9xdEscKDBJz8Wv4AvB4uPKnz96QHzKUWvmwDXDG36ojJQJ+PIMXMFvS4IESGqWqu0KwP1z0/iiRWnc8WuGCc8hAUjgwxLoiCQzLWmrkcxC+3jcIhag4JWynoFrZu+NGZLquOOS/DIrGRFGBNMzni+v/TrK0IFrXM7ZBq7rIxehCFW54xY+8piiOaytVXETSTHIryrV6iSxMNkHrusy92Er2/+lfas3QTibPsTA9UFyUh5f+F1646iiluhTYwPX9kfOaoxb0PFwHnDmfpdoaEarzurB/hhkoyJyrd+mC+2gWvHDD8f3JUQJfO8QieAmyS3JnGUDdHUuub0uK92up5ezT+UL9QS+zj29eE52LmOyoMRTKjDNyMNvwySZfg0IfUDNJbcXKdYuOnbkoSrEh2FRAn5SOp7hdwNCBfz9mXQHGwBw64wTX7TqiOZou8o/PIIEIIGPT8BQSa4+etD+12PZqmf6WfBc1HT7DaLdjVfK4iUnKWd8edfIsGoyPZxSoUpzxyUZKC8626IDVuZkldXdLb8TtU02ZLyWJLc8SdgRN3FN1ilq3TIRY/PpNLXlXZUFjkJadBv3/YYiv+bfocYUW+4XjFe5kibjIpecqdnP0OOXm2RT3qHewiDPEqqmxJd3jYoil7OBK1kDhJIVOeTkeWtlwVghNnhrCGdieddqxvIur5/QXtTkQsOJA6bCIFEx1Y9qUUaLUtyPqiNjIcmZ+12iwc3q/bnMPrP3zZ6Krzpsvb16dOKiTRJ6elgPSc4yyVk2QNfmkl9eyHbu7enofrtOu/2j+Gs433d5BrVK8n1tuKNIMPYssWeq+X5l7slbjI9inRWjl3z7zCS+50/Rz8ki295wYAYqGJyFrXkD4N25Y9/xvX+Nf06t4W65sjNI0DMmnl6vSRYh+AUJQAKflIChkvz+Zt6oUeiQFX8F4ZugxNsjBULxvOPktCVeKce4rJetCFfEyHPdXCXIqMjge5SgcVZ/dddLsR1Q5CYo72kB+HFm0el7mDzgIbPOJQPw7lZmynf4jC8ilEyJvbBVe19ycfYgfBvxtFRKugjijeXrnVDTKQlb4y7EJGTNXhQ36UdaksGjjMS+Qh8b9+zw1MLwiAynefHTpqlciQDeXT0xVOhj/2d+NLEJKr+WWCvG7ZebJHj3WDLHy2RiLLYJSn566c/YJqh0+p2Mbc+ilvogDpFuUfjGLWdvxCn9FD13zMkZtCjFc7wRB2wTVOyB/E0rsU1Q2y9Ty9uaq3bO9ELGR6+XKeKS89wXSxHb8F03qJYBkWAWkty53xUaelhV/e3gIOnnkJmHFbSngb/ushzv466gSh03SW5WnGWD+4F9qcyKvZCIfc6sGSkSjEqNwE8zr+Dt1SfXVliIBJYJkgTVW7pS5FcuEW2utmcJzl6CPoHLRAXxsrwdU3f340tWHqbzVyNijbnk138tFAt6Seduy98rO4vODrDke8+Oe0rSaGvImCsR9Nz108a8WFmBZFGoFd9zPFpFtaE1QoankAAk8IkIGCrJALy7fyZn8YLggXZeiK1k6Kx49+Sqp1Q7H6+U9+2/Xe65NmygA/YiEfE5xjQkZ/V3JTRQe2HRVzZexEC3PknGsL1p+Le0pKpE2dwGsOHlfmLGmxgAAK/uiebutnBOiqebCBTrVxVXNq8Ks3IQD52XKiu9q/aO67bXhfIM5xlSc/vdNisOy29XiWdoSjIATZflB8dNFvfCJR9ZW0Rug9Hjl4sk1qOpqQjYETNirE9vO+xVIfKbat3wtobqeN9Ee2eJYGKI0+acrEdUvxZ7WyL+ShbGkiUqoeQ38aqQcS67BY7+Y3S8KuRu0M7YkeN8zMYG2P12JLroJSVuVDAsJPXkfpdocLJqKVthiyILz+Ojte+P/uGNCKMiGEO3XCT1seIqGxQPnd8631PNF40PwPcjXM8bT4850wd8nx3Ugr72BuWhP/ZNHSG2Ekh/cE4LyX1OtZm0I9OQZAAan2b7JE+32T3YfJfjxP2Sw7Vqivv2eZ40bdZIiVUfH+GYhO2xVf9Sj6920PAKJAAJfBoChksyl314pZy4X3NjJpeXD+L2qmSeLTo2Xn249YPEBANVEeguua+yCB5BApAAJPBZEjCiJDOHlz8ii6cPDhLj3mkFm5ZKkdHREcQ7tj6iCV94VFojGV84D5h8SAASgAQ6SeDzl+QrWZb4uLGJndRm8aGQSw1ab/DvJBrozUACUJINBAVvgwQgAUiAm4BxJJk7DugKCUACkAAkAAlAAnoJQEnWiwjeAAlAApAAJAAJfAwCUJI/BmUYByQACUACkAAkoJcAlGS9iOANkAAkAAlAApDAxyAAJfljUIZxQAKQACQACUACeglASdaLCN4ACUACkAAkAAl8DAJQkj8GZRgHJAAJQAKQACSglwCUZL2I4A2QACQACUACkMDHIAAl+WNQhnFAApAAJAAJQAJ6CUBJ1osI3gAJQAKQACQACXwMAlCSPwZlGAckAAlAApAAJKCXQDeS5LcvXtY1af4eoN4EwBv+GwRg7v838hGm4uMQeFtfU9fY2rm4uuK3czF+OF//pbQQlLqNJFeeH2eLmjgdK3j74bIPhtxdCcDc7645A+3qjgTKwxwQXo8B7mfZf02b1eyu+GUN9BM5/JfSQiHsNpL8+Or8KX6W889c+2Q/5KT0noqaeZdTZPR/P71WFJJQVgE79pqoOkwSfPrc10wD23mlPPorGy/igwh3/XmF7UZ4/YsjcD9sPE/1Z7Fd8cEIPExxtepjMXb31Xcdj0K/32J0GM90fQ4R9JN4Fx7PJelpxyPS5wMPmeCFmA2wcVkXdu5JB2t//WnRZ0T3c+82kvzp0XRYSG7HRSDCg1mdHD369An+YBZ0mOQHs8T4Ab8svyknfp87ONEcSrLxAX/GIb68npVE/Imm9+F9SEn+sJA+piQL3SKTkvbFhfm4jRXweli7FzR82LR1/9ChJNN51GEhgZJMs1M/6DBJde+fyRn2Q92wl/yZZNZHNlOx3eI/JcnT5c+MT1Cj//222G8UjzdZ9tD4MX1WIRouye3KfwrcloRY2XshoyXWrvvR03XNVFLJH7EvrxBvDB/kKLF2lfsW1LdQruB50UwhOvNQdU6o3HaCuL9zhGvwjSp6zvhm7gghSo0E+m4upL1hB0TISbfKPdeGDnDYNWLuAamigTla01hZvG11+BBH8dB5adGl97ynohZ+FWpBsJ+8qriyaVWYlaPEelF6ws1KXxe1gevGyjLxthgbJ7H5uEB7t8Ox116R/eHyPBvKYHoM8ysbL2ROPh0xq1/MGC6SAICWmnL/HTEjx/n2sZeOWXMsqayJTsHD5FhEKD/0mr5QK52FIjvLyHNuzgC0vVDKpfLx06UCx4Dvl6eHXqinMwEA8L7ufqgoTjje18zR32Hd8f03m9rpePQdcJHktooj99se/DkZ7bOp5BUj9ip5NCKMi68lL3HZzB0vI0ydh9ysMC/sktyF3NdTNnSaSlw04ElhKc+gfJ0tumrf1eUzJQPnHc978jhizZ7+E6PWn/iXHgDi4sxhE+7UVl+StPVnx+H9v+5rZTtlVXDeQ2apa3mUK10+8VuBqUkfy1Ez3ROv0r2knNU9ectDDiwZad7fcWuesjRs5mBzS/s1hyppq9hj5vTbVowO5yGz5f8y/FcEOfD40/Y9IS61Kc8GrnAaYdmHzzMxH2L/q8fhcrquAwC8vC53n2pjadZ3yIRViaUK5jAvGWRnJZmDVRE6TDUojh/NTXvJSAHXoV6/r8r2u08bhaXoh5V7ixXe1hoD1zPlZWd854z+xsx8qL2r76lHqrodAA6buWwCQEOSAcB65yars8lq52kSNmK+9+ppdLaw/9fmg8f8IjpaSc+dF/sycJi6n2FE1fbP9kE8k/mHmPVGZfgPPN7kOCV5dnnjkwAAIABJREFU2/uac8Fuk4dbmJqaDfp+9lb5tQZVXccdLyOeD3RosCRXX3Qeg1ouzAxIvSxPV3huCDIV7tlRRGYNXh3IXNbJloWdj5HnrnKVIDYRe+5Ss6x45ThhhXzSHzmRKQq/P6MshF4O0TXko1VfnUmMBIYn9RfqlGSZy1rZkpDzsqRsVxcfxFYWep8KufneZmcU+SFmY7QiOiHrp0WxTs4GS3LjnQ1OqOnkhC1xuN/FidOnMyS54ZabE2o++wCaWLg3OW/DIikyJkZWicdb/+hgamFcaqHvBn9EGOWegh1jn+xqsjrh8AsA4CQJWpS+s71MJsS4Rytikk4tme2HOMrT6sjcN0SSWTm3KCVzvBH78GUh52KS8zet8O9lE7TtElXVND/w+Mmr94+J2+IUsfLc1fN3IXaxZHr1Fj1ukp3P/TaFVIp8fzCLshGAl7HLUWSxopowidtm7ni5E8XNivDLJsldyX3ussFpM/kMsj0pXFZhkmy97C+p/OTMiajN3JQNexXblu5CHNNPETUgJ+eWhidK7b+njeQj2lLsNwbh9bFd7Bkqi5K6Ow/k97DeUvCCTEpLsfeoHj36T1y/O1IW6rlwVB+e2eyUGsIRk9UhkzftjhC5fMMb6bBw7Z7wLZMEPLNVJ1XlgY2IHr+3A+x4PX5MICMCANzdY8cQ6crYSb14FuPXSmMSk+IjRL9Y9+QN/uM8Feur079Z8pDB07cERMmCtk2fMmMqY+aVNKhzkszJqq4ogxwVT0pKCloyjMczXJL1+H2dt3YAr+egaZv88RRNnD51uIYkT5j2y9jFXmGycN/l9n15fLvA21S7iNNmtuwhrmtJ8v0gBx5vYQbZYsOlcZzz7AlLvcNlET4rHMx4Pb7ffZ2M+NkVEof3LHOeuiSD1vPbBvBMlx5X9WVqoqfweBMjHxERN136n5CPDJmxJSAqOtx31VgBr7dT1B0qRdzxcifJGK6GSvLrEwcQYbSMamWA1tpMWW7kBVKD8OpAvDib6r41lMy3Q4eHkASIXrLFppLnpMWNB9b7IDNyb2gk4PrpYbolWbwgi2zxtD9SONmgtrLHhNeW/HRTof+Wf8iWQeu9s/ZCQyW5OeegiTDQs4RcUNB6v2CsjUqSWyuKRf5nTpOtZgBely60RR3iqN4ZHj3bwDW3X26STbkHewuD0FJqIKC+ZL4DahNFcjdEktk4vzmbYSbcvSafKqfvlD6zUJPfi4k8e5GdYiqUhT2g2jpNFe6T0MH+lRpZpPOUm2RXcv/dpb8GCMUbz9M0imbZoBOpQTQ9NuOSzEZDZ0Loi9ysyNtYJLkruc9dNmjzdB4QzyDbk8JpFSbJBNWikEDE7dJTANov/WUhjAx7gEXFzfmK94ivtP6Qn+X1uJVvTvxmyuvnlkX1fVtKvGx4PeamEaWu6egyhGftcZnqNj9Ld/2aN9KvBPeKyer4sPsAgCLPoTyXeMyqgs1mPLuQuzoBMC/q8/tQNqEHb2JkFemnPHA01q0ijXx9aD6PNz4KTzt2w/tbGRLf8DzyGWw+vKQHzxqleiOt5YH2PVQCRgbYKUnmZsVMHngQNb4jksztt/nI0h68YaJLVC2qniJcOM0WpFPru56nu/bmfetFLmvsgM1qRmAnhkiy2fxDlGo82/+zCW+E73WNcIpQK01JBu8KNvfjfb3uNF2u5DN6kGUJK8/pC3ryHEPuUhrceGb9QN4AejEeLsn649Uww3inhkry+/OHzYTSFceevaYqbaYNeHUQG0cLGHga5Iqa/FFKZjJeOU7eT7EF4LosFLHNOK0RFKskx8So2rNKr6moqcdtInZcopIzKJUBoGrHREMl+X6SDBEeOEyPhOB+NVZct75pqq1tUD5pUD4p3zIFNfe9w0w1myQT97D55SaJhTk6I0dFpkG2GDXZUko00Q2RZDbOldiQL3PQG9TeLs+98pSoHIsjgpGxGUexlBKf2ohVKLKuiKpKmenWPNZDsgu5D95VuI9DB4rvEu2mhqxkU2FkKFWR6rFZX7xvXrygEosn+dlberknNysy/SyS3JXc5y4bAAAOm/FnkPVJ4bQKk+RpqVhW35CFIRuuYOOhJdlWwrA9uPhxc35xrzBf+69YSTSj8AHDX5gjrLWluTmKu0Spu+U/hmfyG6MeqI6cyOuxMAMv7ZisOsdgQnh9lw3vl2TMqn/+Z8mz8b+lWQK1zvX6rds3syfPjkgfwMzovfgYNdD5/vQ6U943S5Pv6azr7oaM5fEWHqFqewAu/vGNcSSZm5VaGo0qyfdCx/F48zOpUQCNFOHC6YTnA2ECNqLQY8lhom7vgM1qCcBODJFkVbMJgFKJkNfT7ZSqbsRD1CXJoOXMegGv/+/5ZL2RNrcn7/tgalrxms9wnvlvR1RDO7fDpvF4s+VkXYdLsv54tZJjrAuGSjJ4VxO2RPKVjZfJ97uFrnvne57ae6mBVFxqxleu0tz6iIUo8ntxI2EmXjnOTFfNfDTcLc88WaVUjd/j97FKcgIjZLXZ04qEKESYcpS2A2ALiwycS9YSVPVFSS3P0v1irGzJSW5izlhDsLVCoDKF2y8nyUtBAYjjsXNUSAC8TnRDiY4LAMAQSWbjrMVKFQcA4FJQAHNenJzaxztMavfpOtHioE6yC7kPwPtTnhJkUtY/2HPYcnibL/LzGXqbmh6b9cWb7ydmJhlZeJ5eWMLNimTAJsldyH3upwwAwGEzLsmsTwrgskqPJOvhrKtI0Nfu4GORDAGjXbCDf/5nxTNz/1t17Sm+4wbrEAOgV1ZV3rSO9PttSF/Qi/fdruvtANzebcszW5Wlati3XA9xMufxeD1M+w23d3Zd4xlboJo9xfSbt/Q43XzDZ0DpLUOkJZ3qJXOzUkujUSWZO0VawvkA2+o1N42o2ztgs1oCsBOtkHUMXLvEq/p5DTdPZ2QUVmuohk5JBi0n1/TlDfzjIlZvNGYuNuXZSul6Ayt12n/4MAxmFi7J+uPVSo6xLhgsyQCAd43lRWWpaX+L/Q8vWiDtJZT+riDbilrVgR5J1m19xyX53j4ZIkxhPPDVngbPJXMKSfvNuMheQun04KIsRUV+YUV+4cXlE1XD2oT9WiEQlw3wy07SuJLM5MwtM1i84w7IsJQyPmWqVhczKI1jLQ56JFnDO3mqK/cBAE35GebCQN+ydvD29moHdLRMNWCix2YtSdaI999799QSW1pP9xO4WZHh6JbkLuU+FjJ72QAAcNis9QwyG6/cVumXZI6ywT2XzF1lf0JJBo3ZK81433oWtZVJhTzzDbmq4TIsF1qel58/fiA22Hf7+vnjBvB5Azbmkp1obgEjywaUZBIE11dHJVl3WLolGTRlufXhDfW+2g7enFz1Nc9ml2rAGyt1gvmRZ9T/rlaTPTstSdYd7we72hFJZhrRViOZhfbxuEWMx+PVgZ6Ba2bvjRmS6lhXpcxZ0YCXWcmIMCKYnvF8ee3XUYb2knE5Zxu4ro9chCJLL9BT5wA88phioCQb5FeVanWSmLyxD1zXZe5DhAmMpaLqTRBOESIGYw9So3PYwu/SG0cVtcTYBTY4aX/krEYLVGUl1xEnSUCut2eMkegOS1fuY3c2l62ww5S4pfBYf2GQhDFoqcdmThq6baCucrMi79ItyV3KfSp+6lu9bFBXdX9zPincVumRZG7O3HPJ+MDmz6nUci6s1F0+eiTvFlHqMHn7NAPXmOrm/27Js9oRKx7F++b3c6qRNi28bTf8bHgmv50g6jp8mPfDDVyzslIzy6i9ZHwovisD14bZrJYA7ERLknWtuGb0krUCwC+wSDJoPL60N6bELWfczXnfkusTcB/YwHWfDflsdd3nIsnVRw/a/3osmxyJBgA8C56Lmm6/QZRkvDoQLzlJOePLu0aGkQtju1Ipc1Y0ACgvOtuiA1bmZJXV3S2/E7VNNmS8liS3PEnYETdxTdYpat0ykbXNp9PUlndVFjgKadFt3Pcbivyaf4eat2i5XzBe5UqWDbziTmbMwRDX9fjlJtmUd6i3MMizhF7QhC3vGhVFLmcDV7IGCCUrcsgxttbKgrFC9McUasKXU4SIJUurGcu7vH5Ce1GTCw0nDpgKg0TFVM3UoowWpbgfVUfWGZJdlmTwNnOrD7LofEZIIDL11DXGg6THZk4aZBayfHGzIj1h27d83RVUESGvdin3ucsGi7HkZc4nhdsqPZLMzZl7LplY/rNKtbzrmud3PP68g0RN0XRsOcKzFl2iJmbx5V3fiUvxJOkffMZue3c7Pm3WhAT0lEr1DR30br3sMYRnYWHBs9quoJb6YEE+2r90zPe/n1A1Xu8FOvB6LiPnx/DFUNZoEfmEYsu7eFpzydgWHdMNucxQyWxitxlws2L4B6zLu3TTUPOq7RdfsKa2vMuOkSJcOL9ekE5tTMaXdw1Di4hADbKZxSoNSX5b7Ku2L9lAaWSTZPA6Y1Ev3g9h6Z5DeUM9rjLrjUPze/K+3XmRGhRruSZzW7h+PzWwbWC86lCNeGZoL/n9zbxRo9AhK/4KwjdBibdHCoTiecfJ6WG8OohxWS9bEa6Ikee6uUqQUZHB96jairNyrLteSr4OCdsE5T0toIg4PX0PkwfOigZ7Im9lpnyHz/giQsmU2AtbteeSi7MH4duIiQUsKnaN5eudUNMpCVvjLsQkZM1eFDfpR1qSwaOMxL5CHxv37PDUwvCIDKd58dOmqVyJQN5dPTFU6GP/Z340sQkqv5YY/OL2y00SvHssmeNlMjEW2wQlP730Z2wTFP04gLZnUUt9EIdItyh845azN+KUfoqeo+fkDFqU4jneiAO2CSr2QP6mldgmqO2XqfG65qqdM72Q8dHrZYq45Dz3xVLENnzXDaplQCS4UyS5G2TcuU9E23DiQG+bsNE/od8GVlFFCnfhtpmbBhE0239uVoSv5rvuTqi5a0ZoOlliz+GLI7qS+3rKBpu1+HXuJ4XTKj2SDLg5c1oFWop9xyC8r7FNUNEyqfuPg/g9rLf9TRXZllK/Mfwe3zhhm6DC0EW2fXh95xwktzUYJslVPgNEgp4e/zf1AtVsxewxzG97mdiGx+MNRYvUitX7a37f8XkDnTftwTZBRfku+/5r3te/UnuzAL5lCNsEtUcmC9o+c+L0HxlbhkgYTfkbBvD62K8Ojic3Lv1dxdAE3TYDPayYnNl6yWwhc/t9nbtmAK+n1bTNAXiKJkyeMETVyMCF0/6HaY74XiTfFfgmqD3k8KhhNrNYhYeMv70rSfX2rrNU/0J7TpeZCNW2LmwTFOK8g+R86rZqSUDDoflIDxub73iDd+JzyrT/pos7RvJ5FuPXSCJjonatn2jJQ2zFV6h24eciyQC8u38mZ/GC4IF2XoitZOisePfkqqdUMcOrg337b5d7rg0b6IC9SER8jjENyVk5XgkNZK6yoY+JgW7uioaA/Kbh39KSqhJlcxs+vNxPrL5J4tU90dzdFs5J8XQTgcqbVxVXNq8Ks3IQD52XKiu9q/aO67bXhfIM5xlSc/vdNisOy29XiWdoSjIATZflB8dNFvfCJR9ZW0Rs/AB6/HKRxFoZNRUBO2JGjPXpbYe9KkR+k2rN4Wa3NVTH+ybaO0sEE0OcNudkqdad6O+PEq+/GOeyW+DoP0bHq0LuBu2MHTnOx2xsgN1vR6KLXqpVVACAzpHsQu6TGfXi2q+2KCKU/nlF06L3dew2c8ZLFQHWb25WhLfnpQq3hYH9qDWAv53BzetS7uspG6zm6m28clmlT5Kx18iwc+awCXdqqy/et3W2g3W/r/sOGqX1qpB31XnS5ROHmfdCen8zaubv+4rpKtkwWW1W/C/C2ly6YG+tasGVoZIMXh+aj/BG+mJrvNT+3t477rNg3PD+vfk8pO8gm6nrowrpug57DsrIV4VYjVsqu3Ke+WINOpjnlyNXjB/aFyHXEa1krAcDum3GvHKzogMH5XtsebzFWgN0HCFz+8VfFWJj+bXZIMfFkZfPMl9+QvRlE66c+HOmsN/X2ItTtF4VwpW/WLws6cVDJvggXw+wmbZW/R3XnNKo/fITIiDmsixQn/pzTx6PZ6k+CIJZ9P7x2T0rJ30r6GVqbjV6+gaZokZVs3DGq8L4wY4M7SVzG4ALZ+J+UpG47/2Qrq9K5tmiY+PVh1s/ZIQwbEgAEvhcCdQfnGPCGyO92TX71d4I3bWgDPTdXiVz7skbwVixZKBH7NWBXfBreCzwzs4TMKIkMzdgdN6gDvt8+uAg8fKvtIJNS6XI6OgI4h1bHQ4IeoAEIIEviEBd0k98nn3ovS4m+SNJ8qsy/DctEqP3bJ05uCfPYk4yY/GpniR0xa+eoKGzsQl8/pKMLXzFdg+b2EltFh8KudTAHMAyNi4YHiQACfw3CDyOnoK9wYt6xWCnE/WRJPlBlBM2NtsDMbOyn/u/g7eppbSG2N0Vv4aED+8xIgHjSLIRDYJBQQKQACQACUACXyYBKMlfZr7DVEMCkAAkAAl0OwJQkrtdlkCDIAFIABKABL5MAlCSv8x8h6mGBCABSAAS6HYEoCR3uyyBBkECkAAkAAl8mQSgJH+Z+Q5TDQlAApAAJNDtCEBJ7nZZAg2CBCABSAAS+DIJQEn+MvMdphoSgAQgAUig2xGAktztsgQaBAlAApAAJPBlEoCS/GXmO0w1JAAJQAKQQLcjACW522UJNAgSgAQgAUjgyyTQjST57YuXdU2q38j6MvMDphoSAAC8ra+pa2yFKAgCkIaxSgIkaSySHy6cbiPJlefH2aImTscKqF+S/nBphiFDAt2aQHmYA8LrMcD97JtubeZHMg7SMBZoSNJYJD9kON1Gkh9fnT/Fz3L+mWuf7IeclN5TUTPvcsNpP71WFJJQVgE79jgySENvybkfNp78RXvsy2K7gsXHwxRXqz4WY3dffad2A/Fj8klP1S4aeNIVvwZGQd1m7F9GYqFBRUd/GzteOmCDDwzNX5YA8TwiCghiNsDGZV3YuSdGrQ07RbLrVj0tTAoKOn6n4/VkizLPf8Uka4vepn0Hj52HHr7TkV+/YoHc/S93G0n+9Kg6LMm34yIQ4cEsOL6I5x2kobcIv7yO/+RtUlKSaHofDklmCagrstoVvyzmsF3+VNL4qeJVcTBG/grdIpOS9sWF+biNFfB6WLsXNKjC/1hHaiTxktMlq275j+Hxlh7vaOui6Z8/R/J79HfaII2SBf3x01CE139expOPxeDTxQMlmWYPJZlG0ZkDKMkdoKbYbtFJSZ4uf9aBeOhb8Yq1k37pQAw7UKvQDfNilLs+Vby6jO98/rrQoyBvi/1G8XiTZQ91RfBBr6mR1GjMdcKqzknym6xVvXhDtiuaiaS2PZBN7MFzCLrzQVPeHQI3XJLblf8UuC0JsbL3QkZLrF33o6frSFoAPElPQIQJ8vIK8cbwQY4Sa1e5b0F9C52+50UzhejMQ9U5oXLbCeL+zhGuwTeq6Dnjm7kjhOhXNl5f2XghQt/NhbQ37IAIOelWuefa0AEOu0bMPSBVNDDH8xori7etDh/iKB46Ly269J73VNTCr0ItCPaTVxVXNq0Ks3KUWC9KT7hZ6euiNnDdWFkm3hZj4yQ2Hxdo73Y49torsj9cnmdDGUyYTRo/J5+OmNUvZgwXSQBAS025/46YkeN8+9hLx6w5llTWRKfgYXIsIpQfek1fqJXOQpGdZeQ5N2cA2l4o5VL5+OlSgWPA98vTQy/U05kAAHhfdz9UFCcc72vm6O+w7vj+m03tdDwcB9w02pTe09He64r+ZYRwNyEKGZUgxwdg9ZScTluFR9dWX5K09WfH4f2/7mtlO2VVcN5DZnpbHuVKl0/8VmBq0sdy1Ez3xKt0fyRndU/e8pADS0aa93fcmqcsDZs52NzSfs2hSgMHRBrv/OW7eMKIAWZ9BEPHuKyPLqzV9MhWZRf7DlMNbZu6n2FQAwCvHGfKy874zhn9jZn5UHtX31OPVE8ZABzxdsWvmhG6Tl6V7XefNsrSrO+QH1buLVZ4W/NM1+eQNz5NcuHxXPZePY3OFvb/2nzwmF9ERyupOfIHUU483i9pL+lAb+2y4fFWHifPOWkAALjipYPUdUDIzL7rJMkh9nO8sx8wSbKXDSw4blfsDrb81WUMfU1D/ADApNFkdTb5GH4iknqs4ih113eNUBVmxtEYf1pXOUpsXeIMHu/n1Bc0nmelJ45kFdfR5xy5oKdccZIEAHDXG+9rzgW7TR5uYWpqNuj72Vvl1xoMqidpu/UdGCzJ1Redx6CWCzMDUi/L0xWeG4JMhXt2FJHFGK9YZS7rZMvCzsfIc1e5ShCbiD13qdkDXComrJBP+iMnMkXh92eUhdDLIbqGrKfqqzMzi+SZRfLwpP66JVnmsla2JOS8LCnb1cUHsZWF3qdCbr632Rn9/3auBSiKY2t3UZQTCgoKLLgaSyyNpTGlWShUHoUPUAtFRTEJilhoJD6jl6gxehUZHoIuKiqvZUEQUFHC+spFg6KIXsQgJIAviOLj6kZRb8QEIVkC9q3pmd6dYXd6VlH8/1uzRbEzO3O6T3995nw9p083NU799/Ty9OyiGfMyfP3MpuQXP6/0pW0mZq/JRLKhe6dN41Fy843FvrRj4AF6b8We/WdWzlNSo9SqO6jeZ/cLDlZkHqyIXZlAKdLC85lj5u/kA86pE2QhhEQkoU4bGxhlNV4dnl6uzi2eH7iZ8so7hO3QHEoWxVmnjf80mvJI/nzXBfX+0lVhCdYuiWsr8bCq7d6mGVG2k/euzSzPyCtZGryFcs/g2ku2ISk0GjJTKZesHNwECJ8kBhlIWsJyiFrpmh9pjT9PXnDGoavZPIoCdm6hkbtVacpwvwGWFsPWlOFHXFcT7Wph8b7Piq2pqt2RIa52wCEw/yHbVIaSB09ctTUlYmo/MMIzZPn25DUTnIDDou8xWiRI/nMizBnYuQZv2qnOSItfPu59YO2T+rOQlMVc9tNqTS76RM90BCYpebz/J96hUUmq5NiFHr2BpfuOelwysV7kWF9TltRYCGHLmeXOoNdA/1UJaarEtdN8pk35qCslj/ELHL8gOlmVEhPm6QAsRm+9wiot4TqJaEjUS1QaoTFmcuAYA5IWoxKu49AqyTYgJF9l6xXrX2mtDG/JEN5O9AQgRMONIxGR9DySRpQs1IpgdU+rDqqZT/QnAwDwXKFCJ2q1urCa85MEWQg7L21wBr2D8u7jXhFiR+wFCbsiIgnJfqO1cqPCkho8fc22tPTk2EXeTsDWN63L0y3U9FXPzKXklhMHKEW6SovL72g6rCpJvchhixxrXOhJ/PrWXBvsTn+06z53N6LkPqtqf+XOXxxYEUNNL7mKC+O+r5waapqS4+YW/c7e8/J+ua8L7ab6hT3VlRbaKBLW/MCNDDoaz3kozKXkttMFVoodkbVcj3fcLvN2MVByx82aiISzp/RTFy11IW60Z2YTX2WxUC1Zloxka0mBrSKRrsOBgGe1wZ60SxqHuzmULIbzH+c0Doqty0rxO3e7NmYmbfVVDdtnz0/m2yhUSffwWKf1ZvgE+oOEO/z2ko/F0IC/XJzgQk/chzv/Tpm7ImbeCU4NsuWQtaqOHv6e0YealfcMKfrHiSU2oO/iIs5Eoa42ygVYzD7Etrf12OcUGLbpMn5tfloYZA9GbK5Fogwlj026DSGsihwCpmY9gfBl2WoH4L7rFhkD5mrHtUMb1imL9U/Kb5o5FBi9rV4gKemyq+hBpinZYW4hzu/6tTDIFnwYVc2WTK4XOdbXlBVobnTSdnSBBRgaUYmfwYYdHhZdKdkh+Fvc/U/3zbICw2OvoHIkXKe+LlNoSNSrlzV1YBKNIZFV7L1E24Dkq1xtkv0rqpUEJfc8kmRKJlsd20qxwLWUrLYwZCAADh8HfBmbcazyviC3i9wLEnaFKFkMSbLfeF44txfw2nULj4NfnF0xADiLJmqa6map38yl5L/+dcRBoQw7/rQFO21+ycixZmTqCQy9CVl9U8c9poiSDU4Zwiuq3ZSb5lSXokQpWa3mXl8ghNqoKbTNJs7BIYrar8EsA+Hd9T7mUvLtXBWlOHAEx9BY2S4Z1x1/tDY1NWsfNWsfNayZRDvG6iMuTOtFSQhBIyZLRpIpc6TmtAGZZlUobbWmjn09M4eSxXC+k5cuDHrDpvqGkuonLEXVpOykvDXHmJayf00pi2jqyypMaPzeNn0sjkZL3rJoKqisEckxt7kf/A4/X2TLIWv1vLGi1PhTo2WHM3eSxwmDorCpruR0+S22vYybsFrCs8AHqT7AIkSDcGYo2U/NkOqVLS7gk/1MYPWHjf2BS8IN0203/rWj7VkT9wZ/atUgYPf3M4J7JF22KRJCztEX6cUWdmu7O7CYf4R7ytBvYvV2R1agudFJ4+4xAAQfNsQPLn3Trysl+6Te1cvVxStAr8XFyMIlXKdexhQaEvXqZU0dkNEg2gYkX+Vqk+xfUa0kKLnnkSRTMtsOMatjr4pRsrSsTntBvS7Ic4A1AMCyz9i1/9RiKiT3goRdIUoWQ5LsN36K+Qg4LjlqCM7VJ/kDEJhnvp801fOC38ylZNj+MGl+/HsuUVajtyqC9gRHFu+pbNb7AuRYs/PwSBjCZykhNPVVDed42TnOQsOUUfOthsPf39V2icGLUjK/ZMHs6c3sNEqRf0yvB2RStMycSzaiEGF6l+5p4Wb1IDdukpudLe5C2EYlYGTJskQkKxO3UV7HL+CSIGzZu5imFleyb0bmUHKACM5GWBnqgBBWJm7jz4tzs+O4XsGtIieiaEDYfDLfXrFb2fASwiblLLrPxuv6QRTZcrqj1c8o6ncUvwZ30fqHjYOAQ/h5w69Pspg5T+aFGMLuUfKfjQXh4/tTvMkzwKMotkZJl22KhIyc4z1mUdXsQ9xTRqy3O7IGkEwdGTlcQXIQRO5vapZhtN58/ZRGU/EAPfsSrlNfnSk0JOrVy5o61LahAAAKmklEQVQ6IKNBtA1IvsrVJtm/ZmklDBG/IySNsBJqRbQ6tpVGPYUbb4YsuvVl68Oa7+Jn9Ae9JqRxcTtyL0jYFRFJab8heLLRCec3cLu69202JUMI2180VF07eOh8XMKReXOV1grlV+WcwyM7VmhEyaZ1fnVKbsxRUYp8ntt9EGn2XLIRhfAp+eX1zFRrhXLazqqi8pulFTdLKy4t9DGEtVn9jUpgfzZDVhzJN0vJfJwlKZkac0DFtJT3d80w6uIXZfJYBA10b1v9Ei96xK77nTfPuiniw8txWB6n74kN5hg0xLUizyVLP1pvhZJfXksYbQnenxKRW1RyFn0y5vfvAUqWqNfIsfLpXELWZHfrfzRyuBKUrBeEEEq4Tv2tMiVDaDy40cPzVpE0shw+JZtlOUYWwipuliyvjc81IbZg9DY2hfbNUjKvFijtN5yCU9knW///xweGt0J+Wa91/CqUzK+g82H8TNpu0w02kEAOP749Sv6taD+lSNmpn/H87afPXM19S0Z0Lha4fpY6j6YWXNRPCEJ4f9MkMynZLFkDlkIkGWITD1w/PpzDZLYb0peFQxDi0IcNXBdwk/Io8bvu6rHyJjZ2wYSIPY6e6xK3MGgpfUSiZNhxLk5JTTqxJy2J8jn+LwMjsxn1olMeZK3Ic8koAMXP2HypvXzs6JkbbHsZN/FWAtf/ZuLlEwxJFxBWbRz0BilZLHAtUS9yrK8pS+77W7u8JQPX/LdkfmmPcwIA8Oel/lVHfAAcuiSaM1P6JmbWJerlV2N0TERDIjRNtBxc05t5SzaVcc2LN+DKmO+3h6QRJfO1krA6VkMRSibLtpxLWLAg+iTOm2BKqqKHAqfV7P465F6QQMPoLZmPJNlvMIFru5Wl3fCT/LpMHptLyQ+OFXh8dvwkngKE8OnO2bTNuqvs6ABRctz87/FllN41IukBVyWRKgxqvfpbMtRe8nOjnb84XXTt8a2Gn9PWqgaPNaJk3aPs9Zk+y4qKDUm/TJ1tpw4J0rvulHkp9KT7ImcJTX1Wqt9xRne7bKzhKqcyIrn9vFk09ncJWTKSrWe+tVUkRtZi1kLpXa5pXDobrC5yVsSHnebivh13yrwV9OR8PJFBxJlN71rKS++KmkFb48mF5hMHbBSJETV4tKfTpkfkhx8TQiaCJNtsETQ4rDrqiocptvQfSw9NECwlIlsOWSvyXDKbprHIkN71U+THwHJOAWujrccXUmBYRCWOa6P0ro/j6pC65gWu2+uzDs0cn00X4yRuJPs0exoAo5UNOBtA17DdyzhwzSzvsVlZgmfGOJB4X6ZICDlH+7mFeGEySu8aSrNJSRL1dkeWU8t0e2Hbkfld0rvc+e0luj9Yvq4v6L3gKJuQBzsadngwK3FxWqgeD1NoSNTLyorozKIRohEgqU+UI9oGJF/lVCb3L0krw1zynzWxgnXJ7wjJLpQs1ErC6lg0EMnN1mBywL1Klu288HU/YDs9Tz+7qbsaNxqA8SmscUj0AtmuiEiS/Ubzt8G9wIcbLuHUCd1PqsUhK/a9wp6PuPmi3+ZS8l/Xz7i60oPDvktEi6Di1qU6KeLm/JObHkaOVT11hSosuVydV7I4KJ5yTd3ZiN0SkSoeX6ljVkBxi6Ci/beh48NVpxoZekAli84lQ9h+43D+x2jGl1LET8q4+LXxXHLNyYFoGbH/QUxdLBovGlb40jaTsr/OvKjOLgqclzlhsp6S4X3N3t6KGJfwk8kHK5JTNL5zsvz9DVfZAtp/PDFEEePxj9J0dhFUaRObK0aWJSMJ23+J/zTKyieDWQSVd2rBLGYRlN4Jw86naQtiKM/UxWlo4ZZfNOVbWKyfoyfiDHXauE+jKU9mEVTGgdJVXzCLoNZdxultbXc3BERRY9NXqMoz958JD1VSbslbruKRAdtgMSTRVTE0WFH48tGWmTSl2BF9RTDClLAcc7TiKjD60tXEjqKAPbMIKl2lDJ880NJi2NrzGCxd3eZRlhb9fJlFUEn0PDc70PvTAi6h3jxKvhvjHOHUa9PfplzEAyakwr/3TrcF1iOCNuxOT98ds3Sc1xS/D43ekltLVzoDO4+lO7PYNU+55+8ysDyu4tZA5TKLoCi/9dzV4npmEIaco8c4fy+0nig2DC2C2s4FqiC53u7IcsiKtBe2lCxzBr0G+a/eplIlrgsYP3H8YF57ie4Pdt5OmWAN7N3DNqeoEr+Z9kEv4Lzoe/yYktGQqJdVWkRnhMb4ybO8+UgalpORbANC8lW2XpH+JSOJtEL7ZOUadu86h9EgB67fHpJkrchWx7a3/eL6gcBqVJiSWwZVdIN1OmTZzpvqSfaAGjQlfGuqKjluydi+AAxYUoRHUeReINqVBJJkv9F6af0IS9Bn7LL4VHXalhU+/QHlFleNR/ZcB3fry1xKhrD99tnToXN3DnCPotzih8zMCt9/9wn2rsix5uyrb4hcnjTAk9lIJO4CbxqSSBXVu3cYJxa95xLFpilJUTLT+D+a/1NXe7dW29aJwst944RLVX5vjJi9tY9fbpZ+iIAR+/1m9epFSYM844bMOaiquyXY47qzpSJP4zdd6eix1SXsSF793bjpXSkZwtbLeQVjJsZZI8qnlldxo30JWRKSzJT9w5vb1quHe8fYujNbheRdxyMypHZn84Os2L0efvFOPrt8V58u4u8VQcSZWQKPtgoZM3Wrk1fCKBNbhdxK3JAxYkyMg/c29yVH06t+w0MqPV6iSKI7RNDgpP/UrIqmAkquYpthf5awHGarECmtsHbG353PanK+DvQc1te+90BXo61C2h+cUS70GepoTdn2cw34KqdG7/zMo+S28o0pwxyVc/c0CVdOdj6+mLxkwvB+dnZ9h/t9mVNXETucR1FYy18vp4aNHdIbZ4F9gfYbZEJzpj5s4Bc5x6nZ1Sf+EaDoa+842OMzwVYhxHq7I8upLNZebssOl/72DgO9QlMvn6OH8tpLpmQIO3/9MTN82qgPHO37DR83N6bojsHayWjgrUJE6mWVFtEZoRGQV1ccMdPlfWMkIRS3DaZc8lW2ZpP9S0YSacV2P2Xv7OK/XLjH9TtCUkIrotVx7YXNlcmfew60t2QbNyMX+0mJJ+VFY9GWzyeNHOxo5zR41JSlyee1OIgn3QsEu5KgZGarEJLf+OuXc9u/mPChk7WN46CR01aqyh929ZO42a/3bT4lk8pHjnXvPg5p0p1v99rvtXPcaO8sYbj17VYpl24eAs9rZo+kPTIMmbes2P8VyzGvEfJd/xsIIJrpme1F/zcAk1vRcwi8QUrmh5d7rgHwyb0CNu59qGzVAiU1Mj2F3WOrB1WQq5JE4PHhXGtFWvK9rjcaRUG63iCfywi8cQQQJRtmbd94+XKBMgKvjcD/f0quLuqP4sZW7kqX0G93VTYLw4ivjYws+AYReJ6xMIoKLcf5foaSZUo2YCEf9RQCMiX3FNJyPa+MwJuh5FeuVhaQEZARkBGQEZARkBEQIiBTshAP+UxGQEZARkBGQEbgHSEgU/I7Al6uVkZARkBGQEZARkCIgEzJQjzkMxkBGQEZARkBGYF3hIBMye8IeLlaGQEZARkBGQEZASECMiUL8ZDPZARkBGQEZARkBN4RAv8Fq//iWd5uhoMAAAAASUVORK5CYII=;" parent="1" vertex="1">
          <mxGeometry x="20" y="1840" width="414.1" height="100" as="geometry" />
        </mxCell>
        <mxCell id="QVa-zLG6aqoEDmhBlNKH-64" style="edgeStyle=orthogonalEdgeStyle;rounded=0;orthogonalLoop=1;jettySize=auto;html=1;fontFamily=Helvetica;fontSize=16;fontColor=default;" parent="1" source="QVa-zLG6aqoEDmhBlNKH-62" target="QVa-zLG6aqoEDmhBlNKH-61" edge="1">
          <mxGeometry relative="1" as="geometry" />
        </mxCell>
        <mxCell id="QVa-zLG6aqoEDmhBlNKH-62" value="&lt;b&gt;配置文件&lt;/b&gt;" style="rounded=0;whiteSpace=wrap;html=1;strokeColor=#d6b656;align=center;verticalAlign=middle;fontFamily=Helvetica;fontSize=16;fillColor=#fff2cc;" parent="1" vertex="1">
          <mxGeometry x="162.05" y="1770" width="130" height="40" as="geometry" />
        </mxCell>
        <mxCell id="QVa-zLG6aqoEDmhBlNKH-69" style="edgeStyle=orthogonalEdgeStyle;rounded=0;orthogonalLoop=1;jettySize=auto;html=1;fontFamily=Helvetica;fontSize=16;fontColor=default;" parent="1" source="QVa-zLG6aqoEDmhBlNKH-66" target="QVa-zLG6aqoEDmhBlNKH-68" edge="1">
          <mxGeometry relative="1" as="geometry" />
        </mxCell>
        <mxCell id="QVa-zLG6aqoEDmhBlNKH-66" value="&lt;b&gt;属性类&lt;/b&gt;&lt;div&gt;&lt;b&gt;XxxProperties&lt;/b&gt;&lt;/div&gt;" style="rounded=0;whiteSpace=wrap;html=1;strokeColor=#d6b656;align=center;verticalAlign=middle;fontFamily=Helvetica;fontSize=16;fillColor=#fff2cc;" parent="1" vertex="1">
          <mxGeometry x="697" y="1770" width="130" height="40" as="geometry" />
        </mxCell>
        <mxCell id="QVa-zLG6aqoEDmhBlNKH-68" value="@ConfigurationProperties(prefix = &quot;spring.datasource&quot;)&#xa;让当前类的所有属性，和配置文件中以prefix开头的所有配置项进行一一绑定" style="rounded=0;whiteSpace=wrap;strokeColor=#6c8ebf;align=center;verticalAlign=middle;fontFamily=Helvetica;fontSize=16;fontColor=default;fillColor=#dae8fc;" parent="1" vertex="1">
          <mxGeometry x="480" y="1850" width="564" height="40" as="geometry" />
        </mxCell>
        <mxCell id="QVa-zLG6aqoEDmhBlNKH-82" style="edgeStyle=orthogonalEdgeStyle;rounded=0;orthogonalLoop=1;jettySize=auto;html=1;entryX=0.5;entryY=1;entryDx=0;entryDy=0;fontFamily=Helvetica;fontSize=16;fontColor=default;" parent="1" source="QVa-zLG6aqoEDmhBlNKH-70" target="QVa-zLG6aqoEDmhBlNKH-61" edge="1">
          <mxGeometry relative="1" as="geometry" />
        </mxCell>
        <mxCell id="QVa-zLG6aqoEDmhBlNKH-83" value="和配置文件绑定" style="edgeLabel;html=1;align=center;verticalAlign=middle;resizable=0;points=[];rounded=0;strokeColor=#6c8ebf;fontFamily=Helvetica;fontSize=16;fontColor=default;fillColor=#dae8fc;" parent="QVa-zLG6aqoEDmhBlNKH-82" vertex="1" connectable="0">
          <mxGeometry x="-0.083" relative="1" as="geometry">
            <mxPoint as="offset" />
          </mxGeometry>
        </mxCell>
        <mxCell id="QVa-zLG6aqoEDmhBlNKH-70" value="" style="shape=image;verticalLabelPosition=bottom;labelBackgroundColor=default;verticalAlign=top;aspect=fixed;imageAspect=0;image=data:image/png,iVBORw0KGgoAAAANSUhEUgAAAckAAAFECAIAAADDc1IgAAAgAElEQVR4AeydCVBT1/fH3zgd+XV+neYvDI7LVAd0FDtujGKFQXEdtWpdq7Z2rK1aa7Wl/my1VVvrFhUVkAAhgAJBBTViDUFA2Y0shl2BABpRohC2gKwBkvufl/deNpMYFDCGk8k0b7n3nnM+5+Wb+867VAyZ9qpWvkxrC62AABAAAgOdADbQAUD8QAAIAIE+IADa2gdQYUggAAQGPAHQ1gF/CQAAIAAE+oAAaGsfQIUhgQAQGPAEQFsH/CUAAIAAEOgDAqCtfQAVhgQCQGDAEwBtHfCXAAAAAkCgDwiAtvYBVBgSCACBAU8AtHXAXwIAAAgAgT4gANraB1BhSCAABAY8gf7W1o7GNkmrYsBjJwF0NLyQtHS/XzS6pM0tLZDB9ytp4O07INC/2ioqc3biDlqQl9zxDkI1O5NCH2crbNAo9+R2s3PNoENlgiBbxgmHhMfvkc8Gg4ETQKAPCfSvtj6vWLeYN2xjSU5XL4dUkyvyDBGXynt5WJk4wWPL/AnDPv7IZozrhkNRpS06BmrSwzw9o9/Q7tPL6+xpw1xP5nTqjNpvu9UJUxmndot6YO9Z0ZWJzLPzM8T96LNCKsn989+g6YEedhdYK+Mz01uIPNf7R574P1/iTaex4tJ7EMdbNpWyrp74P9+TGx+2kQM13lvIoP9U/pbDQndLItC/2tpn5IqDkzBHQXTv3l63Zv456YNBI+b9fMqf6bl3xTgrbMQGTpVWDMUeThi2Obq3fyq0bPThTs+1tQ+dMTC0XJr5hT99JJtzVJAVkMFdEki3Zifl4cTbH5bnXCzE34eve7wLbaXb3MivJ9wGbTWQvgF8GLTVYPLbedv+i43dxyenJvIK5txBmLNnqWYH0FZNGn2yfT/Nm8bk3GglB28Tx05hnNxeqvVzlp5ytt+1lT6BzbT3vRxB3MqAtvZJ8t/rQXugrVUcPubIDxVWH3VPHOl6a+yGjMOpLTJV9PWipY7cpdca4n3Sp8zj2S5JWuMtFqnqqsVF4x252LRo/O3Ic89QdUNIXrdvEffDPc9eahwTsVMxx7SgavJQi0h8dG/qxAUxNLfbTj/mBuS2kzNUYclE1bDE4MR/vxSqJLBLIvH6K+3TObyPXONn/FzALpKZ+CBGErIcw1ZHNKrcqi2IucHLk+D7hScmYvpeTh6k3ZqwpRi2NDgn/tCqKSOG2I5xWnPwX5GqRpl3dLy690fuiSoT+EbVebxrSH78wRVThg8ZOt75qxN3tG7BW4RX9iyfPtrG2s7lW6Yg5dB4zFpnCK3xtHY6ih/wVrG9RgX4LIoVFFQmTtOoCdQWhtMY4aFVpcduMMcyz0y6GHG4tEHlcwHfl8agbsD9eSkaw8rFcZ8yTm0uUWUbIdTAjKTTrgmek83kVc/4u6752fufGnWetSEpN79dnQWjdtuu3KTTrt6nxkFILg5L4HmLtKozhrVVVl6WtPWKvwPTwz6EtfpOViZZT1C6pWhMux/1eZjXSF/60ACfuTcTbtZplDqMnZWyrtLt7yTsCTy5rlDpia62GrYrumnDiPJ9yJkR4DkvqVwsufflhTPjL93kSFUFLWOsCJy18bunDx1it4RRoP7+aeQDNs2CQE+1NWXxzymbGGVMdtH3G2KwaUke5dR3RKmts7amz/njISOi7Mj+ZGtH7gyWlBTBhnpOlCgsShTme89WR1uR4q5HHDZTEK36GqO2gC1cbHP5MwKR9PmWBVzamsy/Qh8HXir+aVMs9lmqn0hpt6E+IvIxK/LxYfc4zDF5VwS+jb9j66VE3/a6A6uirZbw9wSXB7CLtm28hTmn+RN9X8dfnrF/FGazjv1Ma4pE9KoVRLDw1+E1ozHMeRdTucNisa5lk3aV2jpr0ao5mw8zmL5HtjhbY4NmnCwkadRmc8KUr8MrbTG92jpr8UqXjX/7+J87sGbCh9hgVy8h5UVrqvsYDBs+Z+dJP6bn78vc5rmNMVlbm0VcB8bJTzkxXjmZjOTwJdfZ03W19fwXNy78wE8Pyk7ccfk0jcE6IyG/83VVhcQNOP3GGZq2tiKFaH8wfXhMCTW5RKg5azmDviSHpNH6/PZM35OTr9/yzsli8m/MZ9FHXM1UXTlKbTVk92UYh07j5NQazZYhba1/FOXA8HCJTmDk3WelcxcF0oddyVDZfZIfOoxxduHttPMFOWHZd74OPUm7EMen1NXoWVxbbeOFaYme1tdzaxBC2tpqzC6urT7LElOYaeHjGP5zedxz2beWsuij4oTEDZJxVgSGxN1DrKz+85//uHqpphBG+cDJd0Ggp9oa83UsNTuRPlvnzB13jiw4IaW2Wu95Ru13hP/Cw1YUFepEVfjQXldbUWdW/nBH3s67VLm04cnyadzZ7Gaia3fZ0/2nS+KoOSxqrtzgxJ0R3KQ5sKF6a2Ns1mDHZO8K6gegtXrXQu6o0/i3wYSX+NpGOwyznvzFzqOB/2Y905oqEd0N1gSU2mr91VWKRm346g+xiUd1aQgO2evX1iHrI5UTZIQUIj+3QdgUegFhUcbbNhgbvTuZlLHuktNOmKna2smNOUELuSMgOctL7wcN0dXW05tVCtma95Uf3YmvXWFGKId/TldbUffdRE8ak5tA/QDUPbg4hHHen/qBu847SbvMf0RloeVJ9ASG98FKMgVKbTVk9220VV5cfPtgRqmYSvVL4VVbBsub1OkOTjSdFpn5lDrbVVvowU9PJm+fjJ/FtZV2Syh7FjOOcRG/ULW01ahdXFsJMpVHQ+irC1oQUtxNPE27xH+Ee9JunBXhbEu2zzfz3Zb+whFRXxkqCPg0HwI91dY0lkrj0Msz67mD9onJ2xKlts69qBagAmYC5pQdp7rVIYLWp62os3qXG3cEXUJ8NaW8zMGOSV5PtCh1t8uqq1vF+Ltq92Iu7ZjaD4SQIW3N9buDzc6+QXZsFVc3+WznYj8/Ib/0Whb07cjEaax965xH/xfDsA+Gzf49Wqx9MRvX1rl+6hgK6FOwwT/o0jCorXOY5KQdIZT79zhs8I+3CP8q/Odh2LpraswZe0eaqq11fhF0WvQD6tk2QuK4cbraGhKgZlPlwabbxOmugtCnrUj2JNqe4bm3gsh2G4d7knaREAuEkPhEKN0urkj8spF8195bxaBvoBxRaqshu2+jrQQxeVvby+eEaVHMRIbHHnJdhDzh9ilaECeyoUPnElV2M35Wqa0xJV1y0Z/BJ1blv9TWVqN2cW1ln8cVvOo0m/71Q/xu7X6aF42dJsT7vYYVMTT8930g0FNt5YdRMzGEWny+4WK7n5Jfc6LeylF/caXlVZy42kpqskLS0KutSB77Twy2sCADv8q7ru/lYWtLlFeaspOs+Qo99RMnqlyrrKh+dERrOmVIWzO94skir2Y19keRiRNXKoOK1hd5XPqKT7DB8/21ViwZ19al59VOSoviOZx0XRoGtXVpmNrF4hNTMWxrNOFMqaczhm28Qd08IJRner1V4nWRTospoSaXCGmvEyDqnmHk7QJCqK1EVBgllupkUK+2om6hewB9QvJTPIOyB1v96a4Z5MQboWf/nFctllJtEFM2PCijdt9KWzsaCn6/4mVLlokJ0+o1ZzIJ//MA/ODwQL+5nCvud+/fbVL/dBo9S2krkmekeA/hCKoa0xdprMEyZvc12voaVtQVCZ/mT6APtVV/8Pq1FbUmZ9Mcbx9+iFDHi22u3Kkas6eHwUkfOMYu8Rbx+NWJGdWJGY+/nc/tgba6ZfrhvTTeDzUewen3Uu/RRs7Gj7EZp8s0TpqurRqdNDZ7rq3l3q4Y9nWUujadfdDkemtPtVXDUY1N/dqKZLFxHrSQxDyE2h/f+ITBPK2SVlxb6fbRGSlPHmm+85pIkX9FWzWMobfR1mqviydogezDhSWJhOl8zniNeTr+K9Am4ZfnXxAkHbxzdUHwCVowL1Hj6ZDhsyptRd3P4ycy2BfEmZ+rtdWo3ddrqzFWmmhg27wJ9FRbX1MTWKoxb9UfuAFtRW3izc64pMoy8mwd7xwrUfVuYWziYt+Xq4pmCNUfWGyqtuI1AZfcJJ2Zl2psYxvNyR6bNx++pZ4+IiQ4NB4b+j++Rq/+19amyPUY5nRWNauXRqz+wNSaQK3v62sC4RrzVo1ANTYNaCtqKeeMwCW1OyXhDC00iawP4x3x+9yRdx4byoJRbX1lnUD304C4GyceqYsiCCH9z7KUc8mlueqFHujF7Yna2qoRFpJLkpwZp35+pK9CgHTOqrUVKZ79E0Jfdi/pS5W2Grf7Gm19DStNh2HbvAn0VFt5G+Oo21HlsywHBlUjeKUmoD9wQ9qKOjm/87BNZdfO3cY+f5Cj/h52XNjBxdYJhdQlL3ssdHHU1Vblmq3MV4VdeitzsOOd/XnUrZ6sgflX1q6bWs/B9PuJ5Gm/jcQ+Xs4WU67IHhyfgWFzfNWFUIREDDcMW8/R+qIrxyPWYGnUBPRb6fm8FVUEzrfChi8+Ep1TWlaY4Ltp1uhhpmpr503tZ1ll9wNpGlpjVOPU/hvSViR7sMWfvkhQeDSEPuWuChteW+BEn6SF3s6iHsHLqjN38aIj6sgxjdtVrm+9FkUtQWirvDWZcfLHMnVhAyGErw/zj06kMkWO2ypYw6C7ZdZQV053aVawRrzSiBiWW4JQXQJp4M9Vr5x9zVn8WRZZXVHk8Bm0iOD5Km01bvc12voaVuo0wJa5E+iptqYu/iVls28ZM7xoy4YYbHrSWdVsxKi2Sgqf4QuwyDVY0YvOKLejRHGP1d8R6a1Mq2kJU1dyx3jWUl8HHN/T6/yPHXmTfi08F/nonF+229f8Rct0tbUzp8DOkee0X8gk1mAlNZI3ze21f6yIxuak7GCWsy6V7NochzklHn9ASa3R7MjLWAuHYFb2S9xP+jEZx7fPHo5ho7fztFYDdd77ww770GnLKXIVFq+YtGtUWyUCcglWGL4Gy2rRH8SCrLA45SN6Yn2roXorQh1FoRsnWBHrY23mnWL+b5yp2oqaRTcdGCcncm5552YxUi4uvnZhsqna2pIjJP8ICl+D5cf+S/kHURcLS4WUYhIaOoTN/Izhc0hTWhFqFcfP8KXbR970yLnPSo9eEkS3DU/OpVJvXFvl0szl/vSR4fjfZbHwv8s6Yc1Oyqf6EhlsrYh2YHjMjeeHkV6JKvATUvb1UzR//02p94Lz7p2IvzCPw3ZUxyvPv8e0Znh/kXgXX4OVk7T9ogeNGXmV1FrjZzXmrQgpqhOm4SVd1d+8GrX7Gm19DSvyipVF/0CzsloQqHE3Z/RahpPvgEBPtfUeW/ji4K6EEcq/HTh6V6NwaVRbBT639TxTmhatVUNofLraiYs5xu3TmLXiSOTt99jZ81fE0lxiJ27NCRXWHl2hq60IybLYAudFvA+IPyXYKWqgYHZJJGcOpDm48T6aHT99Ry4zu01TuKlW+j9bHvFOfLdw+lhb2tCxTkt+ZKRSiyLUzaVZjO+c7YZ8QGjdijDSrlFtxWsL+l7Es6/XaStuu71OlJ+ZkVfRKEeCA/aYza9Jao+MbpF/O/AJ89w8XoagQuv/J2BU48THQlSPoTQ3tGoI0qLLNgw6LSguXWcKieQvKu7+dNXX3v+U3fmANXcy7zWrWxi1ixBSSKtz/rwRNC3Qw+58wMr4jPTmVzPYKsiJWhhymnpsdSNG2UTeUsGMC3UK8hgZ6P/F7exCcZKTWlsR6qqL4V9bEOo5wpduG3DOmRPNEmv8H76MndXSVoSenwzT1FZkzO7rtBUZZUUmt/jkNCuriYfzjeYaTr5bAj3VVj5bJVrv1nGwThBovPrlYGymuv4KXAYAgRbOVx9a2e6KU98yDICg37sQe6ytGmuw3rtgLcXhqswIZRUhNPCM+/wR2IezfYQmVTksJf4BH4fgn/FWVmsvapWnBjwUswMA2mp2KXm9Q/x9w5QlhUEfj5w093vPFLF29fH1A0CL95pALXu1ldUMT9Vakfc6GMt1vgfaarkQIDIgAASAQC8TAG3tZaAwHBAAAkAAIQTaCpcBEAACQKD3CYC29j5TGBEIAAEgANoK1wAQAAJAoPcJgLb2PlMYEQgAASAA2grXABAAAkCg9wmAtvY+UxgRCAABIADaCtcAEAACQKD3CYC29j5TGBEIAAEgANoK1wAQAAJAoPcJgLb2PlMYEQgAASAA2grXABAAAkCg9wmAtvY+UxgRCAABIADaCtcAEAACQKD3CYC29j5TGBEIAAEgANoK1wAQAAJAoPcJgLb2PlMYEQgAASAA2grXABAAAkCg9wmAtvY+UxgRCAABIADaCtcAEAACQKD3CYC29j5TGBEIAAEgANoK1wAQAAJAoPcJgLb2PlMYEQgAASAA2grXABAAAkCg9wmAtvY+UxgRCAABIADaCtcAEAACQKD3CYC29j5TGBEIAAEgANoK1wAQAAJAoPcJgLb2PlMYEQgAASAA2grXABAAAkCg9wmAtvY+UxgRCAABIADaCtcAEAACQKD3CYC29j5TGBEIAAEgANoK1wAQAAJAoPcJgLb2PlMYEQgAASAA2grXABAAAkCg9wmAtvY+UxgRCAABIGCqtlYrX8ALCAABIAAETCEA2moKJWgDBIAAEOgZAdDWnvGC1kAACAABUwiAtppCCdoAASAABHpGALS1Z7ygNRAAAkDAFAKgraZQgjZAAAgAgZ4RAG3tGS9oDQSAABAwhUAfa2tz5qWC9GrckXpBYVCQAH+HFvJSn4uk3Sr31KeCciN5T0qlCtUphFCLqCI6PNPjVMaFG5VimeYZcrteUBh6t1HrxFPRBc5zqfKQevDzeZy4p2XU4Hp6aQ1hZEdWfC15+7LQWX8/bjXSCilECYIYYaexJqaea8/n5POrTG2tt129oPBSZrPeU3AQCACB3ifQx9r6nD6FdSQPd1t4NmT4/Gg6PfXYofgf14c5jL94gNfQoQxIdYp+LGHHF0F2EzjsJ3Llmc7SCJ7zmPNf7k4+fSbl19WBdi5xt6q1lJcY2e5AhRaaxLhPFmQ+0h78+NGEPd+xHSZEMh926e+lNYThneq8tTYXj/Jrnta+ovSigh1bcoVkV3nsDs8NV9oMD2T6mQbmAuYhgeH2Wnb1NxOeDZlCf67/HBwFAkCg1wn0p7ZqKKCiXsBfaXfR9xGuocKzIRqnOtN+Yzr8U4kQkpdlLba74luikrB2waHQT74vatCmoN1deU5bWzUGl4t8w4d991Cqa1R7RI297pbmyhcd6slnR0cdP3nmlITEuhZpK/EDQLWWyer5yTOnJiTVtTS1KxBSaWtXg7ixrk33JwEfWdzWoT0GNRbxqZBJGyslsi6kq60yadOTyjbilwnp2iXH0GqjjBfX1m5ZbWVjHe6e1kunMX5O3om73aHb0gS3tUaGHSAwQAm8I23Fv7sPTobY7RPJdWVOUeYVNvOsBCHFvT/8Zp6qwieZqleDOJJZphRk1SEdaVYeN6itCKXdsZ+fWa5rVD2aequ9/t/f2OPGBLl+xrR34YU9VEoZP22BC3PEMKbzAvaOq9qFiIKstdSpP+I6CG1de0rwy7xQV0dfGzv2X8kt5ODt9dy94RMczs92YY5z40WWaYVItmmRsLedtxsbPOuzwHkHBYfnk/PWriclez9n2jlccJnEGPt5SpoUIV27SE8bQlv3Znl8Hjh91oUJowM3MsVEzURvY1lpwU4Xf4dZbNepQcuOi4iWyBS31fhgCwgMbALvTluRIil+9BfZlcqv/SffZqWmilIThewT3C9W3ebh09aXYSvOuScam9cRqevBvFXRITgUMu7g0+7Xa6u8zIft8E1eeTv+M/A8mjfts6T7xESxiO86PVVZ53jl0tE6hc9bhy+7V9CCkEJWxoiwdUtXlgsUj3zDx20ueIpPx7sqr96ctCirTHek7genQiZsKaxQthGFXh9rTWirXBjO+8lP3ChHqLuN+wNjYYBS97Tt6m0jPBtiPTLCuwgfsftFqbtj4IHMToT0Dth568dzc87V4JIvqwnfl3KnBiFkitu6YcA+EBi4BN6htiJB8hRXfpFS5oY6RWzbdnPb1hsbllxwWXXnSlknQjXeLkaLjFTSXqutQx0vfvPN9W++vrrMmfnpyrTEF68WIqix1J8SL5fAw7mqO+J6/3n+BzKVp7WETN0B39I6hWvr8pAmsoU4e4UtLxa3LPFyYf56q0kiacbf1cLddlfZddrjIMmZz4KOF1DWuyv2j9VCIW9teSYUh28PsN2trCpr2SWH0mkjPBsy9CehqvorYrDHHcJ/wYiXdmNF0akL479OTxC2qsoxprlNDQefQAAIvENtbb3+r813D5t1p5BdT9mcMYvvP0ayf7/z2nRd49ttIFvCsyGj/3yidTIhdoTGs6xPvslITHycmJDz00T/HbH4RPSVIq9Wb+WO6LfhkSES1fGu6K2e30YpndEnZGQ7rVOqeqvypLTwG+toHr44QvTbcMYUN/aCBao3J6hUZYjY0LFe5+tGaKuiIT3LfW3YNCf2yo28PRvOW7uX4x207OpvIzwb8ukRscpMK+eG9Q8lbUh/Y9RUHXno3yVTfUdPv3owXFyD/ySY4rZqeNgAAgOeQO9rq6zlUUFDAzHl6hT9ZnfBoxinrDu7VEgvLPddEYbf0uqeqi1Yb8u71YUqz0fYrclTT64Q6hKkurqkCtTLt/CRm69F2azO1VyhVMm8ZPujkFggpTn4i4vXPnG9m698MqV5XN9VUOPtEvhPDjVzRPV+Js5bp6XmksMZ0laJp/P5Uw/12VQfk3g6sw5lU9Zlor32hLa+OOnou+mylPh9qL4QqdZWtV39bYRnQ2y3FlMVXyQ8G6p8YKi/MeWIvFH48JdpzD/TuxEyxW2qH3wCASDQB9r6eM9o5o4bL9vkMvF13kT7mDilyOFa9ueT7m65rKXlSUG533fBYxZnFKhkTnmqu6u7ta4umX7ZfrlAhBDqEJ9w8Zv/Z1FhTadc0VWTX+A+039laL1uCbZW+JNDwKbzz2vx0bol97O+Gs9yTyBvf7U0VFZ1ysVnzSX8Pl3lT3e3XPlWUEpGXBSKR74XHb7KVip0d2UUz9E5JZuYQ2tNErWvoArB50M57GrCQUPaKi9nhH/6fX45jkVen5y0anVWvu7TLHnJmbCxX+WU4kHIhP7XxgwltFV8bDLTPQF/eK+Qij0WnyO1Vcuu/ja4to68SM/BZVlW8XD7xKBDgi6E9DaWRn7H3h3T0o2QvLnyyEzvLVwZQgbdbswvZPFqVdUGbSKwBwQGKoHe11akeBGX8Pl471F2jKFjw/+IayQ0C3+WYuNlY+1pM5I5c/G1nWfLKsi7c1zm8FP4We9Rn55f/AP/TiU5NZXXi1k72JM+8R4xwnvYp5d+DX2uswCLyFtTQf5vi5nDRviNtzs3/NPLf1yVqFbJa2krQo0xvHETYxOaNYySpokbdo3roEMac+DyBPsApyl+Y+fdihBS1Qkj2qp4GX8wwnG09/rLLRprsJRjqmsCCHVIb/0VMXks6zPHgCnzrh9PaNKeiCvbt9ZE7gy1s2M5TWYtOlZwZhlZE3gRc3uOnc+nziEu86N9/qbmrVp2FXrbCM+GuB4v8F0ZOMkp0H508PfBL5SVYP2N61LufuPGmuQU7DDSf8HvxSJC+vW7rcg7HjyK+C3UgAebQGCgE+gDbVUi7e5skLS26tGMNwLeJaurk6kXmeofQyFreimu7qAkUH+jnh5VdLRJ6mW6M2Wjo8g7Oo2uWqU6y9prGjq1J8vUKeqzq7mlWtqlY13e3vaiuv1VGpp2DbVBiq4mSXOTNiMDjRVt9c11Omt48Unvq27Lu3sr0VTg8AkE3nsCfaWt7z0YCAAIAAEg8BYEQFvfAh50BQJAAAgYIADaagAMHAYCQAAIvAUB0Na3gAddgQAQAAIGCIC2GgADh4EAEAACb0EAtPUt4EFXIAAEgIABAqCtBsDAYSAABIDAWxAAbX0LeNAVCAABIGCAAGirATBwGAgAASDwFgRAW98CHnQFAkAACBggANpqAAwcBgJAAAi8BQFTtfUtTEBXIAAEgMCAIwDaOuBSDgEDASDQDwRAW/sBMpgAAkBgwBEAbR1wKYeAgQAQ6AcCoK39ABlMAAEgMOAIgLYOuJRDwEAACPQDAdDWfoAMJoAAEBhwBEBbB1zKIWAgAAT6gQBoaz9ABhNAAAgMOAKgrQMu5RAwEAAC/UCgv7W1o7FN0mr8Hzfth6jNxURHwwtJC/wbqeaSDvADCPQigf7VVlGZsxN30IK85I5eDOG9HUro42yFDRrlntz+3oYAjgMBIGCAQP9q6/OKdYt5wzaW5HQZcOdND9fkijxDxKXyN+1voJ9MnOCxZf6EYR9/ZDPGdcOhqNIWnYY16WGentFvaPfp5XX2tGGuJ3M6dUY1u916/8gT/+dLvOk0Vly62XkIDgEBcyPQv9raZ9EXBydhjoLo3r29bs38c9IHg0bM+/mUP9Nz74pxVtiIDZwqrRiKPZwwbHN0b/9UaNkwg532h+U5Fwvx9+HrHqCtZpARcMH8CYC2GsxRO2/bf7Gx+/htRAt5BXPuIMzZs1SzwwDRVnXI6SlnQVvVOGALCBgk0ANtreLwMUd+qLD6qHviSNdbYzdkHE5tkalGrhctdeQuvdYQ75M+ZR7PdknSGm+xSFVXLS4a78jFpkXjb0eee4aqG0Lyun2LuB/uefZS45iInYo5pgVVk4daROKje1MnLoihud12+jE3ILednKEKSyaqhiUGJ/77pVAlgV0SiddfaZ/O4X3kGj/j5wJ2kczER2mSkOUYtjqiUeVWbUHMDV6eBN8vPDER0/dy8iDt1oQtxbClwTnxh1ZNGTHEdozTmoP/ilR11byj49W9P3JPVJnAN6rO411D8uMPrpgyfMjQ8c5fnbgj1iwbtAiv7Fk+fbSNtZ3Lt0xByqHxmLXOEFrjqXekrKt02r8FatC1Kc4M+gLz4ncAACAASURBVE/lZIvawnAaIzy0qvTYDeZY5plJFyMOlzaofCYaGdfW2vjd04cOsVvCKFBfF2rzsAUEBhKBnmpryuKfUzYxypjsou83xGDTkjzKKaVSauusrelz/njIiCg7sj/Z2pE7gyUlRbChnhMlCosShfnes9XRVqS46xGHzRREq7/GbQFbuNjm8mdEJqTPtyzg0tZk/hX6OPBS8U+bYrHPUv1ESrsN9RGRj1mRjw+7x2GOybsi8G38HVsvJfq21x1YFW21hL8nuDyAXbRt4y3MOc2f6Pu6NMsz9o/CbNaxn+m5468VRLDw1+E1ozHMeRdTucNisa5lk3aV2jpr0ao5mw8zmL5HtjhbY4NmnCwkadRmc8KUr8MrbTG92jpr8UqXjX/7+J87sGbCh9hgVy8h5UVrqvsYDBs+Z+dJP6bn78vc5rmN6U1tPf/FjQs/8NODshN3XD5NY7DOSLSK2Ma1NXH3ECur//znP65eqp+211GG80DAQgn0VFtjvo6l5qLSZ+ucuePO1ZNklNpqvecZtd8R/gsPW1FUqAOu8KG9rraizqz84Y68nXepcmnDk+XTuLPZzUTX7rKn+0+XxFFzWNRcucGJOyO4SXNgQ/XWxtiswY7J3hXUD0Br9a6F3FGnazT7Gt4WX9toh2HWk7/YeTTw36xnug+yEEIGawJKbbX+6ipFozZ89YfYxKO6NASH7PVr65D1kcoJMkIKkZ/bIGwKvYDwU8bbNhgbvTu5ldjtLjnthPWmtp7eXEIOjVrzvvKjO/G1KszGtbUl2+eb+W5Lf+GIqFQahgtngIBlE+iptqaxVBqHXp5Zzx20T0ze/im1de5FtQAVMBMwp+w4rWkPQvq0FXVW73LjjqBLiLmZlJc52DHJ64kW+e52WXV1qxh/V+1ezKUdU/uBa5yBZ1m5fnew2dk3yI6t4uomn+1c7Ocn5OxSy4K+HZk4jbVvnfPo/2IY9sGw2b9Hi7VFw7i2zvVTx1BAn4IN/kGXhkFtncMkJ+0Iody/x2GDf7xF+FfhPw/D1l1TY87YO7I3tTUkQM2myoNNt4nTWgVhXFv1IYRjQGBgEuiptvLDqJkYQi0+33Cx3U/JrzlRb+WQT34QQtLyKk5cbSU1ZST56tVWJI/9JwZbWJCBC3HX9b08bG2JUJUQWfMVeuonTlS5VllR/eiI1nTKkLZmesWTRV7NauyPIhMnrpQLitYXeVz6ik+wwfP9RdRB/NO4ti49r3ZSWhTP4aTr0jCorUvD1C4Wn5iKYVujCbulns4YtvEGdfOAUF4v11vDyNsFhFBbiagwSizVzCBoq2b6YRsIGCbQh9qq36h+bUWtydk0x9uHHyLU8WKbK3eqxuzpYXDSB46xS7xFPH51YkZ1Ysbjb+dze6Ctbpl+eC+N90ONR3D6vdR7tJGz8WNsxukyjZOma6tGJ43Nnmtrubcrhn0dpa5NZx/s1XpruIa2ajhKbYK2UiTgEwgYJ9BTbX1NTWCpxrxVv2ED2oraxJudcUmVZeTZOt45VqLq3cLYxMW+LxerDqD6A4tN1Va8JuCSm6Q581KPY3yrOdlj8+bDt9TTR4QEh8ZjQ//H1+jX/9raFLkew5zOqmb10ojVH5haE2gJj6LTONnqkKruTGKc/p0qXBDrBEBbNfILm0DgjQn0VFt5G+Oo21HlsywHBlUjeKUmoN8nQ9qKOjm/87BNZdfO3cY+f5CjVsOOCzu42DqhkKrbyh4LXRx1tVW5ZivzVWGX3soc7Hhnfx5VJZU1MP/K2nVT6zmYfj+RPO23kdjHy9liyhXZg+MzMGyOr7oQipCI4YZh6znq6ic1GLEGS6MmQJ3Q/uz5vBVVBM63woYvPhKdU1pWmOC7adboYaZqK0pP8aQFcLjUit2y+0E0RmgQRcMUbS3g+9L8oxMpJtrRwB4QAAIqAj3V1tTFv6Rs9i1jhhdt2RCDTU86+5j6mhnVVknhM3wBFrkGK3rRGeV2lCjuMbW0CCHprUyraQlTV3LHeNZSQor7+fQ6/2NH3qRfC89FPjrnl+32NX/RMl1t7cwpsHPkOe0XMok1WEmN5E1ze+0fK6KxOSk7mOWsSyW7NsdhTonHH1BSq8Kgb0Nexlo4BLOyX+J+0o/JOL599nAMG72dV6vZtvPeH3bYh05bTpGrsHjFpF2j2ioRkEuwwvA1WFaL/iAWZIXFKR/RE+tbDdVbEeooCt04wYpYH2sz7xTzf+NM1la5NH2pP/2TS1GnsjMZyeGTfOkOcULVsytTtLW1ItqB4TE3nh+m/DOti4WiCk0esugfaFZWCwI17jI0T8M2EBg4BHqqrffYwhcHdyWMUP7twNG7GoVLo9oq8Lmt55nStGitGkLj09VOXMwxbp/GrBXPhLz9Hjt7/opYmkvsxK05ocLaoyt0tRUhWRZb4LyI9wHxpwQ7RQ1UDrskkjMH0hzceB/Njp++I5eZ3aYp3FQr/Z8tj3gnvls4fawtbehYpyU/MlKpRRHq5tIsxnfOdkM+ILRuRRhp16i24rUFfS/i2dfrtBW33V4nys/MyKtolCPBAXvM5tcktUdGtxQNVYLfrrMmBXiMC7vwHb9EpPFHCaZoK0KtgpyohSGnbRnE/17gRowmzuKT06ysJh7ON+oDnAQCA4FAT7WVz1aJ1kDAY/4xNl79cjA2U11/facet3C++tDKdlechmC/U3/AOBB4dwR6rK0aa7DendcD3HJVZoSyihAaeMZ9/gjsw9k+QpOqHH2OTfDPeCurtRe1yiZ9bhQMAAGzJADaapZpMe4Uf98wZUlh0McjJ8393jNFrC5aG+/Yx2dr2autrGZ4qtYw9LE5GB4ImDOBHmirOYcBvgEBIAAEzIoAaKtZpQOcAQJAwEIIgLZaSCIhDCAABMyKAGirWaUDnAECQMBCCIC2WkgiIQwgAATMigBoq1mlA5wBAkDAQgiAtlpIIiEMIAAEzIoAaKtZpQOcAQJAwEIIgLZaSCIhDCAABMyKAGirWaUDnAECQMBCCIC2WkgiIQwgAATMigBoq1mlA5wBAkDAQgiAtlpIIiEMIAAEzIoAaKtZpQOcAQJAwEIIgLZaSCIhDCAABMyKAGirWaUDnAECQMBCCIC2WkgiIQwgAATMigBoq1mlA5wBAkDAQgiAtlpIIiEMIAAEzIoAaKtZpQOcAQJAwEIIgLZaSCIhDCAABMyKAGirWaUDnAECQMBCCIC2WkgiIQwgAATMigBoq1mlA5wBAkDAQgiAtlpIIiEMIAAEzIoAaKtZpQOcAQJAwEIIgLZaSCIhDCAABMyKAGirWaUDnAECQMBCCIC2WkgiIQwgAATMigBoq1mlA5wBAkDAQgiAtlpIIiEMIAAEzIoAaKtZpQOcAQJAwEIIgLZaSCIhDCAABMyKAGirWaUDnAECQMBCCIC2WkgiIQwgAATMigBoq1mlA5wBAkDAQgiAtlpIIiEMIAAEzIoAaKtZpQOcAQJAwEIImKqt1cqXhQQNYQABIAAE+pgAaGsfA4bhgQAQGJAEQFsHZNohaCAABPqYAGhrHwOG4YEAEBiQBEBbB2TaIWggAAT6mABoax8DhuGBABAYkARAWwdk2iFoIAAE+phAX2hrvaAw9G7j2znekekTe+zOy7cbxGJ6y4qvJW9fFjrr78etxmJSiBIEMcJOY01MPdeez8nnV5naWm+7ekHhpcxmvafgIBCwfAJ9oa3CsyF2Byrejl2HgHnbIwm+mUqK1XlrbS4e5dc8rZXpUhUV7NiSKySPymN3eG640qbb5k32G5gLmIcEhntq2dXfTHg2ZAr9uf5zcBQIWDyBftbW7pbmyhcdr8ysFDJpY6VE1oUUbdLWFuXpjpctTe0KhBC+0aFAis46cZO0Az/y6kvVGD/VJZM2yNQm5J0N4sa6VzrinojbOuTqwUhDnW3PRM1tr7MrkzY9qWzroHqTfbtlkqp20rRcJql82aQthq8apQZQf+oi6uio4yfPnJKQWNcibdVwFyEkk9Xzk2dOTUiqI1iptLULD7lNl5UJ1lWJ0NVWrXh17ZLOa7VBiNTWblltZWOdMpXqIBHSaYyfMjlTmuPANhAwUwL9p63t9f/+xh43Jsj1M6a9Cy/sIaVLzdVh287bjQ2e9Vng3P25J5YR0yWVTOAbG8/m7JwX6jLZx2b8Zc9sbbnCuaoaKyEX8V2np+YpN2WlBTtd/B1msV2nBi07LpISSWiv5+4Nn+BwfrYLc5wbL7KsS3lYOcix9HUO/pNX3y9WjqnXbteTkr2fM+0cLrhMYoz9PCUNH1TppIfg2xlBU8ees1+ZkZ6ZtX560PRPzw134v1LTN30GyUcov6rFxE/bYELc8QwpvMC9o6r2pWWgqy11Kk/4joIN9aeEvwyL9TV0dfGjv1Xcgs5tCnWWyRsKhHzDgoOzyfnrXri1bWL9LQhtHVvlsfngdNnXZgwOnAjU0zw19u4J5micMEnEDBnAv2lrfIyH7bDN3nl7bgSPY/mTfss6T6urt0F9AsTtj6owAWzSxR2fZy1Hm0d/kXGw1aEutsFR0Jt1ua9UgY0pK2dt348N+dcDa6dsprwfSl3ahBCike+4eM2FzxVWqy8enPSoqwyPEP4ICNX8jOriXknvqvPrlwYzvvJT9woR6i7jfsDY2GAlOhrvSAtp0mBOiSecz2tZyVnNMlRd/Pl9d4uXhLDRjUvDUOIENL4tdDsgG9rnVL6vOxeQQtCClkZI8LWLV1ZLjAUsuZg3Q9OhUzYUkgmIvT6WCoR+uLVtau3jfBsiPXICO8iHHT3i1J3x8ADmZ0I6QXYo0xpug3bQMBcCfSXtkq8XAIP56ruUuv95/kfyEQIVZ+eEUwvoOh0Pz04To+2Lg9pIls84LtMTMqimlOfhrRVUXTqwviv0xOErRpzXYmXC/PXW00SSTP+rhbutrvKriO1dXU4NdFTSq0Ru/LWlmdCcfj2ANvdjwhtXRJETotz/gmYStUZnwddHv6bCCFDRqkI8E9DiHSETLOLzimcg9pncfYKW14sXkUwyfqZz4KOF1AJ6q7YP5actxL2tOPVsUu6pNNGeDZk6E9CVfVXxGCPO1Sp8l67cY8ypRoDNoCAGRPoL20V/TY8MkSiAtEVvdXz2ygZQvjxC9Wq43W+bnq0Vf185sn9JeMS+Krm5IYhbUWoqTry0L9LpvqOnn71YLi4Bhca0W/DGVPc2AsWqN6coFJSW9WGlNqq3lXbVTSkZ7mvDZvmxF65kbdnw3lr93JCW1WN846wZp4lQ5WERA7b89iwUc1IDCHSL2Rkz1fmrSo3kLTwG+toXreRkI1YVyVCb7w6LulvIzwb8ukRscpGK+eG9Q8lbUh/455kSjUkbAABMybQX9pa4+0S+E8ONS1C9X7kvLWWMZu5j48LAP5qLftl9BtoqyLhF+8FzAZyEH7COKreSh5B8kbhw1+mMf9M70ZI4ul8/tRD6oz6U1ugDWrri5OOvpsuS/HaBkLVFyJN01ZDRtXmETKESEfINLsoT01LzSWPaYeg1lZTrEs8nVmHsqkEyUR77YlE6I1Xx67+NsKzIbZbi1U3AsKzoQ7/VCKkvzEVlSmZotrCJxAwZwJ9pa1/PunullNvhQKvcl50+CpbiK/P7K6M4jk6pxAPpcTsq2Pm3rmeLxVXPOfsjZhk9wbaikS+bGu3hPiK9ibRk3MbA0aQ2iqN/I69O6alGyF5c+WRmd5buDKE5OWM8E+/zy/HPZHXJyetWp2Vj1dktYVJZ1c9bxUfm8x0T8CXHSikYo/F50zTVkNGNS8Ng4i0i6qaXRCqEHw+lMOuJtYPaIeg1lZTrMtLzoSN/SqnFL+Hlwn9r40ZSiRCb7w6dvW3wbV15EV6Dv4zJKt4uH1i0CFBF0J6G/coU6gxv5DFq1VVG7SJwB4QMA8CfaSt1jZeNqo3cWfaIY05cHmCfYDTFL+x825FCKkSqKItn52waVnY7CVR/8SKfMlllSqZUG0oeak1Thtf4zPPVcyhNucmuEWHcVJV6wTqUu5+48aa5BTsMNJ/we/FImJFQIf01l8Rk8eyPnMMmDLv+vGEJuW0WduQQW1VvIi5PcfO51PnEJf50T5/mzhvRUi/Ue0oDCHSuvHX7qJ4GX8wwnG09/rLLbo/D2ptNc16a03kzlA7O5bTZNaiYwVnyAUbeuNFSMuu/jbCsyGuxwt8VwZOcgq0Hx38ffALZdVcf+OeZEqRdzx41HKBSJsE7AEB8yLQF9pqJEJFR5ukXqa1SlMua1H/sdFz+tSQs9RSeCPj6DulkLV1UsUFzfOKtvrmOp2VofhUqr2moZO6B9Zs//pteXvbi2pqHevrm2u0MMGoHkQaA+jdlHd0ai7U1dsGP2iC9a7mlmppl1aCEDIUr6ZdQ22QoqtJ0qyzztdAY9MzJe/Wl2mDgcMJIND/BPpZW18NsOoyZ/KKlH/vS4S55Zf+ihjvejePmF2+2hSOAAEgAATeFwLvXFuRojWXnbxz45WVq6//dCjn3guYkLwv1w74CQSAgGEC715bDfsGZ4AAEAAC7ysB0Nb3NXPgNxAAAuZMALTVnLMDvgEBIPC+EgBtfV8zB34DASBgzgRAW805O+AbEAAC7ysB0Nb3NXPgNxAAAuZMALTVnLMDvgEBIPC+EgBtfV8zB34DASBgzgRAW805O+AbEAAC7ysBU7X1fY0P/AYCQAAIvAsCoK3vgjrYBAJAwNIJgLZaeoYhPiAABN4FAdDWd0EdbAIBIGDpBEBbLT3DEB8QAALvggBo67ugDjaBABCwdAKgrZaeYYgPCACBd0EAtPVdUAebQAAIWDoB0FZLzzDEBwSAwLsgANr6LqiDTSAABCydQH9ra0djm6T1zf51VQtMRUfDC0kL/ANhFphZCAkI9K+2isqcnbiDFuQldwB5hIQ+zlbYoFHuye1AAwgAAUsj0L/a+rxi3WLesI0lOb39z2TX5Io8Q8Sl8l5Oj0yc4LFl/oRhH39kM8Z1w6Go0hYdAzXpYZ6e0W9o9+nldfa0Ya4nczp1RoVdIAAE3nsC/autfYarODgJcxRE9+7tdWvmn5M+GDRi3s+n/Jmee1eMs8JGbOBUacVQ7OGEYZuje/unQssG7AABIPAeEgBtNZi0dt62/2Jj9/HbiBbyCubcQZizZ6lmB9BWTRqwDQSAgIpAD7S1isPHHPmhwuqj7okjXW+N3ZBxOLVFphqpXrTUkbv0WkO8T/qUeTzbJUlrvMUiVV21uGi8IxebFo2/HXnuGapuCMnr9i3ifrjn2UuNYyJ2KuaYFlRNHmoRiY/uTZ24IIbmdtvpx9yA3HZyhiosmagalhic+O+XQpUEdkkkXn+lfTqH95Fr/IyfC9hFMhMfpUlClmPY6ohGlVu1BTE3eHkSfL/wxERM38vJg7RbE7YUw5YG58QfWjVlxBDbMU5rDv4rUtVV846OV/f+yD1RZQLfqDqPdw3Jjz+4YsrwIUPHO3914o5Ys2zQIryyZ/n00TbWdi7fMgUph8Zj1jpDaI2n3pGyrtJp/xaoQdemODPoP5VTLRSNafejPg/zGulLHxrgM/dmws06Tbvyqmf8Xdf87P1PjTrP2pCUm9+uJllbGE5jhIdWlR67wRzLPDPpYsTh0gYq3pdhHDqNk10gurOO7fkJy3dudEriS817DFl5WdLWK/4OTA/7ENbqO1mZLVR1R3TThhHl+5AzI8BzXlK5WHLvywtnxl+6yZFSDZAxr4jAauN3Tx86xG4Jo0B9tVIhwycQ6CsCPdXWlMU/p2xilDHZRd9viMGmJXmUU98vpbbO2po+54+HjIiyI/uTrR25M1hS8ivUUM+JEoVFicJ879nqaCtS3PWIw2YKoqmvIkJtAVu42ObyZ0TU0udbFnBpazL/Cn0ceKn4p02x2GepfiKl3Yb6iMjHrMjHh93jMMfkXRH4Nv6OrZcSfdvrDqyKtlrC3xNcHsAu2rbxFuac5k/0fR1Secb+UZjNOvYzPXf8tYIIFv46vGY0hjnvYip3WCzWtWzSrlJbZy1aNWfzYQbT98gWZ2ts0IyThSSN2mxOmPJ1eKUtpldbZy1e6bLxbx//cwfWTPgQG+zqJaS8aE11H4Nhw+fsPOnH9Px9mds8tzG9pK1P8kOHMc4uvJ12viAnLPvO16EnaRfi+JS6tj6/PdP35OTrt7xzspj8G/NZ9BFXM1XZV2rr+S9uXPiBnx6Unbjj8mkag3VGQiigUlsj2OsvXzsqyPRLi5jmR7eJ4Kuq1PWPohwYHi7RCYy8+6x07qJA+rArGeTIuLb6LEtMYaaFj2P4z+Vxz2XfWsqij4oTErcTxr0iUpy4e4iV1X/+8x9XL9UP7utyD+eBwFsT6Km2xnwdS81Fpc/WOXPHnasnfVBqq/WeZ9R+R/gvPGxFUaGOi4UP7XW1FXVm5Q935O28S01lGp4sn8adzW4munaXPd1/uiSOmsOi5soNTtwZwU2aAxuqtzbGZg12TPauoH4AWqt3LeSOOl2j2dfwtvjaRjsMs578xc6jgf9mPdN9kIUQMlgTUGqr9VdXKRq14as/xCYe1aUhOGSvX1uHrI9UTpARUoj83AZhU+gFhJ8y3rbB2Ojdya3EbnfJaSesd7S1gxNNp0VmPqV4dNUWevDTk8lZbvt13knaZf4jimTLk+gJDO+DlWRrpbae3lxCuoVa877yozvxieq0UluZVzgkQIUo58IQBtODDFBeXHz7YEapmLL7UnjVlsHyrlXu49p63h//wao8GkJfXdCCkOJu4mnaJf4j/PxrvCKGbMn2+Wa+29JfOCLqAqNMwScQ6DsCPdXWNJZK49DLM+u5g/aJyRstpbbOvagWoAJmAuaUHae6eSOC0KetqLN6lxt3BF1CzM2kvMzBjkleT7Si7m6XVVe3ivF31e7FXNoxtR+4xhl4lpXrdwebnX2D7Ngqrm7y2c7Ffn5Czi61LOjbkYnTWPvWOY/+L4ZhHwyb/Xu0WPvraVxb5/qpYyigT8EG/6BLw6C2zmGSk3aEUO7f47DBP94i/Kvwn4dh666pMWfsHdk72ipPuH2KFsSJbOjQSZnSsPhEKN0urkj8spF8195bxaBveEBWo5XaGhKg5lrlwabbxBFzU6W2XsmidBih6oQpjJO/KNWRoi5va3v5nBhcFDOR4bFHpDyDayv7PK7vVafZ9K8f4vc299O8aOw0IX7+NV5Rg8MnEOh/Aj3VVn4YNRNDqMXnGy62+yn5NSfqrRzyu4YQkpZXceJqK6mJDhmbXm1F8th/YrCFBRn4t7rr+l4etrZE+d1RdpI1X6GnfuJElWuVFdWPjmg9sDekrZle8WSRV7Ma+6PIxIkrlQ9F64s8Ln3FJ9jg+f7Ed548Y1xbl55XOyktiudw0nVpGNTWpWFqF4tPTMWwrdGEyVJPZwzbeIO6eUAor9fqrTIJ//OAE//ne2J4oN9czhX3u/fvNql+Sp79cx4/pf0mJpK4Y0S9NYy81UAItZWICqPEUmX2iXprDjETVbbWqvN2NBT8fsXLlqE5+KndJmnra7wiswQfQOAdEOhDbdUfjX5tRa3J2TTH24cfItTxYpsrd6rGDOhhcNIHjrFLvEU8fnViRnVixuNv53N7oK1umX54L433Q41HcPq91Hu0kbPxY2zG6TKNk6Zrq0Ynjc2ea2u5tyuGfR2lrk1nH+yteitCSNYm4ZfnXxAkHbxzdUHwCVowL5G8LXn2z3m6fXRGypNHmu+8JrIM/Iq2agSJjGtrtdfFE7RA9uHCkkRi8HzOeIbp2mrMK00nYBsI9C+Bnmrra2oCSzXmrfoDMaCtqE282RmXVFlGnq3jnWMlqt4tjE1c7PtyVTkOofoDi03VVrwm4JKbpDN3Vo1tbKM52WPz5sO31NNHhASHxmND/8fX6NX/2toUuR7DnM6qZvXSiNUfmFoTaAmPwp/Xq0OqujOJcfp3deFCIzKE5JIkZ8apnx8RFQL87nvknceGSL65tjamL2LQl+aql2OgF7cnmqqtr/FKKx7YAQL9SqCn2srbGEfdjiqfZTkwqBrBKzUB/XEY0lbUyfmdh20qu3buNvb5gxz1d7jjwg4utk4opIqAssdCF0ddbVWu2cp8VdiltzIHO97Zn0fd2soamH9l7bqp9RxMv59InvbbSOzj5Wwx5YrswfEZGDbHV10IRUjEcMOw9dRDGo2RiDVYGjUBjXMamz2ft6KKwPlW2PDFR6JzSssKE3w3zRo9zFRtRekpnrQADpdasVt2P4jGCA0iaUgjYlhuCUL1bX0Dfy7j5PZSYmbaxok+SQu9nUUtG5BVZ+7iRUfUkcG8uba2CtYw6G6ZNVR+u0uzgmmmautrvNIgDZtAoJ8J9FRbUxf/krLZt4wZXrRlQww2PemsaiZjVFslhc/wBVjkGqzoRWeU21GiuMfkPSVen72VaTUtYepK7hjPWuqLhtN4ep3/sSNv0q+F5yIfnfPLdvuav2iZrrZ25hTYOfKc9guZxBqspEbyprm99o8V0diclB3Mctalkl2b4zCnxOMPKKk1Cltexlo4BLOyX+J+0o/JOL599nAMG72dp64aIoQ67/1hh33otOUUuQqLV0zaNaqtEgG5BCsMX4NltegPYkFWWJzyMTuxvtVQvRWhjqLQjROsiPWxNvNOMf83zmRtlUvTl/rTP7kUdSo7k5EcPsmX7hAnpJ4/yfPvMa0Z3l8k3sXXYOUkbb/oQWNGXqW0tlUcP8OXbh950yPnPis9ekkQ3TY8OZdK35trK5Kyr5+i+ftvSr0XnHfvRPyFeRy2o6naiox7ReZXFv0DzcpqQaDGvY/RzMNJINALBHqqrffYwhcHdyWMUP7twNG7GoVLo9oq8Lmt55nStGitGkLj09VOXMwxbp/GrBUPUd5+j509f0UszSV24tacUGHt0RW62oqQLIstcF7E+4D4U4KdogYKTpdEcuZAmoMb76PZ8dN35DKz2zSFm2ql5YMSKAAAHMdJREFU/7PlEe/Edwunj7WlDR3rtORHRiq1KELdXJrF+M7ZbsgHhNatCCPtGtVWvLag70U8+3qdtuK22+tE+ZkZeRWNciQ4YI/Z/Jqk9sjolqKhSvDbddakAI9xYRe+45eIqHko3qurLoZ/bUGo5whfum3AOWdONEvcQs3a8Ty8qLj701Vfe/9TducD1tzJvNesPvkW2orkLRXMuFCnII+Rgf5f3M4uFCc5maytxr0iURSfnGZlNfFwvlEycBII9C6Bnmorn60Srd51BEZ7MwKNV78cjM1U11/fbBSL7tXC+epDK9tdcZo/IxYdMARnFgR6rK0aa7DMIoCB6ERVZoSyihAaeMZ9/gjsw9k+QpOqHAORFUJI8M94K6u1F7WKOQMUBYTdjwRAW/sRdm+Z4u8bpiwpDPp45KS533umiKmqZ28ZsKhxatmrraxmeKpWVlhUcBCM+RLogbaabxDgGRAAAkDAzAiAtppZQsAdIAAELIIAaKtFpBGCAAJAwMwIgLaaWULAHSAABCyCAGirRaQRggACQMDMCIC2mllCwB0gAAQsggBoq0WkEYIAAkDAzAiAtppZQsAdIAAELIIAaKtFpBGCAAJAwMwIgLaaWULAHSAABCyCAGirRaQRggACQMDMCIC2mllCwB0gAAQsggBoq0WkEYIAAkDAzAiAtppZQsAdIAAELIIAaKtFpBGCAAJAwMwIgLaaWULAHSAABCyCAGirRaQRggACQMDMCIC2mllCwB0gAAQsggBoq0WkEYIAAkDAzAiAtppZQsAdIAAELIIAaKtFpBGCAAJAwMwIgLaaWULAHSAABCyCAGirRaQRggACQMDMCIC2mllCwB0gAAQsggBoq0WkEYIAAkDAzAiAtppZQsAdIAAELIIAaKtFpBGCAAJAwMwIgLaaWULAHSAABCyCAGirRaQRggACQMDMCIC2mllCwB0gAAQsggBoq0WkEYIAAkDAzAiAtppZQsAdIAAELIIAaKtFpBGCAAJAwMwIgLaaWULAHSAABCyCAGirRaQRggACQMDMCIC2mllCwB0gAAQsggBoq0WkEYIAAkDAzAiAtppZQsAdIAAELIKAqdparXxZRMgQBBAAAkCgzwmAtvY5YjAABIDAACQA2joAkw4hAwEg0OcEQFv7HDEYAAJAYAASAG0dgEmHkIEAEOhzAqCtfY4YDAABIDAACYC2DsCkQ8hAAAj0OYG+0NZ6QWHo3ca3c70j0yf22J2XbzeIefZuz+fk86tM901WfC15+7LQWX8/bjXWSSFKEMQIO401MfVcTz3UM269oPBSZrOeE3AICAwQAn2hrcKzIXYHKt4OYIeAedsjySK/nA3MBcxDApPxVOettbl4lF/ztFam20dUsGNLrpA8Ko/d4bnhSptumzfZf52HWnb1GxCeDZlCf67/HBwFAgOBQD9ra3dLc+WLjlcmVwqZtLFSIutCijZpa4vydMfLlqZ2BUII3+hQIEVnnbhJ2oEfefVFtpF1vKh8+fKV0WXSpieVbR2a3eSdDeLGOp3RdA52yhrqZZSedTXXkY4RLjW2qT15NSjSn862Z6JmSu1UMRpTLt2hOjrq+MkzpyQk1rVIW+WaESCZrJ6fPHNqQlIdAUqlrV14aBruEb3wkcVtHdpjaA2IDHqoBVDXLjmGVhuESG3tltVWNtYp86hpS6cxfkoHPtXaBLeppvAJBMyKQP9pa3v9v7+xx40Jcv2Mae/CC3tIaV1zddi283Zjg2d9Fjh3f+6JZcScTqUU+MbGszk754W6TPaxGX/ZM5uSOzVHvM2mc/k7XVjOs4Lsx7D3cBuIRl1PSvZ+zrRzuOAyiTH285Q0Kd5HVlqw08XfYRbbdWrQsuMi5TF9BxuLtozgRBCnK7O/sPbewiVGrTnnytyfoVQp/UEpnT+Wvs7Bf/Lq+8UIoRYJm4px3kHB4fn65q16h+KnLXBhjhjGdF7A3nFVu8xSkLWWOvVHXAdCuNG1pwS/zAt1dfS1sWP/ldxCEmqv5+4Nn+BwfrYLc5wbL7KsS01OtWXAQz0Ade0iPW0Ibd2b5fF54PRZFyaMDtzIFBMg9TbWmxFkitsq/2EDCJgbgf7SVnmZD9vhm7zydnyK8jyaN+2zpPu4unYX0C9M2PqgAletLlHY9XHWerR1+BcZD1sR6m4XHAm1WZv3Sq0SlxUbR170C1zvWkvurx4TEfwMNyQM5/3kJ26UI9Tdxv2BsTBAilDnrR/PzTlXgwuMrCZ8X8qdGmTgYGvkep9tPNwzaQRnklPwhP89xneeCZaNiUvEZ8eGgsL9GbmSn1lNTKG7H5wKmbClkIwx9PpYMkbNa8HQUAgV8V2np+ZptlVta53CjQ5fdq+gBSGFrIwRYeuWriwXKB75ho/bXPBUSbjy6s1Ji7LKVCOQG4Y81AtQxyX9bYRnQ6xHRngX4Va7X5S6OwYeyOzsSUZMcVs3DNgHAmZEoL+0VeLlEng4V3UfXe8/z/9AJkKo+vSMYHoBBaT76cFxerR1eUgT2eIB32ViUhbVnPrEZcXZU0Ltdif96vtFqPo5mLy15ZlQHL49wHb3I4QURacujP86PUHYin/vyZfeg0gSesUO11NZzHbWH7cKv5uamKlA9Revjf6lTHmnbygo3J/V4dS0EUnOfBZ0vICKvbti/9hX562GhtIRMspf4vMVbVWDEmevsOXF4r81Ei8X5q+3miSSZvxdLdxtd5Vdpz3O6zzUBqjfJZ02wrMhQ38SUvUQJGKwxx2qVFnVbqwXviluq8aDDSBgfgT6S1tFvw2PDFGpH+qK3ur5bZQMIfz4hWoVlzpfNz3aqn5E8+T+knEJfFVzcgPXsrWXVVqGhGdCpp54gZCiIT3LfW3YNCf2yo28PRvOW7uX4z2aqiMP/btkqu/o6VcPhotriBKk3oPPBMs+TUiXifZOjonvaA5ffeF0ScfN7xnEZJZwXl9QuD9qn5UxajRTxagZhiE++oWM7PmKtqqNSgu/sY7mdSOlk4wpbuwFC1RvTlCppmmijWZ2VB4aAKhlV38b4dmQT4+IVWZaOTesfyhp60FGRL8Nf63bquFhAwiYH4H+0tYab5fAf3KouRuq9yPnrbWM2cx9fFwD8Fdr2S+j31BbnU5VUaN33dnFWMluRujFSUffTZeleB0CoeoLkaS2KncRkjcKH/4yjflnOmUdP65zsN5vbvCJ4OTpW4tfIvTUP3wxQ+BuH3WNrHwaCkpHWyWezqxD2ZR3MtFe+1fnrYaGep22TkvNpcLREnS1tko8nc+fekg2MvBhyEMDAIv4rmq7+tsIz4bYbi1W/dwJz4Y6/FPZk4yY4raBaOAwEDAHAn2lrX8+6e6WU2+FAike+V50+CpbiC/R7K6M4jk6pxAPpcTsq2Pm3rmeLxVXPOfsjZhk94baajvpZuRTvIj6Mo+/zO5KGD5nEh+bzHRPwFcDKKRij8XnlNoqjfyOvTumpRsheXPlkZnEEyq9B/H8CM+EjBnjv+aSUiUe8F3sfO03FOAVWvxlKCgdbZWXnAkb+1VOKX6HLBP6Xxsz9FVtNTSUUW2tEHw+lMOuJibe2kbV2iovZ4R/+n1+OU5eXp+ctGp1Vr7u0yxDHuoFiJCWXf1tcG0deZGeg/+uySoebp8YdEjQ1ZOMGHS7Mb+QxatVVRvIVMAHEDA3An2krdY2XjaqN3Fz2iGNOXB5gn2A0xS/sfNuRQipaqeiLZ+dsGlZ2OwlUf/EinzJtZ8qpVBtKMkZrgms88zfMytgqhNz9LiLf96SKkdXvIi5PcfO51PnEJf50T5/k/PWupS737ixJjkFO4z0X/B7sUgpNHoP4ibz05ysLzKJUqFCfHiip2YlF+kPSttnfD5eE7kz1M6O5TSZtehYwRlyLYT2taB/KKPaqngZfzDCcbT3erweom1Ura0IdUhv/RUxeSzrM8eAKfOuH09o0pyok07o91A/QKRlV38b4dkQ1+MFvisDJzkF2o8O/j74hbJkrr+xfvj63VbkHQ8etVwg0oYHe0DA7Aj0hbYaCVLR0SaplxETLbKZXNai/nuj5/SpIWep1fBGxtE+RclKd2d9dYvOMlB5e9uL6vZX1rwq2uqb63SaIr0HtU3p29MTlL5mXc0t1dIurdhfaWbiUJr95B2dRletUm1l7TUNnVRhgjqo/anXQwMAkaZdQ22QoqtJ0txE/YwS1gw0NgBfj9vybj0/DtqRwB4QeOcE+llbX4236jJn8oqUf+9LhLnll/6KGO96N0/3jvXVTjpHKG3VOQy7QAAIAIF3ReCdaytStOayk3duvLJy9fWfDuXce/EGcxJFXjDPN117dvSugIJdIAAEgABC6N1rK6QBCAABIGB5BEBbLS+nEBEQAALvngBo67vPAXgABICA5REAbbW8nEJEQAAIvHsCoK3vPgfgARAAApZHALTV8nIKEQEBIPDuCYC2vvscgAdAAAhYHgHQVsvLKUQEBIDAuycA2vrucwAeAAEgYHkETNVWy4scIgICQAAI9B0B0Na+YwsjAwEgMHAJgLYO3NxD5EAACPQdAdDWvmMLIwMBIDBwCYC2DtzcQ+RAAAj0HQHQ1r5jCyMDASAwcAmAtg7c3EPkQAAI9B0B0Na+YwsjAwEgMHAJgLYO3NxD5EAACPQdAdDWvmMLIwMBIDBwCfS3tnY0tklajf9rowMoGR0NLyQtb/APhA0gRBAqEHhPCfSvtorKnJ24gxbkJXe8p7h61W2hj7MVNmiUe3J7rw4LgwEBIGAGBPpXW59XrFvMG7axJKfH/0z2a1DV5Io8Q8Sl8tc06+lpmTjBY8v8CcM+/shmjOuGQ1GlLToj1KSHeXpGv6Hdp5fX2dOGuZ7M6dQZFXbfmEB1wlTGqd2iN+4PHYFAbxHoX23tLa9fGac4OAlzFET37u11a+afkz4YNGLez6f8mZ57V4yzwkZs4FRp2S72cMKwzdG9/VOhZQN2ekAAtLUHsKBpnxIAbTWIt5237b/Y2H38NqKFvII5dxDm7Fmq2QG0VZOGGWyDtppBEsAFJYEeaGsVh4858kOF1UfdE0e63hq7IeNwaotMxbFetNSRu/RaQ7xP+pR5PNslSWu8xSJVXbW4aLwjF5sWjb8dee4Zqm4Iyev2LeJ+uOfZS41jInYq5pgWVE0eahGJj+5NnbgghuZ22+nH3IDcdnKGKiyZqBqWGJz475dClQR2SSRef6V9Oof3kWv8jJ8L2EUyEx+lSUKWY9jqiEaVW7UFMTd4eRJ8v/DEREzfy8mDtFsTthTDlgbnxB9aNWXEENsxTmsO/itS1VXzjo5X9/7IPVFlAt+oOo93DcmPP7hiyvAhQ8c7f3XijlizbNAivLJn+fTRNtZ2Lt8yBSmHxmPWOkNojafeeRnGodM42Q+fJG0M9xoV4DP3ZmJ8o+acW1ZelrT1ir8D08M+hLX6TlZmi0aVRdGYdj/q8zCvkb70oXjfhJt1Gl4ZPNt+jUsfn/IM96Itey2Dbp/0BN9WCN39vf8SE851V4pSf7zia+9/amQQ88uE7DwVKYRqC8NpjPDQqtJjN5hjmWcmXYw4XNqgcb6j+AFvFRsPZ1GsoKAycdorNYHa+N3Thw6xW8IoUF+taiiwBQT6hkBPtTVl8c8pmxhlTHbR9xtisGlJHuWUUim1ddbW9Dl/PGRElB3Zn2ztyJ3BkpIi2FDPiRKFRYnCfO/Z6mgrUtz1iMNmCqLVX5i2gC1cbHO58guJkPT5lgVc2prMv0IfB14q/mlTLPZZqp9IabehPiLyMSvy8WH3OMwxeVcEvo2/Y+ulBK/2ugOroq2W8PcElwewi7ZtvIU5p/kTfV8HVJ6xfxRms479TFN9yE61gggW/jq8ZjSGOe9iKndYLNa1bNKuUltnLVo1Z/NhBtP3yBZna2zQjJOFJI3abE6Y8nV4pS2mV1tnLV7psvFvH/9zB9ZM+BAb7OolpLxoTXUfg2HD5+w86cf0/H2Z2zy3MT3S1gj2hgjOcUEWkx81N4A+5GJaCaWf9Y+iHBgeLtEJjLz7rHTuokD6sCsZqvw+yQ8dxji78Hba+YKcsOw7X4eepF2I41PqauRs9t1ztJsFzQghcZxDkNc4jgD/eXqZuZRxka2sX8uqE10YJ8ZeiT6Tk+V395oLkz7qRr6q9qLU1vNf3LjwAz89KDtxx+XTNAbrjIR0ulnEdWCc/JQT45WTyUgOX3KdPf0VbU3cPcTK6j//+Y+rl+oH93W5h/NA4K0J9FRbY76Opeai0mfrnLnjztWTPii11XrPM2q/I/wXHraiqFDHxcKH9rraijqz8oc78nbepcqlDU+WT+POZuNfR4RQd9nT/adL4qg5LGqu3ODEnRHcpDmwoXprY2zWYMdk7wrqB6C1etdC7qjTNZp9DW+Lr220wzDryV/sPBr4b9Yz3QdZCCGDNQGltlp/dZWiURu++kNs4lFdGoJD9vq1dcj6SOUEGSGFyM9tEDaFXkD4KeNtG4yN3p3cSux2l5x2wnqkrcxr16lAGkqujGAwjr4ghpIXF98+mFFKTiUReim8astgedcSZzs40XRaZOZTYg+hrtpCD356MnmzYexs/YOLNHZaCUL1Dy7a8zjrWHH3cJ2NHUtsIFn0rZO00AQB9eNRV3LlE4b/KSrfSm09vbmEDBi15n3lR3fiE9rbyY05QQu5IyCvHHnp/aAhr2hrS7bPN/Pdlv7CEVEXGBUEfAKBviPQU21NY1HXPEIvz6znDtonJm+0lNo69yL1vUWogJmAOWXHUbMiMgZ92oo6q3e5cUfQJcTXS8rLHOyY5KW8dVRF3t0uq65uFePvqt2LubRjaj9wjTPwLCvX7w42O/sG2bFVXN3ks52L/fyEnF2qRje0IROnsfatcx79XwzDPhg2+/dosfbX07i2zvVTx1BAn4IN/kGXhkFtncMkJ+0Iody/x2GDf7xF+FjhPw/D1l1TY87YO7JH2nr1vko9UcPdOYwT21RTYtyCvK3t5fOXjeKXjWJRzESGxx7ymbs84fYpWhAnsqFDJ6FKt4yeFceO8bsZL0dZqV7LcvP/ZIWHNSPpw0s0jkCZQ4nXRfrQOI21Fk0ZSxgnvheSU2KltoYEqDNW5cGm25Dt6/wi6LToB2RJXDk1HveKthpKLhwHAn1JoKfayg+jZmIItfh8w8V2PyW/5kS9laO+zKXlVZy42kpqykhGoVdbkTz2nxhsYUEG/r3tur6Xh60tEarCljVfoad+4kSVa5UV1Y+OqG4a8XaGtDXTK54s8mpWY38UmThxpVxQtL7I49JXfIINnu+vtb7HuLYuPa92UloUz+Gk69IwqK1Lw9QuFp+YimFbowlnSj2dMWzjDermAaG8ntZbc8iZKEKo8d5CBn1TMfnr2NFQ8Pv/t3M+ME1ccRy/LMTGZKFTg1EMI6hRl+BmozWDOFDRgLrJgptOSRjqJpqxaZyLRlyUOcofFcErHNRKoEMRKBhoQeRPQWkFbPnrHyr/dcTZoRQj/ila33LXO+6K7UkdWlIeaXJHX+/e+33e9cu77+93ZJ90QaM/Eg6/6Homg065NgV/f6YoaYU0e3f1tepH9B8attbH19aj6acfDZ69cGxft16cG3/wLmhWCd3LTSjvHjkj+JjcJ2IcVAehgqBm8roy+a0Z5E0M7tq2drXk9+qJ6wrXZW5RK7XkBQDmsqhrFm7tTeAdaqvl0CxrK3hSqeHySiNvAPD83o/LChcx1ik3xAon3sU1CV1y5f2KmvsVNZ3f+xXaoK2+tUn4UYzXDUYKzvIoLb47IA12RpYea2M0jl5bGQcxdm3X1vaEZQiyJZ/2pjWHbPNbpda09f7JzGiuSBLZ0lrR3VHV3VHVJJ1vvgY0PNUp25vS1IpDZTmrxNFcsbyCkR2y3tqxL+VkxN93Dp9JFw28qiyPDWrWy4qj1zWY0oS2aisDH4DayqQB98cVAVu19Q2ewDrGutVynFa0FTztDfXCJdVQ0+jCK/uzdfjoQTSkENnWTt/IgocRAaPVVtwT8G5QjFg7D5+bbedxZVxoaGQxvXwEQH14PjJ9r5Jx1PvX1kfnNyEI/8Twql6fFeT0fz0BYvk5cNUfFVB6R4R4r9TTXFsZgQOjTuGFxv7cYckhACNa+1OyBcGaqxsxeeUr0K0Rz1Go0XNxv5IpxdF4AriNYOmnTwg9AUtc4HvjgICt2ioPLqFuR4lc1gKU8ghe8wQsR2dNW8GQ9Dc5EtKWm1iKrL1eT6vh87RdhchGrZb6Ehs6td68kdpK1GzVvi7s+uLaSbyyg43UzauhH/u9LrzALA9meZzAeGXfLMT5K0kvNRTD9ailCLJcSBuhAHShvgiySUq7n9TJTDVYDE+AajDf2r5uBT0iPw4yM+APWf3ttpZyYcgX7jNs0lYsN59KCxG5LGGUybh4ot6ACnxr/6U4v7xdJ+bS2qrPKkr1LdfSEtevXIHGhN0mLXLWVmNZaax3fuZnRCrsReeF6Xk5oSnDFqpBjueyysxzWVgsmcoja7CsaOtQgXkuq+2aiDFmc9bwN0jgvRKwVVsvB/xSFSpsw/66uf27ImSJ4kQnJT2s2qpruYsXYJE1WDL/48R+fldJJ22V6YtrOYvLF31dOCe+j/qC4yzu5CmdefKFe1oSz3ckJml8tyj9vxyprUP1zR48Of+gFjPVYCkGyJvmZ30HAmXI8qpdWHvq2dbw0BKEXxF1nZJaVtTGttTVUxDO7DW7Y5IwNCrMZyaCuIfJabcSADCkOuCBTOZvjyWrsOS3yH5ZtVWnJkuwMvAaLI7/AVNBVkYJkQw31bda81sBeH4zPfgTjqk+dtrKWGzvPJu0NVuyOUsq0JA1WFPPKrXkDOolebHc5OSQyypxoyr6UtpKqYRHa6uxSYVNRRPWV1TjNVj1irDMOC52PofUWvZW0KFOdUs55lbajs/rw2rf1BOzk2Xl1JVj0Cl8hNHzcvAarGSldBkmcC9opqSVXVvB466CBWiMp7Q4oaEOrcoMyE37lB4zNb0G2Q4uh7NKxLj3oZrgFhJ4VwRs1VaVRHvvUHi5K/HswNFqhnHJqq3qU6UWckqLZWYewsCdIH4hwivZz1i14nEbn6kkGr/Ai1zvi54/1Kdr+44GjtRWAAx1ErWXv9zJ9CjBT139FLEXOt3xiCsLfOUf+lxasqsB0zxlCjf1KcvbwQ559NbVS+a6cKfP5a/ZiV6miiLoj+vr0K1eHlOcTFoXmEH2y6qtuLdg6ceU+3qTtuJ9P3vQ1VRb09gzYATqiNnItD0KekTW94hnB/IbWjrLNkni3fD6f0UZIx9lHOzBStL5p+NmiZLXl2paehV8pk69eFCkzF2VHu8qFLikJHpJZam9g5Q8AsDaamiXTkMFq9VEsv/lzR1CAfecipEUfNnbfWVnttAjOcaVeHagmbaT36CtAJDPDrhhiSvlNeoeS/9P4FbMYg7HM7LJOhnYAgmMOQFbtVUpGRatMR8LPOFbEBjI+XYS8jntv7KdgtDWvIYHbJ9xwLZB6ebJHJfwEuo5BwcMEYY0DgnYrK2MGqxxGM7EGNI/tVmEi5AuOr7bzxWZ7HNKOyqXw/TMK6NOYGLgUh+Zz+F8k2lm5kyMyGGU9iQAtdWe9N+yb+X+GYSl8IHzrIUrtsVX9dKmNesZJ6a29kmCOJyl8cOVFayIYCMkMFYEbNDWseoSngcSgAQgAYcnALXV4acYBggJQAJ2IAC11Q7QYZeQACTg8ASgtjr8FMMAIQFIwA4EoLbaATrsEhKABByeANRWh59iGCAkAAnYgQDUVjtAh11CApCAwxOA2urwUwwDhAQgATsQgNpqB+iwS0gAEnB4AlBbHX6KYYCQACRgBwL/ATupBTLwhLHfAAAAAElFTkSuQmCC;" parent="1" vertex="1">
          <mxGeometry x="590" y="1930" width="364" height="258.07" as="geometry" />
        </mxCell>
        <mxCell id="QVa-zLG6aqoEDmhBlNKH-71" style="edgeStyle=orthogonalEdgeStyle;rounded=0;orthogonalLoop=1;jettySize=auto;html=1;entryX=0.484;entryY=-0.004;entryDx=0;entryDy=0;entryPerimeter=0;fontFamily=Helvetica;fontSize=16;fontColor=default;" parent="1" source="QVa-zLG6aqoEDmhBlNKH-68" target="QVa-zLG6aqoEDmhBlNKH-70" edge="1">
          <mxGeometry relative="1" as="geometry" />
        </mxCell>
        <mxCell id="QVa-zLG6aqoEDmhBlNKH-73" value="&lt;font style=&quot;font-size: 32px;&quot;&gt;配置绑定&lt;/font&gt;" style="rounded=0;whiteSpace=wrap;html=1;strokeColor=#d6b656;align=center;verticalAlign=middle;fontFamily=Helvetica;fontSize=16;fillColor=#fff2cc;" parent="1" vertex="1">
          <mxGeometry x="40" y="2140" width="220" height="60" as="geometry" />
        </mxCell>
        <mxCell id="QVa-zLG6aqoEDmhBlNKH-76" value="" style="group" parent="1" vertex="1" connectable="0">
          <mxGeometry x="1060" y="1894" width="370" height="80" as="geometry" />
        </mxCell>
        <mxCell id="QVa-zLG6aqoEDmhBlNKH-74" value="JdbcConnectionDetails" style="rounded=0;whiteSpace=wrap;strokeColor=#6c8ebf;align=left;verticalAlign=top;fontFamily=Helvetica;fontSize=16;fontColor=default;fillColor=#dae8fc;" parent="QVa-zLG6aqoEDmhBlNKH-76" vertex="1">
          <mxGeometry width="370" height="80" as="geometry" />
        </mxCell>
        <mxCell id="QVa-zLG6aqoEDmhBlNKH-75" value="" style="shape=image;verticalLabelPosition=bottom;labelBackgroundColor=default;verticalAlign=top;aspect=fixed;imageAspect=0;image=data:image/png,iVBORw0KGgoAAAANSUhEUgAAAVEAAAAgCAIAAAAkHdzFAAAPaElEQVR4Ae1bCVBT1xo+k2FMGRjSwMAoDDggU8XBhVEoOG6IjkVc6lIV6VjUCi5Y6qutPosLgpdFBSUhISJKkCpLBG3AB7KoEBFkk1QFXFAxVRFFraCkiPfN3ZILIScBFR24mYy5l3vO//3/d853lv9cAcp8GAYYBgYTA2AwBcvEyjDAMIAymmc6AcPA4GKA0fzgam8mWoYBRvNMH2AYGFwMMJofXO3NRMswwGie6QN6MdDe8rCp9a1eRZlCUAY6nr9qbX0HLfJxHzKa/7j8DhDrdTFubMCyCTz/ZoAE9MnCuFkeb84LG5V/59MxqVvzjxK8APlhm9qM99oYU/Soo1eUPSkRR0VJ6zt7VQkrrFTkR67xcBhqYmw2YvLyXRn1rb020b8VaFwBwDazd5619kC+Qtm/TvQJTUcb3T+x1I4zdHJ45b99sj6YKrWWymW8W0+09fbG66mOwgMelxWfjkk9NT/OL1YsToyP2eM32QKwHAIvPO9FM96IdAbAV9q7gQJF20r/O8aAZTljU4RAGPXbgq/YwHK55FEvcPu/KK55nCuxWJwQi2yYPhQA65WnmvrflV4i9rGNeokyGIo3RScjnOza3vb2fqRGT817iZ+QTrVXhzoBMFN4X38n+9af3mStNQL2W2WvCaDOe0J3FnCLqtcft/9L4ppXc4WiyspgJwCcP2+vMZ761kb9z/DnjzgANY+i1btGAsN1Z1VZiNb6P0NWTne0MeVYfOXsFRBX8phM9cjDHKldQZdf50iVcLXWRdGmY/MAWHTyhaqVm2uyM7Oq1VOmsjEvYrX7KAtjQ4610/zAY5Xqtcc9wQwAFqe8VNW9ETYegB+l5P0TsRcAXkcqc3ctHGfJNR/hvDjodANtf9XZclW8ZdGk0ZZcM7sJs9ZG599vV1lC0Y6HRdF+M0cPNTY2tXVZuCWp6rmKCg3No2jRFjNgsDEXr68LFxIRYTlRXhCyZKKVqbm965Lgs/fomwaIVygEV2cbVYeMVDeecWABjQj8EoaLdirOH1gzw9GaYwAMze1dv9uRUUcO4d3NdL//RyxBOJKKa3cLfY5H28TFuJ8pyH2hnjub5cc5vOOJj+pDM4X2wv1jkk8G17fQWvDtg4aL61L5doIIq3jhd/kV1epnOiyjaOejRllAeqydIMImQbS8sOrqG1X7ohDcayUCDi/sS363LzK1lJwua2R8qgDCEWRd6B4yDBd996LoSsYccbQVH7HA2Mg/87T75qA5d/NEC66tJ6+G3i+6o6CoHu/hafTjO1FuAPhISBk8zV5jAzhO3juiRYcFyIZplsDIPbYeV31z+UkR9glePBwAtwAhfiMSidIrSHVC6qJo5+XtNsBsaVKjuqXp/iurg51YLEv3gPBY4aGdPk4cYLrwxEOyhD6anzJ74XTfYJ6Qv2eNmylguYTLyaFKWR3qzAacCSt3HhIKIgJnDzdgOfxygRp72sp+H2fAtp/3yz5BHC9k7WQLYDJDQMSLohpcoU3iBQAM33EFdwzXHgQXEhFueco3C6es3B0j5IWsdjUDLOfI6xQ3UK8IzfeMq7ONmiskYvwT/K050NA8HLfhsIcRGDp1Q4TomDiBH7TYYQgY8VuxXqrHlXkyaflJyd7yMqEswz0O4SYX1VK7ZFx7CfMzj/rJSuIrCtaf2MfhifY3kY+Vjwsm8cLsU6X7K8tii9MnCRGbzKvUrlCH5ba/z7nyw8eeOnuwskwoy/QQIZZppbco1UNwnz6sSai+klBdsOIIwjkhjceuse+pR2TATx/Jk+WVyfJKJHO/pubhuHevJg7lHZh1riihplJckbciMZxzNEfWVfUFm7ls9hdffDE5WjWl0gWjvu712h5Fu2j+7bWU7VsjchSUxZeS5Wzgsq+Wusd+ta0bddVVpPvYAmA6dv7GkMOnyxq7JPDaTq9iA4cdV6gJuDl9KReMCb1K4OqjeVPvtGekl83HFxkCxxA5fvsm298YDPPLolYNyqu7xwPWspRX+NMX6SuGgEkHb1GnVq0FAcOBzVYZYQlXpsfBGgX2uV9ffgaZYwVYY3eRqS9c89pw4RHhlk1XpFNbrGfpS03AVzvLCVy4V4TmteESFrS1EfEU+7d8l52G5uG4r9K8AZgquEfZ6LghQUJ4+aq+Qv29p19cmcL0U1Sjt9SmWvJ4IdSgjmtvn29tG1m3rdo7FnGWEbpWSs+GcxLzy6kB8WltqjVPEPGYKAu3/OZUVjjnhOw2JfLWu1IH3sGgByQOFJcoo3ttXyk7pKF5OG67RIpwUkpV++mOZnmkrOT8P6RXxE9rRcz3HtO8fpI0UJ2zy2P1zftqnrD09nXLY7yfKxS5m+0A56d8NYJ2zeuuq1QUibYudRtuBAAwGDr1V6mCCgfro4b+udS4j6IPYt0By0dCjKn6aN499q7KyRpkHBjil4Nba+BN67ovQB/X5J2T3SI0X7VnNDD3zySDVSgUtTFzAFiYRIwQuDLVS2EAWJbuv5y6SS0scc1rw4VHhFueIVLr5db+rwHrhwxiGQf3itC8NlyChL5pHo7bkbvRGFj5Jt9+pW4mFeU6LnBlpl1Rx9tSPJ0XtraO1DGuvWNx1LiMoo8ikxCzHOJsCFOdBXmNw7y87MkLW11HTItwy4qwRMQ257rinxfkt/nSQh6y/C9yrobiEiH1TfNw3M78cxGceElKS3vvmdQk+r013347NXC6NZve0YFxwDk6ktb+pEdd3M67tofVfyILrMEQD0EDYbn0dztgGnhRDfMEO1L0SiDmQX0075VArfZQ9Pn1XImk5AE+uNfjW5dMagGhRsCvMFzND4WLK9N1W2ZBQUFB4cVSeUPza3ojEftqLbjwiHDL9OzgvZipACxLIeZBuFfkfl4LLhGg1jZSxd/TPK8DVyk/OMMcAMAyHjbadfbS9TsPX2jUsdek4HBlSiqbqXv0xaVZPGTlDbI6rr3jYmIcxsq8rm2QZyiIzErj7gTEJp/sKNjD1vJFPGRRDcEV3HLj7oRuG/KwL/mquuR+Xgsu4WvfNK8DV9kkmxOHOTbscKy7JDWw+ErxS2r6U1Gk78V7av7dtUgXA2DpGSTOysM6ekHB4R+s9dS8XnVpcbyQ+JgAl3038T/BFdJbzdNQUN2at/COJWJV/Vv5gOiLGsqkG0Y1tUd/DI9Iw7KG5rV7BcclfOi75iG42CsWz+qKpX8cjg7ZGuA9xcYA2PyU13VFSqeAdg1Xpqb2aFXR99Q8Yie9fOHubfq3+iV9fUEfa+i4xHWfNQ/DxZh83SS7dfVoeWFQXtrMI2GcI1kFeo6f3X3sg+bpefv72ELYQ6hegqHlv9vpqXl43VfnI319g89S+1fM7/JdI4HFf4itM9ZHta/tmxLnAzAnUZ3jrwgaAUxVSWeN+ZbOCr62p58XvFNcOZ2Zf4M4BMBWs5xNhdR2j14R7SmH16UAFBceEa556Npeu1cfT/NwNrrEjqJo51+h44Ghf7Y+E5S2FThZV2Oep2P1bW1PWMbW2FZ5d7S0L3ysIXzom+Z14NLDw5hsKnTjRWy6TV9EdisCue215turQ2jn881H5wLgElFHgSvr9k8C3TWPq2iZhErHUN7A63YWbbECJvOSFBT9yr/2ugAwnd+I1287s5oNHILKqCU4nsMbu7eGNC7bOgyY+Wa2ELdv6w64Yu8UEFV1zLdEDm+tOodXtXMsMFieSrj/PM17CBi1/TKVfFZWCf18Ao7XEUAaszHpDvkD1Tw8Itwy10dCLXbxHN6o3RWEZbhX+mheSxvR/O9pbQ/HbTzu6+zyc7Z6Xr99wA0MWXVan+kJ17wwPYNK0uE5PP5eajsG1bwyC8vh5XXN4QkjyBkAbvm1RBrOSTxXRqXElY9LA7KkJ5+SREBxiTLPhCkI5095995OY7KnHB4c9/nJbNG0/Dr1VqZF5s4L96+nspQ043pc6ql54t0y9Xt456nsyf1j80yA0Zil2w/FxR3as27aJM/Zo7pr/t9L22yBofOaCPK0LusGkdSC1+28KZrFBWw7z8DwWCFvr//UYQAM98+iOr2yJtTZgGU1Azuri9n1/QQOMFuSSqZmUbTzDt/DCHC/XhPKF0b9NnfEEGCz9n+Uzzo0oKwOcWYDLnZWFyeMCPzG1oDl8OtF6qy/7fK2MQZg6NT1SKxIEBbgbg3YE/ZWkEPP+2gehUaEW57+zaLJ+PFiyBpXM2Dw9YFaasqEeqUjXryXaGujpnLyqE6MndWxZ28jDu7EOUTKHIrbURU61gAMn715P3ZWJwhZ5cIF3O9UB6rQ3okrMzXJ+6QEqSDP6kz/kNVREwBce8qmwqn8sK/SsLM6gUwyWYgMP1NDLfp0WG5T5LrwEbuUM5GVV0QlUs94xPz4+SpKXHBcPKK3ly8c4sSK1peWEmd1Z5uJ8aO1sg47qCPP6mKTduDXyfJ6IrcIxe28ekloyjs4v6AYO6urLPRPjuQIU9LUYwCOrJT6cdjsmYdpq+4eOdZT80Tais21GT9nQ9f37TubLvH8PRytOJxhjrM3JtaUhDh21zyKPi/jrXKz5RoQZhaIyflXV93W21lhq2ZNtDfnWNg7e67jXezy6vq/D/IjVruPNDdim1g5zf85sVqlaSzSzmeV8YFznUeYc60cp63Yk9VAzcyojnkeq9tSnbhloZvDMK6ZrZPmOzl/n9//o8coCyNjc7uJczcJZQ+pVU4P5/NdSIfO8yiKQiLCNT8/qSYn6Nvxllzs/ZaQnC75sA7tXumjeW1thO2nevqoMqAwXLT9tnTPiimjLU0MANvMdrxngKDkCSXbLsxo3ODKzKiS38lblhRljb2FUphHy1rp0t5bxd2idal8W0G4Jf5OTg11dIKiOiyjaOfDe8Ub0rD3eWwT4hbnlV56pXZZFy4ex5tG4dn40cIw/A0cZKmcWKsoQo9pZgfDvuSrsgMwXLTjabYsfWZilCUfMY875CaRihQa/zfvRvgENtsxmDyv1qBU9QfdmlcVZS4+IQO45ucmUaucT+hJ/0DjyjxVRa2pPyDox7P8AZ3si6lWibch2zwgh9qWaLXBaF4rNZ/VAx27hs/K1w/hDK5M+lndhzCK2/h4lj+Yi30zVL57JJu9JFn3tMBovm8E93ctRvMfivGBqvnmpEVstksUmU2GscVoHsYO84xhYOAxwGh+4LUpExHDAIwBRvMwdphnDAMDjwFG8wOvTZmIGAZgDDCah7HDPGMYGHgMMJofeG3KRMQwAGOA0TyMHeYZw8DAY4DR/MBrUyYihgEYA/8H9fxo7xN20NkAAAAASUVORK5CYII=;" parent="QVa-zLG6aqoEDmhBlNKH-76" vertex="1">
          <mxGeometry x="23" y="40" width="337" height="32" as="geometry" />
        </mxCell>
        <mxCell id="QVa-zLG6aqoEDmhBlNKH-98" style="edgeStyle=orthogonalEdgeStyle;rounded=0;orthogonalLoop=1;jettySize=auto;html=1;entryX=1;entryY=0.25;entryDx=0;entryDy=0;fontFamily=Helvetica;fontSize=16;fontColor=default;" parent="1" source="QVa-zLG6aqoEDmhBlNKH-77" target="QVa-zLG6aqoEDmhBlNKH-72" edge="1">
          <mxGeometry relative="1" as="geometry" />
        </mxCell>
        <mxCell id="QVa-zLG6aqoEDmhBlNKH-99" value="属性来源" style="edgeLabel;html=1;align=center;verticalAlign=middle;resizable=0;points=[];rounded=0;strokeColor=#6c8ebf;fontFamily=Helvetica;fontSize=16;fontColor=default;fillColor=#dae8fc;" parent="QVa-zLG6aqoEDmhBlNKH-98" vertex="1" connectable="0">
          <mxGeometry x="-0.1579" y="5" relative="1" as="geometry">
            <mxPoint as="offset" />
          </mxGeometry>
        </mxCell>
        <mxCell id="QVa-zLG6aqoEDmhBlNKH-77" value="放组件HikariDataSource" style="rounded=0;whiteSpace=wrap;strokeColor=#d6b656;align=center;verticalAlign=middle;fontFamily=Helvetica;fontSize=32;fillColor=#fff2cc;" parent="1" vertex="1">
          <mxGeometry x="1334" y="1790" width="320" height="84" as="geometry" />
        </mxCell>
        <mxCell id="QVa-zLG6aqoEDmhBlNKH-79" style="edgeStyle=orthogonalEdgeStyle;rounded=0;orthogonalLoop=1;jettySize=auto;html=1;fontFamily=Helvetica;fontSize=16;fontColor=default;" parent="1" source="QVa-zLG6aqoEDmhBlNKH-78" target="QVa-zLG6aqoEDmhBlNKH-77" edge="1">
          <mxGeometry relative="1" as="geometry" />
        </mxCell>
        <mxCell id="QVa-zLG6aqoEDmhBlNKH-78" value="" style="shape=image;verticalLabelPosition=bottom;labelBackgroundColor=default;verticalAlign=top;aspect=fixed;imageAspect=0;image=data:image/png,iVBORw0KGgoAAAANSUhEUgAAAVEAAAAgCAIAAAAkHdzFAAAPaElEQVR4Ae1bCVBT1xo+k2FMGRjSwMAoDDggU8XBhVEoOG6IjkVc6lIV6VjUCi5Y6qutPosLgpdFBSUhISJKkCpLBG3AB7KoEBFkk1QFXFAxVRFFraCkiPfN3ZILIScBFR24mYy5l3vO//3/d853lv9cAcp8GAYYBgYTA2AwBcvEyjDAMIAymmc6AcPA4GKA0fzgam8mWoYBRvNMH2AYGFwMMJofXO3NRMswwGie6QN6MdDe8rCp9a1eRZlCUAY6nr9qbX0HLfJxHzKa/7j8DhDrdTFubMCyCTz/ZoAE9MnCuFkeb84LG5V/59MxqVvzjxK8APlhm9qM99oYU/Soo1eUPSkRR0VJ6zt7VQkrrFTkR67xcBhqYmw2YvLyXRn1rb020b8VaFwBwDazd5619kC+Qtm/TvQJTUcb3T+x1I4zdHJ45b99sj6YKrWWymW8W0+09fbG66mOwgMelxWfjkk9NT/OL1YsToyP2eM32QKwHAIvPO9FM96IdAbAV9q7gQJF20r/O8aAZTljU4RAGPXbgq/YwHK55FEvcPu/KK55nCuxWJwQi2yYPhQA65WnmvrflV4i9rGNeokyGIo3RScjnOza3vb2fqRGT817iZ+QTrVXhzoBMFN4X38n+9af3mStNQL2W2WvCaDOe0J3FnCLqtcft/9L4ppXc4WiyspgJwCcP2+vMZ761kb9z/DnjzgANY+i1btGAsN1Z1VZiNb6P0NWTne0MeVYfOXsFRBX8phM9cjDHKldQZdf50iVcLXWRdGmY/MAWHTyhaqVm2uyM7Oq1VOmsjEvYrX7KAtjQ4610/zAY5Xqtcc9wQwAFqe8VNW9ETYegB+l5P0TsRcAXkcqc3ctHGfJNR/hvDjodANtf9XZclW8ZdGk0ZZcM7sJs9ZG599vV1lC0Y6HRdF+M0cPNTY2tXVZuCWp6rmKCg3No2jRFjNgsDEXr68LFxIRYTlRXhCyZKKVqbm965Lgs/fomwaIVygEV2cbVYeMVDeecWABjQj8EoaLdirOH1gzw9GaYwAMze1dv9uRUUcO4d3NdL//RyxBOJKKa3cLfY5H28TFuJ8pyH2hnjub5cc5vOOJj+pDM4X2wv1jkk8G17fQWvDtg4aL61L5doIIq3jhd/kV1epnOiyjaOejRllAeqydIMImQbS8sOrqG1X7ohDcayUCDi/sS363LzK1lJwua2R8qgDCEWRd6B4yDBd996LoSsYccbQVH7HA2Mg/87T75qA5d/NEC66tJ6+G3i+6o6CoHu/hafTjO1FuAPhISBk8zV5jAzhO3juiRYcFyIZplsDIPbYeV31z+UkR9glePBwAtwAhfiMSidIrSHVC6qJo5+XtNsBsaVKjuqXp/iurg51YLEv3gPBY4aGdPk4cYLrwxEOyhD6anzJ74XTfYJ6Qv2eNmylguYTLyaFKWR3qzAacCSt3HhIKIgJnDzdgOfxygRp72sp+H2fAtp/3yz5BHC9k7WQLYDJDQMSLohpcoU3iBQAM33EFdwzXHgQXEhFueco3C6es3B0j5IWsdjUDLOfI6xQ3UK8IzfeMq7ONmiskYvwT/K050NA8HLfhsIcRGDp1Q4TomDiBH7TYYQgY8VuxXqrHlXkyaflJyd7yMqEswz0O4SYX1VK7ZFx7CfMzj/rJSuIrCtaf2MfhifY3kY+Vjwsm8cLsU6X7K8tii9MnCRGbzKvUrlCH5ba/z7nyw8eeOnuwskwoy/QQIZZppbco1UNwnz6sSai+klBdsOIIwjkhjceuse+pR2TATx/Jk+WVyfJKJHO/pubhuHevJg7lHZh1riihplJckbciMZxzNEfWVfUFm7ls9hdffDE5WjWl0gWjvu712h5Fu2j+7bWU7VsjchSUxZeS5Wzgsq+Wusd+ta0bddVVpPvYAmA6dv7GkMOnyxq7JPDaTq9iA4cdV6gJuDl9KReMCb1K4OqjeVPvtGekl83HFxkCxxA5fvsm298YDPPLolYNyqu7xwPWspRX+NMX6SuGgEkHb1GnVq0FAcOBzVYZYQlXpsfBGgX2uV9ffgaZYwVYY3eRqS9c89pw4RHhlk1XpFNbrGfpS03AVzvLCVy4V4TmteESFrS1EfEU+7d8l52G5uG4r9K8AZgquEfZ6LghQUJ4+aq+Qv29p19cmcL0U1Sjt9SmWvJ4IdSgjmtvn29tG1m3rdo7FnGWEbpWSs+GcxLzy6kB8WltqjVPEPGYKAu3/OZUVjjnhOw2JfLWu1IH3sGgByQOFJcoo3ttXyk7pKF5OG67RIpwUkpV++mOZnmkrOT8P6RXxE9rRcz3HtO8fpI0UJ2zy2P1zftqnrD09nXLY7yfKxS5m+0A56d8NYJ2zeuuq1QUibYudRtuBAAwGDr1V6mCCgfro4b+udS4j6IPYt0By0dCjKn6aN499q7KyRpkHBjil4Nba+BN67ovQB/X5J2T3SI0X7VnNDD3zySDVSgUtTFzAFiYRIwQuDLVS2EAWJbuv5y6SS0scc1rw4VHhFueIVLr5db+rwHrhwxiGQf3itC8NlyChL5pHo7bkbvRGFj5Jt9+pW4mFeU6LnBlpl1Rx9tSPJ0XtraO1DGuvWNx1LiMoo8ikxCzHOJsCFOdBXmNw7y87MkLW11HTItwy4qwRMQ257rinxfkt/nSQh6y/C9yrobiEiH1TfNw3M78cxGceElKS3vvmdQk+r013347NXC6NZve0YFxwDk6ktb+pEdd3M67tofVfyILrMEQD0EDYbn0dztgGnhRDfMEO1L0SiDmQX0075VArfZQ9Pn1XImk5AE+uNfjW5dMagGhRsCvMFzND4WLK9N1W2ZBQUFB4cVSeUPza3ojEftqLbjwiHDL9OzgvZipACxLIeZBuFfkfl4LLhGg1jZSxd/TPK8DVyk/OMMcAMAyHjbadfbS9TsPX2jUsdek4HBlSiqbqXv0xaVZPGTlDbI6rr3jYmIcxsq8rm2QZyiIzErj7gTEJp/sKNjD1vJFPGRRDcEV3HLj7oRuG/KwL/mquuR+Xgsu4WvfNK8DV9kkmxOHOTbscKy7JDWw+ErxS2r6U1Gk78V7av7dtUgXA2DpGSTOysM6ekHB4R+s9dS8XnVpcbyQ+JgAl3038T/BFdJbzdNQUN2at/COJWJV/Vv5gOiLGsqkG0Y1tUd/DI9Iw7KG5rV7BcclfOi75iG42CsWz+qKpX8cjg7ZGuA9xcYA2PyU13VFSqeAdg1Xpqb2aFXR99Q8Yie9fOHubfq3+iV9fUEfa+i4xHWfNQ/DxZh83SS7dfVoeWFQXtrMI2GcI1kFeo6f3X3sg+bpefv72ELYQ6hegqHlv9vpqXl43VfnI319g89S+1fM7/JdI4HFf4itM9ZHta/tmxLnAzAnUZ3jrwgaAUxVSWeN+ZbOCr62p58XvFNcOZ2Zf4M4BMBWs5xNhdR2j14R7SmH16UAFBceEa556Npeu1cfT/NwNrrEjqJo51+h44Ghf7Y+E5S2FThZV2Oep2P1bW1PWMbW2FZ5d7S0L3ysIXzom+Z14NLDw5hsKnTjRWy6TV9EdisCue215turQ2jn881H5wLgElFHgSvr9k8C3TWPq2iZhErHUN7A63YWbbECJvOSFBT9yr/2ugAwnd+I1287s5oNHILKqCU4nsMbu7eGNC7bOgyY+Wa2ELdv6w64Yu8UEFV1zLdEDm+tOodXtXMsMFieSrj/PM17CBi1/TKVfFZWCf18Ao7XEUAaszHpDvkD1Tw8Itwy10dCLXbxHN6o3RWEZbhX+mheSxvR/O9pbQ/HbTzu6+zyc7Z6Xr99wA0MWXVan+kJ17wwPYNK0uE5PP5eajsG1bwyC8vh5XXN4QkjyBkAbvm1RBrOSTxXRqXElY9LA7KkJ5+SREBxiTLPhCkI5095995OY7KnHB4c9/nJbNG0/Dr1VqZF5s4L96+nspQ043pc6ql54t0y9Xt456nsyf1j80yA0Zil2w/FxR3as27aJM/Zo7pr/t9L22yBofOaCPK0LusGkdSC1+28KZrFBWw7z8DwWCFvr//UYQAM98+iOr2yJtTZgGU1Azuri9n1/QQOMFuSSqZmUbTzDt/DCHC/XhPKF0b9NnfEEGCz9n+Uzzo0oKwOcWYDLnZWFyeMCPzG1oDl8OtF6qy/7fK2MQZg6NT1SKxIEBbgbg3YE/ZWkEPP+2gehUaEW57+zaLJ+PFiyBpXM2Dw9YFaasqEeqUjXryXaGujpnLyqE6MndWxZ28jDu7EOUTKHIrbURU61gAMn715P3ZWJwhZ5cIF3O9UB6rQ3okrMzXJ+6QEqSDP6kz/kNVREwBce8qmwqn8sK/SsLM6gUwyWYgMP1NDLfp0WG5T5LrwEbuUM5GVV0QlUs94xPz4+SpKXHBcPKK3ly8c4sSK1peWEmd1Z5uJ8aO1sg47qCPP6mKTduDXyfJ6IrcIxe28ekloyjs4v6AYO6urLPRPjuQIU9LUYwCOrJT6cdjsmYdpq+4eOdZT80Tais21GT9nQ9f37TubLvH8PRytOJxhjrM3JtaUhDh21zyKPi/jrXKz5RoQZhaIyflXV93W21lhq2ZNtDfnWNg7e67jXezy6vq/D/IjVruPNDdim1g5zf85sVqlaSzSzmeV8YFznUeYc60cp63Yk9VAzcyojnkeq9tSnbhloZvDMK6ZrZPmOzl/n9//o8coCyNjc7uJczcJZQ+pVU4P5/NdSIfO8yiKQiLCNT8/qSYn6Nvxllzs/ZaQnC75sA7tXumjeW1thO2nevqoMqAwXLT9tnTPiimjLU0MANvMdrxngKDkCSXbLsxo3ODKzKiS38lblhRljb2FUphHy1rp0t5bxd2idal8W0G4Jf5OTg11dIKiOiyjaOfDe8Ub0rD3eWwT4hbnlV56pXZZFy4ex5tG4dn40cIw/A0cZKmcWKsoQo9pZgfDvuSrsgMwXLTjabYsfWZilCUfMY875CaRihQa/zfvRvgENtsxmDyv1qBU9QfdmlcVZS4+IQO45ucmUaucT+hJ/0DjyjxVRa2pPyDox7P8AZ3si6lWibch2zwgh9qWaLXBaF4rNZ/VAx27hs/K1w/hDK5M+lndhzCK2/h4lj+Yi30zVL57JJu9JFn3tMBovm8E93ctRvMfivGBqvnmpEVstksUmU2GscVoHsYO84xhYOAxwGh+4LUpExHDAIwBRvMwdphnDAMDjwFG8wOvTZmIGAZgDDCah7HDPGMYGHgMMJofeG3KRMQwAGOA0TyMHeYZw8DAY4DR/MBrUyYihgEYA/8H9fxo7xN20NkAAAAASUVORK5CYII=;" parent="1" vertex="1">
          <mxGeometry x="1530" y="1924" width="337" height="32" as="geometry" />
        </mxCell>
        <mxCell id="QVa-zLG6aqoEDmhBlNKH-80" style="edgeStyle=orthogonalEdgeStyle;rounded=0;orthogonalLoop=1;jettySize=auto;html=1;entryX=0.5;entryY=1;entryDx=0;entryDy=0;fontFamily=Helvetica;fontSize=16;fontColor=default;" parent="1" source="QVa-zLG6aqoEDmhBlNKH-75" target="QVa-zLG6aqoEDmhBlNKH-77" edge="1">
          <mxGeometry relative="1" as="geometry" />
        </mxCell>
        <mxCell id="QVa-zLG6aqoEDmhBlNKH-81" value="账号密码等从这里拿" style="edgeLabel;html=1;align=center;verticalAlign=middle;resizable=0;points=[];rounded=0;strokeColor=#6c8ebf;fontFamily=Helvetica;fontSize=16;fontColor=default;fillColor=#dae8fc;" parent="QVa-zLG6aqoEDmhBlNKH-80" vertex="1" connectable="0">
          <mxGeometry x="-0.2137" y="3" relative="1" as="geometry">
            <mxPoint as="offset" />
          </mxGeometry>
        </mxCell>
        <mxCell id="QVa-zLG6aqoEDmhBlNKH-86" style="edgeStyle=orthogonalEdgeStyle;rounded=0;orthogonalLoop=1;jettySize=auto;html=1;fontFamily=Helvetica;fontSize=16;fontColor=default;" parent="1" source="QVa-zLG6aqoEDmhBlNKH-84" target="QVa-zLG6aqoEDmhBlNKH-85" edge="1">
          <mxGeometry relative="1" as="geometry" />
        </mxCell>
        <mxCell id="QVa-zLG6aqoEDmhBlNKH-87" value="创建&lt;div&gt;基于 @Conditional 条件注解&lt;/div&gt;" style="edgeLabel;html=1;align=left;verticalAlign=middle;resizable=0;points=[];rounded=0;strokeColor=#6c8ebf;fontFamily=Helvetica;fontSize=16;fontColor=default;fillColor=#dae8fc;" parent="QVa-zLG6aqoEDmhBlNKH-86" vertex="1" connectable="0">
          <mxGeometry x="-0.0154" y="-2" relative="1" as="geometry">
            <mxPoint x="-102" y="-27" as="offset" />
          </mxGeometry>
        </mxCell>
        <mxCell id="QVa-zLG6aqoEDmhBlNKH-84" value="自动配置类&lt;div&gt;xxxAutoConfiguration&lt;/div&gt;" style="rounded=0;whiteSpace=wrap;html=1;strokeColor=#6c8ebf;align=center;verticalAlign=middle;fontFamily=Helvetica;fontSize=16;fontColor=default;fillColor=#dae8fc;" parent="1" vertex="1">
          <mxGeometry x="40" y="2410" width="170" height="60" as="geometry" />
        </mxCell>
        <mxCell id="QVa-zLG6aqoEDmhBlNKH-89" style="edgeStyle=orthogonalEdgeStyle;rounded=0;orthogonalLoop=1;jettySize=auto;html=1;fontFamily=Helvetica;fontSize=16;fontColor=default;" parent="1" source="QVa-zLG6aqoEDmhBlNKH-85" target="QVa-zLG6aqoEDmhBlNKH-88" edge="1">
          <mxGeometry relative="1" as="geometry" />
        </mxCell>
        <mxCell id="QVa-zLG6aqoEDmhBlNKH-90" value="底层属性" style="edgeLabel;html=1;align=center;verticalAlign=middle;resizable=0;points=[];rounded=0;strokeColor=#6c8ebf;fontFamily=Helvetica;fontSize=16;fontColor=default;fillColor=#dae8fc;" parent="QVa-zLG6aqoEDmhBlNKH-89" vertex="1" connectable="0">
          <mxGeometry x="-0.2471" y="-1" relative="1" as="geometry">
            <mxPoint x="1" y="-21" as="offset" />
          </mxGeometry>
        </mxCell>
        <mxCell id="QVa-zLG6aqoEDmhBlNKH-85" value="组件" style="rounded=0;whiteSpace=wrap;html=1;strokeColor=#36393d;align=center;verticalAlign=middle;fontFamily=Helvetica;fontSize=16;fillColor=#ffcccc;" parent="1" vertex="1">
          <mxGeometry x="416.25" y="2410" width="120" height="60" as="geometry" />
        </mxCell>
        <mxCell id="QVa-zLG6aqoEDmhBlNKH-92" style="edgeStyle=orthogonalEdgeStyle;rounded=0;orthogonalLoop=1;jettySize=auto;html=1;entryX=0;entryY=0.5;entryDx=0;entryDy=0;fontFamily=Helvetica;fontSize=16;fontColor=default;" parent="1" source="QVa-zLG6aqoEDmhBlNKH-88" target="QVa-zLG6aqoEDmhBlNKH-91" edge="1">
          <mxGeometry relative="1" as="geometry" />
        </mxCell>
        <mxCell id="QVa-zLG6aqoEDmhBlNKH-88" value="属性类&lt;div&gt;xxxProperties&lt;/div&gt;" style="rounded=0;whiteSpace=wrap;html=1;strokeColor=#6c8ebf;align=center;verticalAlign=middle;fontFamily=Helvetica;fontSize=16;fontColor=default;fillColor=#dae8fc;" parent="1" vertex="1">
          <mxGeometry x="630" y="2410" width="120" height="60" as="geometry" />
        </mxCell>
        <mxCell id="QVa-zLG6aqoEDmhBlNKH-91" value="配置文件" style="rounded=0;whiteSpace=wrap;html=1;strokeColor=#36393d;align=center;verticalAlign=middle;fontFamily=Helvetica;fontSize=16;fillColor=#ffff88;" parent="1" vertex="1">
          <mxGeometry x="980" y="2410" width="120" height="60" as="geometry" />
        </mxCell>
        <mxCell id="QVa-zLG6aqoEDmhBlNKH-93" value="绑定&#xa;@ConfigurationProperties" style="text;align=center;verticalAlign=middle;resizable=0;points=[];autosize=1;strokeColor=none;fillColor=none;fontFamily=Helvetica;fontSize=16;fontColor=default;" parent="1" vertex="1">
          <mxGeometry x="740" y="2370" width="240" height="90" as="geometry" />
        </mxCell>
        <mxCell id="QVa-zLG6aqoEDmhBlNKH-94" value="代码" style="rounded=0;whiteSpace=wrap;html=1;strokeColor=#36393d;align=center;verticalAlign=middle;fontFamily=Helvetica;fontSize=16;fillColor=#ffff88;" parent="1" vertex="1">
          <mxGeometry x="980" y="2540" width="120" height="60" as="geometry" />
        </mxCell>
        <mxCell id="QVa-zLG6aqoEDmhBlNKH-95" style="edgeStyle=orthogonalEdgeStyle;rounded=0;orthogonalLoop=1;jettySize=auto;html=1;fontFamily=Helvetica;fontSize=16;fontColor=default;entryX=0.5;entryY=1;entryDx=0;entryDy=0;" parent="1" source="QVa-zLG6aqoEDmhBlNKH-94" target="QVa-zLG6aqoEDmhBlNKH-85" edge="1">
          <mxGeometry relative="1" as="geometry">
            <mxPoint x="420" y="2480" as="targetPoint" />
          </mxGeometry>
        </mxCell>
        <mxCell id="QVa-zLG6aqoEDmhBlNKH-103" style="edgeStyle=orthogonalEdgeStyle;rounded=0;orthogonalLoop=1;jettySize=auto;html=1;fontFamily=Helvetica;fontSize=16;fontColor=default;" parent="1" source="QVa-zLG6aqoEDmhBlNKH-100" target="QVa-zLG6aqoEDmhBlNKH-102" edge="1">
          <mxGeometry relative="1" as="geometry" />
        </mxCell>
        <mxCell id="QVa-zLG6aqoEDmhBlNKH-100" value="属性类" style="rounded=0;whiteSpace=wrap;html=1;strokeColor=#6c8ebf;align=center;verticalAlign=middle;fontFamily=Helvetica;fontSize=16;fontColor=default;fillColor=#dae8fc;" parent="1" vertex="1">
          <mxGeometry x="180" y="930" width="120" height="40" as="geometry" />
        </mxCell>
        <mxCell id="QVa-zLG6aqoEDmhBlNKH-102" value="配置文件" style="rounded=0;whiteSpace=wrap;html=1;strokeColor=#36393d;align=center;verticalAlign=middle;fontFamily=Helvetica;fontSize=16;fillColor=#ffff88;" parent="1" vertex="1">
          <mxGeometry x="180" y="810" width="120" height="40" as="geometry" />
        </mxCell>
        <mxCell id="QVa-zLG6aqoEDmhBlNKH-105" value="&lt;span style=&quot;font-size: 22px;&quot;&gt;4、自动配置类把组件配置到容器中，基本做两件事&lt;/span&gt;&lt;div&gt;&lt;span style=&quot;font-size: 22px;&quot;&gt;&amp;nbsp; 1）、把属性类和配置文件进行绑定&lt;/span&gt;&lt;/div&gt;&lt;div&gt;&lt;span style=&quot;font-size: 22px;&quot;&gt;&amp;nbsp; 2）、组件要用的所有属性放到容器中&lt;/span&gt;&lt;/div&gt;" style="text;html=1;align=left;verticalAlign=middle;resizable=0;points=[];autosize=1;strokeColor=none;fillColor=none;fontFamily=Helvetica;fontSize=16;fontColor=default;" parent="1" vertex="1">
          <mxGeometry x="30" y="1330" width="520" height="90" as="geometry" />
        </mxCell>
        <mxCell id="QVa-zLG6aqoEDmhBlNKH-108" value="" style="endArrow=none;html=1;rounded=0;fontFamily=Helvetica;fontSize=16;fontColor=default;" parent="1" edge="1">
          <mxGeometry width="50" height="50" relative="1" as="geometry">
            <mxPoint x="30" y="1300" as="sourcePoint" />
            <mxPoint x="1616" y="1300" as="targetPoint" />
          </mxGeometry>
        </mxCell>
      </root>
    </mxGraphModel>
  </diagram>
</mxfile>
